# Stint car part
o paint
usemtl paint
v -0.2122 -0.1233 -0.1554
v -0.1832 -0.1238 -0.1451
v -0.0230 -0.1230 -0.1658
v 0.1721 -0.1215 -0.1982
v 0.0000 -0.1205 -0.2071
v -0.2541 -0.1210 -0.2039
v -0.2277 -0.1370 -0.2437
v -0.0912 -0.1370 -0.2417
v -0.1619 -0.1361 -0.2512
v -0.0442 -0.1370 -0.2437
v -0.0764 -0.1353 -0.2327
v -0.1219 -0.1296 -0.2036
v -0.1134 -0.1254 -0.1444
v -0.1748 -0.1247 -0.1422
v -0.1748 -0.1254 -0.1444
v -0.0557 -0.1254 -0.1444
v -0.1134 -0.1247 -0.1422
v -0.1748 -0.1240 -0.1444
v -0.0557 -0.1247 -0.1422
v -0.1134 -0.1240 -0.1444
v -0.2420 -0.1253 -0.1444
v -0.0971 -0.1261 -0.1511
v 0.0000 -0.1261 -0.1511
v 0.0000 -0.1254 -0.1444
v 0.0000 -0.1247 -0.1422
v -0.0458 -0.1240 -0.1444
v -0.2420 -0.1246 -0.1422
v -0.3161 -0.1218 -0.1916
v -0.3230 -0.1232 -0.1534
v -0.4033 -0.1208 -0.2021
v -0.5653 -0.1213 -0.1916
v -0.3618 -0.1353 -0.2336
v -0.4112 -0.1367 -0.2437
v -0.2860 -0.1303 -0.2092
v -0.5653 -0.1322 -0.2212
v -0.5653 -0.1363 -0.2437
v -0.4797 -0.1356 -0.2512
v -0.3424 -0.1359 -0.2512
v -0.3624 -0.1275 -0.1868
v -0.3162 -0.1259 -0.1511
v -0.5654 -0.1271 -0.1838
v -0.4260 -0.1257 -0.1512
v -0.5653 -0.1295 -0.2070
v -0.3459 -0.1319 -0.2559
v -0.4797 -0.1316 -0.2559
v -0.3960 -0.1260 -0.2575
v -0.4797 -0.1259 -0.2575
v -0.3960 -0.1202 -0.2561
v -0.2420 -0.1320 -0.2559
v -0.5653 -0.1334 -0.2535
v -0.5653 -0.1228 -0.2568
v -0.4797 -0.1200 -0.2561
v -0.4797 -0.1158 -0.2516
v -0.3960 -0.1160 -0.2516
v -0.2668 -0.1162 -0.2516
v -0.2643 -0.1204 -0.2561
v -0.2710 -0.1262 -0.2575
v -0.3960 -0.1236 -0.1444
v -0.3162 -0.1245 -0.1421
v -0.3161 -0.1238 -0.1444
v -0.4797 -0.1235 -0.1444
v -0.3960 -0.1243 -0.1421
v -0.3162 -0.1252 -0.1444
v -0.4797 -0.1242 -0.1421
v -0.3961 -0.1251 -0.1444
v -0.5653 -0.1228 -0.1511
v -0.5653 -0.1233 -0.1444
v -0.5653 -0.1240 -0.1421
v -0.4798 -0.1249 -0.1444
v -0.5654 -0.1247 -0.1444
v -0.3162 -0.1148 -0.2441
v -0.4217 -0.1146 -0.2441
v -0.4094 -0.1157 -0.2342
v -0.4797 -0.1177 -0.2215
v -0.2094 -0.1149 -0.2428
v -0.5653 -0.1156 -0.2516
v -0.5653 -0.1176 -0.2205
v -0.2420 -0.1160 -0.2339
v -0.1748 -0.1283 -0.1916
v -0.1820 -0.1260 -0.1512
v -0.0460 -0.1283 -0.1916
v -0.1408 -0.1272 -0.1762
v -0.1517 -0.1264 -0.2575
v -0.1454 -0.1205 -0.2561
v -0.0468 -0.1205 -0.2561
v -0.1539 -0.1321 -0.2559
v -0.0450 -0.1264 -0.2575
v -0.1483 -0.1163 -0.2516
v -0.0465 -0.1163 -0.2516
v -0.0450 -0.1322 -0.2559
v -0.0967 -0.1182 -0.2215
v 0.0458 -0.1161 -0.2343
v -0.0455 -0.1151 -0.2441
v 0.1323 -0.1227 -0.1766
v 0.1961 -0.1234 -0.1514
v 0.1097 -0.1234 -0.1513
v 0.2717 -0.1221 -0.1878
v 0.2422 -0.1355 -0.2335
v 0.1274 -0.1370 -0.2437
v 0.2631 -0.1369 -0.2437
v 0.0871 -0.1361 -0.2512
v 0.0557 -0.1302 -0.2070
v 0.2420 -0.1328 -0.2212
v 0.1873 -0.1297 -0.2050
v 0.1748 -0.1247 -0.1422
v 0.1134 -0.1254 -0.1444
v 0.1748 -0.1254 -0.1444
v 0.1134 -0.1247 -0.1422
v 0.0557 -0.1254 -0.1444
v 0.1748 -0.1240 -0.1444
v 0.1134 -0.1240 -0.1444
v 0.0557 -0.1247 -0.1422
v 0.2420 -0.1253 -0.1444
v 0.1748 -0.1261 -0.1512
v 0.0557 -0.1240 -0.1444
v 0.1832 -0.1238 -0.1451
v 0.2420 -0.1246 -0.1422
v 0.4797 -0.1222 -0.1761
v 0.3555 -0.1220 -0.1877
v 0.2853 -0.1208 -0.2039
v 0.5653 -0.1206 -0.1994
v 0.5653 -0.1224 -0.1621
v 0.3644 -0.1231 -0.1514
v 0.3161 -0.1229 -0.1621
v 0.3619 -0.1353 -0.2336
v 0.4797 -0.1324 -0.2212
v 0.4112 -0.1367 -0.2437
v 0.2978 -0.1303 -0.2092
v 0.5653 -0.1295 -0.2070
v 0.5653 -0.1363 -0.2437
v 0.4797 -0.1356 -0.2512
v 0.2589 -0.1360 -0.2512
v 0.3558 -0.1270 -0.1762
v 0.4164 -0.1279 -0.1915
v 0.3410 -0.1258 -0.1511
v 0.5021 -0.1255 -0.1512
v 0.5654 -0.1247 -0.1444
v 0.5654 -0.1265 -0.1761
v 0.5654 -0.1276 -0.1915
v 0.3298 -0.1289 -0.2001
v 0.2711 -0.1262 -0.2575
v 0.3458 -0.1319 -0.2559
v 0.3960 -0.1260 -0.2575
v 0.4797 -0.1316 -0.2559
v 0.2640 -0.1204 -0.2561
v 0.3960 -0.1202 -0.2561
v 0.4797 -0.1259 -0.2575
v 0.1880 -0.1321 -0.2559
v 0.5653 -0.1334 -0.2535
v 0.4797 -0.1200 -0.2561
v 0.4797 -0.1158 -0.2516
v 0.5653 -0.1228 -0.2568
v 0.3960 -0.1160 -0.2516
v 0.2668 -0.1162 -0.2516
v 0.3162 -0.1245 -0.1421
v 0.3960 -0.1236 -0.1444
v 0.3161 -0.1238 -0.1444
v 0.3960 -0.1243 -0.1421
v 0.4797 -0.1235 -0.1444
v 0.3162 -0.1252 -0.1444
v 0.3961 -0.1251 -0.1444
v 0.4797 -0.1242 -0.1421
v 0.5653 -0.1228 -0.1511
v 0.5653 -0.1233 -0.1444
v 0.4798 -0.1249 -0.1444
v 0.5653 -0.1240 -0.1421
v 0.4272 -0.1157 -0.2339
v 0.4797 -0.1155 -0.2339
v 0.3697 -0.1147 -0.2441
v 0.2146 -0.1150 -0.2441
v 0.5653 -0.1150 -0.2479
v 0.2688 -0.1181 -0.2215
v 0.1713 -0.1278 -0.1863
v 0.1041 -0.1272 -0.1764
v 0.1454 -0.1205 -0.2561
v 0.1515 -0.1264 -0.2575
v 0.0557 -0.1205 -0.2561
v 0.0557 -0.1264 -0.2575
v 0.1483 -0.1163 -0.2516
v 0.0557 -0.1163 -0.2516
v 0.0557 -0.1322 -0.2559
v 0.1315 -0.1182 -0.2215
v 0.1004 -0.1151 -0.2441
v -0.1499 -0.1119 -0.1247
v -0.2343 -0.1198 -0.1741
v -0.0923 -0.1199 -0.1741
v -0.1613 -0.1194 -0.1565
v -0.0223 -0.1205 -0.1645
v 0.0000 -0.1146 -0.1340
v -0.2074 -0.0900 -0.0823
v -0.2420 -0.1143 -0.1340
v -0.2417 -0.0507 -0.0547
v -0.0464 -0.0567 -0.0618
v -0.1904 -0.0018 -0.0096
v 0.0092 -0.0059 -0.0129
v -0.0835 -0.0731 -0.0851
v -0.2225 -0.0771 -0.0924
v -0.2420 -0.0367 -0.0414
v -0.1062 -0.0862 -0.1171
v -0.0834 -0.0985 -0.1750
v -0.2391 -0.0983 -0.1750
v -0.1477 -0.0943 -0.1576
v -0.3161 -0.0364 -0.0415
v -0.3752 -0.0649 -0.0730
v -0.3378 -0.0357 -0.0410
v -0.5028 -0.0351 -0.0418
v -0.4352 -0.0719 -0.0854
v -0.5653 -0.0449 -0.0525
v -0.5653 0.0083 -0.0023
v -0.3881 -0.0013 -0.0107
v -0.1726 -0.0991 -0.0961
v -0.3758 -0.1168 -0.1436
v -0.3132 -0.1203 -0.1700
v -0.4797 -0.1185 -0.1565
v -0.3316 -0.0953 -0.0908
v -0.5653 -0.1081 -0.1214
v -0.5653 -0.1182 -0.1565
v -0.5653 -0.1158 -0.1850
v -0.4120 -0.0593 -0.0461
v -0.4798 -0.0690 -0.0576
v -0.1921 -0.0086 -0.0024
v -0.3513 -0.0332 -0.0218
v -0.4275 -0.0076 -0.0036
v -0.5654 -0.0464 -0.0356
v -0.5653 -0.0784 -0.0703
v -0.1677 -0.0385 -0.0252
v -0.3918 -0.1162 -0.1850
v -0.4797 -0.1103 -0.1888
v -0.4491 -0.1038 -0.1855
v -0.1929 -0.1165 -0.1850
v -0.5653 -0.1068 -0.1872
v -0.4458 -0.0978 -0.1750
v -0.2098 -0.1042 -0.1855
v -0.3025 -0.1107 -0.1888
v -0.2270 0.0087 0.0046
v -0.3398 0.0073 -0.0008
v -0.4797 0.0079 -0.0017
v -0.3162 0.0090 0.0042
v -0.4797 0.0096 0.0032
v -0.4177 0.0042 0.0031
v -0.4379 0.0094 0.0034
v -0.5654 0.0048 0.0021
v -0.2076 0.0034 0.0042
v -0.2420 0.0087 0.0046
v -0.3257 -0.0896 -0.1349
v -0.3961 -0.0937 -0.1577
v -0.3789 -0.0830 -0.1103
v -0.5653 -0.0975 -0.1750
v -0.5653 -0.0711 -0.0856
v -0.1210 -0.1109 -0.1888
v 0.0000 -0.1043 -0.1855
v -0.0000 -0.1166 -0.1850
v -0.2072 -0.0703 -0.0570
v 0.0896 -0.0485 -0.0331
v -0.0557 -0.0705 -0.0570
v 0.0000 -0.0705 -0.0570
v -0.1156 -0.0423 -0.0285
v -0.0462 0.0033 0.0044
v -0.1441 0.0085 0.0049
v -0.2091 0.0069 -0.0002
v 0.0000 0.0085 0.0050
v -0.1134 0.0068 0.0000
v 0.0868 -0.0086 -0.0023
v 0.1235 -0.1113 -0.1228
v 0.1610 -0.1049 -0.1086
v 0.2343 -0.1198 -0.1741
v 0.0923 -0.1199 -0.1741
v 0.1298 -0.0902 -0.0823
v 0.1922 -0.1185 -0.1488
v 0.1909 -0.0019 -0.0097
v 0.0287 -0.0364 -0.0405
v 0.1677 -0.0535 -0.0579
v 0.0557 -0.0731 -0.0851
v 0.2420 -0.0367 -0.0414
v 0.1339 -0.0839 -0.1103
v 0.1838 -0.0730 -0.0852
v 0.1620 -0.0984 -0.1750
v 0.1016 -0.0920 -0.1456
v 0.3257 -0.0896 -0.1348
v 0.3475 -0.0358 -0.0412
v 0.3746 -0.0557 -0.0621
v 0.5028 -0.0351 -0.0418
v 0.3458 -0.0723 -0.0853
v 0.4797 -0.0716 -0.0854
v 0.5653 -0.0711 -0.0856
v 0.5653 -0.0351 -0.0424
v 0.3881 -0.0013 -0.0107
v 0.3578 -0.1177 -0.1468
v 0.4055 -0.1096 -0.1206
v 0.1547 -0.0985 -0.0946
v 0.4364 -0.0889 -0.0825
v 0.5653 -0.0957 -0.0958
v 0.5653 -0.1156 -0.1453
v 0.4398 -0.1193 -0.1741
v 0.3731 -0.0613 -0.0478
v 0.3598 -0.0128 -0.0061
v 0.5654 -0.0214 -0.0154
v 0.5654 -0.0685 -0.0578
v 0.2249 -0.0638 -0.0495
v 0.3025 -0.1107 -0.1888
v 0.3917 -0.1162 -0.1850
v 0.4797 -0.1103 -0.1888
v 0.5653 -0.1158 -0.1850
v 0.4490 -0.1038 -0.1855
v 0.5653 -0.1068 -0.1872
v 0.4004 -0.0980 -0.1750
v 0.3399 0.0073 -0.0008
v 0.4379 0.0094 0.0035
v 0.4797 0.0079 -0.0017
v 0.3653 0.0025 0.0032
v 0.3162 0.0090 0.0042
v 0.2091 0.0069 -0.0002
v 0.5653 0.0083 -0.0023
v 0.4177 0.0042 0.0031
v 0.4797 0.0096 0.0032
v 0.5654 0.0048 0.0021
v 0.2420 0.0087 0.0046
v 0.3961 -0.0937 -0.1577
v 0.3789 -0.0830 -0.1103
v 0.5653 -0.0975 -0.1750
v 0.2098 -0.1042 -0.1855
v 0.1929 -0.1165 -0.1850
v 0.1343 -0.1109 -0.1888
v 0.1487 -0.0704 -0.0570
v 0.1906 -0.0383 -0.0251
v 0.2210 -0.0229 -0.0120
v 0.1441 0.0085 0.0049
v 0.1313 0.0033 0.0044
v 0.2270 0.0087 0.0046
v 0.1134 0.0068 0.0000
v 0.0557 0.0085 0.0050
v 0.0000 0.0067 0.0001
v -0.0557 0.0085 0.0050
f 11 12 34
f 13 14 15
f 16 17 13
f 17 18 14
f 19 20 17
f 22 15 80
f 23 16 22
f 24 19 16
f 25 26 19
f 26 3 20
f 20 1 18
f 14 2 27
f 15 27 21
f 30 31 29
f 29 2 1
f 6 29 1
f 32 33 7
f 34 36 32
f 32 36 33
f 36 37 33
f 33 38 7
f 11 32 8
f 40 39 80
f 42 39 40
f 42 41 39
f 39 43 34
f 45 46 44
f 46 56 57
f 47 48 46
f 38 49 9
f 37 44 38
f 50 45 37
f 50 47 45
f 51 52 47
f 51 53 52
f 52 54 48
f 48 55 56
f 44 57 49
f 58 59 60
f 61 62 58
f 62 63 59
f 64 65 62
f 66 61 29
f 67 64 61
f 68 69 64
f 70 42 69
f 69 42 65
f 65 40 63
f 63 80 21
f 59 21 27
f 60 27 2
f 54 71 55
f 53 72 54
f 76 72 53
f 72 77 73
f 73 77 74
f 74 77 30
f 75 73 78
f 34 79 39
f 82 22 80
f 82 80 39
f 85 83 84
f 87 86 83
f 88 56 55
f 89 84 88
f 90 9 86
f 86 9 49
f 83 49 57
f 84 57 56
f 5 92 91
f 91 92 75
f 93 88 75
f 6 75 78
f 94 96 95
f 94 4 3
f 97 4 94
f 99 101 132
f 99 11 10
f 98 12 11
f 100 98 99
f 105 106 107
f 108 109 106
f 110 108 105
f 111 112 108
f 109 23 114
f 112 24 109
f 115 25 112
f 96 26 115
f 96 115 111
f 95 111 110
f 116 105 117
f 117 107 113
f 119 123 118
f 118 122 121
f 116 124 95
f 97 124 119
f 97 119 120
f 128 125 126
f 126 130 129
f 131 130 127
f 132 127 100
f 98 100 125
f 103 125 128
f 133 136 135
f 133 139 138
f 134 129 139
f 140 128 134
f 173 140 133
f 143 144 142
f 145 143 141
f 146 147 143
f 142 131 132
f 144 149 131
f 147 149 144
f 150 152 147
f 151 152 150
f 153 150 146
f 154 146 145
f 141 142 148
f 155 156 157
f 158 159 156
f 160 158 155
f 161 162 158
f 159 163 123
f 162 164 159
f 165 166 162
f 136 137 165
f 135 165 161
f 135 161 160
f 114 160 113
f 113 155 117
f 117 157 116
f 169 153 154
f 169 151 153
f 169 171 151
f 168 121 171
f 172 120 167
f 170 167 169
f 173 174 104
f 128 173 104
f 102 81 12
f 104 82 81
f 114 82 174
f 114 174 173
f 176 177 175
f 148 178 176
f 145 179 154
f 175 180 179
f 177 89 180
f 178 85 177
f 181 87 178
f 101 90 181
f 101 181 148
f 148 176 141
f 141 175 145
f 120 182 4
f 4 182 5
f 180 93 183
f 179 183 170
f 167 170 92
f 172 92 182
f 1 3 6
f 3 4 5
f 6 3 5
f 8 10 11
f 9 8 7
f 9 10 8
f 9 101 10
f 13 17 14
f 16 19 17
f 17 20 18
f 19 26 20
f 80 15 21
f 22 13 15
f 22 16 13
f 23 24 16
f 24 25 19
f 20 3 1
f 18 1 2
f 14 18 2
f 15 14 27
f 28 30 29
f 6 30 28
f 30 77 31
f 31 66 29
f 6 28 29
f 34 43 35
f 34 35 36
f 36 50 37
f 33 37 38
f 7 38 9
f 8 32 7
f 11 34 32
f 39 41 43
f 44 46 57
f 45 47 46
f 46 48 56
f 47 52 48
f 38 44 49
f 37 45 44
f 50 51 47
f 51 76 53
f 52 53 54
f 48 54 55
f 58 62 59
f 61 64 62
f 62 65 63
f 64 69 65
f 29 60 2
f 29 58 60
f 29 61 58
f 66 67 61
f 67 68 64
f 68 70 69
f 70 41 42
f 65 42 40
f 63 40 80
f 59 63 21
f 60 59 27
f 71 72 73
f 55 71 75
f 54 72 71
f 72 76 77
f 73 74 30
f 6 73 30
f 78 73 6
f 75 71 73
f 79 12 82
f 12 81 82
f 34 12 79
f 82 23 22
f 39 79 82
f 85 87 83
f 87 90 86
f 88 84 56
f 89 85 84
f 90 101 9
f 83 86 49
f 84 83 57
f 6 91 75
f 6 5 91
f 75 92 93
f 93 89 88
f 75 88 55
f 96 94 3
f 97 120 4
f 95 97 94
f 100 99 132
f 101 99 10
f 99 98 11
f 98 102 12
f 98 104 102
f 103 128 104
f 98 103 104
f 105 108 106
f 108 112 109
f 110 111 108
f 111 115 112
f 113 107 114
f 107 106 114
f 106 109 114
f 109 24 23
f 112 25 24
f 115 26 25
f 96 3 26
f 95 96 111
f 116 95 110
f 116 110 105
f 117 105 107
f 119 124 123
f 120 119 121
f 119 118 121
f 118 123 122
f 123 163 122
f 116 123 124
f 97 95 124
f 125 100 127
f 128 126 129
f 126 125 130
f 125 127 130
f 131 149 130
f 132 131 127
f 103 98 125
f 133 140 134
f 114 133 135
f 136 138 137
f 136 133 138
f 133 134 139
f 134 128 129
f 114 173 133
f 141 143 142
f 143 147 144
f 145 146 143
f 146 150 147
f 148 142 132
f 142 144 131
f 147 152 149
f 151 171 152
f 153 151 150
f 154 153 146
f 155 158 156
f 158 162 159
f 160 161 158
f 161 165 162
f 116 157 123
f 157 156 123
f 156 159 123
f 159 164 163
f 165 137 166
f 135 136 165
f 114 135 160
f 113 160 155
f 117 155 157
f 169 167 168
f 170 169 154
f 169 168 171
f 168 167 121
f 167 120 121
f 128 140 173
f 102 104 81
f 104 174 82
f 114 23 82
f 176 178 177
f 148 181 178
f 145 175 179
f 175 177 180
f 177 85 89
f 178 87 85
f 181 90 87
f 132 101 148
f 141 176 175
f 92 170 183
f 120 172 182
f 5 182 92
f 92 183 93
f 180 89 93
f 179 180 183
f 154 179 170
f 172 167 92
f 186 188 187
f 187 189 184
f 187 184 191
f 192 198 194
f 196 199 197
f 199 202 245
f 199 245 197
f 204 192 197
f 249 204 207
f 208 206 204
f 208 210 206
f 206 194 205
f 203 194 198
f 204 198 192
f 215 216 212
f 212 217 214
f 214 218 213
f 191 213 187
f 211 212 191
f 223 242 222
f 222 225 220
f 220 225 215
f 253 215 190
f 222 219 226
f 228 229 234
f 213 227 185
f 218 227 213
f 218 228 227
f 231 229 228
f 231 232 229
f 229 201 233
f 227 234 230
f 237 241 236
f 239 240 238
f 210 236 194
f 209 237 210
f 209 241 237
f 242 223 240
f 240 221 243
f 238 243 244
f 236 235 260
f 232 246 201
f 248 246 232
f 248 245 246
f 248 247 245
f 249 207 247
f 246 245 202
f 251 250 233
f 200 233 201
f 252 186 230
f 250 230 234
f 211 255 253
f 211 256 255
f 253 257 226
f 258 259 243
f 261 262 235
f 263 258 221
f 332 194 262
f 262 194 260
f 266 188 267
f 265 211 264
f 269 265 264
f 269 264 188
f 271 193 195
f 272 196 193
f 275 273 276
f 273 275 196
f 278 202 199
f 277 202 278
f 272 283 276
f 281 284 283
f 281 285 284
f 282 285 281
f 287 286 282
f 270 282 280
f 270 280 274
f 274 281 272
f 289 293 292
f 288 303 293
f 269 294 288
f 265 288 290
f 310 326 296
f 326 298 297
f 295 292 298
f 299 291 295
f 325 295 326
f 304 302 300
f 301 294 266
f 301 303 294
f 302 303 301
f 304 305 302
f 306 305 304
f 306 304 321
f 300 301 322
f 308 309 307
f 314 315 311
f 307 287 270
f 309 313 287
f 308 313 309
f 296 316 314
f 310 311 317
f 329 307 312
f 278 306 277
f 318 320 306
f 279 320 318
f 319 320 279
f 284 285 319
f 276 319 275
f 279 318 278
f 323 251 321
f 251 200 277
f 252 250 323
f 267 252 322
f 322 323 300
f 290 324 268
f 268 256 211
f 254 257 256
f 325 263 254
f 299 325 324
f 330 261 329
f 328 263 326
f 331 258 328
f 270 332 330
f 270 330 312
f 317 328 310
f 185 186 187
f 187 188 189
f 184 189 264
f 184 264 211
f 191 184 211
f 194 195 192
f 192 195 193
f 192 193 196
f 192 196 197
f 196 275 199
f 202 200 201
f 204 205 203
f 204 206 205
f 249 208 204
f 208 209 210
f 206 210 194
f 203 205 194
f 204 203 198
f 211 215 212
f 190 215 211
f 215 225 216
f 212 216 217
f 214 217 218
f 212 214 213
f 187 213 185
f 191 212 213
f 219 222 220
f 221 223 222
f 222 242 224
f 222 224 225
f 219 220 215
f 253 219 215
f 226 219 253
f 227 228 234
f 234 229 233
f 185 227 230
f 218 231 228
f 231 248 232
f 229 232 201
f 236 241 235
f 238 240 243
f 194 236 260
f 210 237 236
f 239 242 240
f 240 223 221
f 201 246 202
f 248 249 247
f 247 207 204
f 247 204 197
f 245 247 197
f 250 252 230
f 200 251 233
f 252 188 186
f 230 186 185
f 233 250 234
f 253 255 257
f 190 211 253
f 255 256 257
f 254 263 221
f 257 254 221
f 226 257 221
f 222 226 221
f 258 333 259
f 235 262 260
f 261 332 262
f 221 258 243
f 332 195 194
f 243 259 244
f 266 269 188
f 188 264 189
f 265 268 211
f 265 290 268
f 270 272 271
f 270 271 195
f 271 272 193
f 272 273 196
f 272 276 273
f 274 272 270
f 275 278 199
f 277 200 202
f 279 278 275
f 280 282 281
f 272 281 283
f 282 286 285
f 287 313 286
f 270 287 282
f 274 280 281
f 290 288 289
f 291 290 289
f 291 289 292
f 289 288 293
f 288 294 303
f 269 266 294
f 265 269 288
f 296 326 297
f 326 295 298
f 295 291 292
f 299 290 291
f 325 299 295
f 300 302 301
f 321 304 300
f 322 301 266
f 302 305 303
f 306 320 305
f 277 306 321
f 329 308 307
f 310 314 311
f 312 307 270
f 307 309 287
f 314 316 315
f 296 297 316
f 310 296 314
f 278 318 306
f 319 285 320
f 283 284 319
f 276 283 319
f 275 319 279
f 322 252 323
f 321 251 277
f 323 250 251
f 267 188 252
f 266 267 322
f 300 323 321
f 324 325 254
f 290 299 324
f 268 324 254
f 268 254 256
f 325 326 263
f 327 331 328
f 312 330 329
f 330 332 261
f 310 328 326
f 328 258 263
f 331 333 258
f 270 195 332
f 317 327 328
