# Stint car part
o rubber
usemtl rubber
v -0.1714 0.3096 -0.1176
v 0.1600 0.2051 -0.2716
v -0.0926 -0.2995 0.1888
v -0.0376 0.2080 0.2915
v 0.0126 0.1815 0.3086
v 0.0719 0.3537 -0.0457
v -0.0152 -0.1073 -0.3414
v 0.0768 0.2989 -0.1946
v 0.1580 -0.3396 -0.0437
v -0.1105 -0.2929 0.1944
v 0.0626 -0.3393 0.1122
v 0.1212 0.1098 0.3338
v 0.0664 0.2318 -0.2713
v -0.1650 0.3361 0.0200
v -0.1570 0.3387 0.0433
v 0.0942 -0.0956 0.3410
v -0.0209 -0.3058 -0.1861
v 0.1259 -0.0047 0.3496
v 0.1538 -0.3216 -0.1204
v -0.1604 0.0791 -0.3302
v 0.1579 -0.1877 -0.2881
v -0.0217 -0.2486 0.2572
v 0.1311 -0.1314 -0.3225
v 0.0318 -0.2380 0.2677
v -0.1715 0.2448 0.2233
v 0.0282 0.2637 -0.2418
v -0.1335 -0.1851 -0.2971
v -0.0228 0.1016 -0.3428
v 0.0546 0.1206 0.3369
v 0.1624 0.3365 -0.0564
v 0.1618 0.2697 0.2063
v 0.1590 0.2020 -0.2791
v -0.0329 -0.2189 0.2826
v -0.0367 -0.3449 0.0985
v 0.1722 -0.1151 -0.3105
v -0.1714 0.0835 0.3213
v 0.1725 -0.1003 0.3152
v -0.1013 0.2732 0.2239
v 0.0719 0.0690 0.3497
v 0.0916 0.3462 0.0786
v 0.0921 0.3513 0.0482
v -0.0572 -0.2800 0.2229
v 0.1598 0.0757 -0.3335
v 0.1459 -0.3050 0.1619
v -0.0538 0.0090 -0.3574
v 0.0283 -0.0665 -0.3521
v 0.0676 -0.2333 -0.2698
v 0.0099 0.2666 0.2399
v -0.0411 -0.3536 -0.0501
v -0.1712 0.2927 0.1577
v -0.1499 0.3321 0.0939
v -0.0715 -0.0736 -0.3487
v -0.1346 -0.1429 0.3168
v -0.1652 -0.3184 0.1137
v -0.1591 0.1748 0.2936
v 0.0032 -0.3490 -0.0802
v 0.1384 0.3255 -0.1182
v 0.0869 -0.0657 -0.3487
v 0.0197 -0.3503 0.0718
v 0.0757 0.0946 0.3431
v -0.0998 0.3386 0.1045
v -0.1591 -0.3398 -0.0492
v -0.1527 -0.3130 -0.1441
v 0.1524 -0.3128 -0.1461
v 0.1566 -0.1898 0.2850
v 0.1594 0.2779 -0.1974
v 0.1727 0.2260 -0.2412
v -0.1598 0.3321 0.0748
v -0.1582 -0.1867 -0.2857
v 0.1627 -0.1286 0.3128
v -0.1651 -0.1031 -0.3216
v 0.1677 0.2996 -0.1493
v 0.1576 -0.3381 0.0453
v -0.1587 -0.0257 -0.3414
v 0.1578 -0.0999 0.3272
v -0.1025 0.2916 -0.1984
v 0.1609 -0.2817 0.1910
v 0.1725 -0.2473 0.2195
v 0.1721 -0.2604 -0.2048
v 0.1625 0.1272 0.3140
v 0.1632 0.0740 0.3300
v 0.1638 0.0053 0.3388
v -0.0986 0.2768 -0.2199
v 0.1672 -0.0649 -0.3289
v -0.1364 -0.3247 -0.1229
v -0.1319 0.1426 -0.3179
v -0.1462 0.1602 -0.3090
v 0.1413 0.0295 -0.3456
v 0.1032 0.2006 0.2919
v 0.1011 -0.1451 -0.3217
v 0.1270 -0.1844 -0.2985
v 0.0829 0.0666 -0.3490
v 0.0209 0.3511 0.0730
v -0.1387 0.2197 0.2675
v 0.0732 0.0392 -0.3542
v -0.1439 -0.1053 -0.3281
v 0.1568 0.3366 0.0571
v -0.1537 -0.2814 0.1996
v -0.1018 -0.2287 -0.2689
v -0.0336 0.2758 -0.2290
v -0.1077 -0.3373 0.1027
v 0.1313 -0.0347 0.3465
v -0.1133 0.3010 0.1848
v 0.1105 0.3389 0.0974
v -0.1382 0.2474 0.2449
v 0.1536 -0.3178 0.1301
v 0.1218 0.0057 0.3525
v 0.1014 -0.0120 -0.3533
v -0.1325 -0.2704 -0.2213
v 0.1131 -0.2915 -0.1973
v -0.1266 0.1346 0.3228
v 0.1386 0.2533 -0.2382
v -0.1218 -0.2006 0.2883
v 0.1465 0.3026 0.1681
v 0.0982 0.2380 0.2629
v -0.1714 0.0389 0.3300
v -0.1606 -0.3389 0.0286
v -0.1412 0.1000 -0.3327
v 0.0828 0.3187 -0.1593
v -0.1028 -0.1065 0.3385
v 0.0853 0.1614 -0.3177
v 0.0331 0.1557 -0.3221
v -0.0979 -0.0926 -0.3415
v 0.0381 -0.1211 0.3381
v 0.0412 -0.3354 -0.1232
v -0.0481 -0.1321 -0.3315
v 0.0214 -0.2895 0.2100
v -0.0402 -0.0581 0.3533
v 0.0667 -0.3180 0.1609
v 0.1541 -0.3404 0.0502
v -0.0481 -0.3407 -0.1082
v 0.0706 0.2822 0.2167
v -0.0247 0.2084 -0.2906
v -0.1358 -0.2473 0.2440
v 0.1315 0.2827 -0.2029
v 0.1259 0.1683 -0.3063
v 0.1562 -0.0328 -0.3399
v 0.1331 0.0489 -0.3440
v -0.1293 0.2997 -0.1770
v 0.0360 -0.0039 0.3577
v 0.0037 0.2243 0.2787
v 0.0763 0.3095 0.1769
v -0.1156 0.0109 0.3506
v -0.0847 0.3517 0.0500
v -0.1281 -0.0333 -0.3474
v -0.0589 -0.2216 -0.2797
v 0.0208 -0.3556 0.0426
v -0.0213 -0.2041 -0.2957
v -0.1312 -0.0827 0.3383
v 0.0395 -0.1461 -0.3265
v -0.0569 -0.3558 0.0249
v 0.0270 0.3279 0.1437
v -0.0200 0.2995 -0.1967
v -0.0470 -0.3236 0.1535
v -0.1122 -0.1536 -0.3182
v -0.0685 0.0808 0.3479
v -0.1133 -0.3205 0.1448
v 0.1426 0.3371 -0.0767
v 0.0150 -0.2795 0.2239
v 0.0679 -0.1074 -0.3405
v -0.1052 0.2191 -0.2762
v -0.1344 0.3160 0.1430
v 0.0406 -0.0021 -0.3587
v -0.0762 -0.0301 0.3562
v -0.0019 0.3344 -0.1287
v 0.1086 -0.3494 -0.0418
v -0.0634 0.2222 -0.2806
v -0.1217 -0.0479 0.3467
v -0.0885 0.3216 0.1515
v -0.1605 0.3161 -0.1254
v -0.1464 0.3453 -0.0143
v -0.0945 0.2300 0.2705
v 0.0578 -0.3552 0.0429
v 0.1052 -0.1765 0.3055
v 0.0927 0.2946 0.1962
v -0.1304 -0.2608 0.2305
v 0.1181 -0.2455 0.2501
v -0.1368 0.1778 0.2980
v 0.0997 -0.2372 0.2640
v -0.1373 -0.2780 0.2071
v -0.1155 0.3340 -0.1140
v -0.0348 0.3354 0.1243
v 0.0682 -0.3495 -0.0722
v 0.1329 -0.3211 0.1456
v 0.0111 0.3538 -0.0583
v -0.1264 0.3473 0.0207
v -0.1334 0.3110 -0.1562
v -0.0784 -0.0038 0.3557
v 0.0564 -0.3032 -0.1893
v -0.1124 0.1838 0.2992
v 0.1721 -0.3014 -0.1373
v -0.1430 0.0239 -0.3455
v 0.1725 0.3082 -0.1202
v -0.1716 -0.2300 0.2384
v 0.0378 -0.0576 0.3530
v -0.1017 0.3477 -0.0713
v -0.0535 0.0431 0.3542
v -0.1153 -0.3409 0.0919
v -0.0538 0.3417 0.1016
v 0.0989 -0.3546 0.0076
v -0.0798 0.3098 -0.1735
v -0.1006 -0.2422 0.2569
v 0.1063 -0.0823 0.3446
v 0.1276 -0.2713 0.2210
v 0.0056 0.1461 0.3273
v -0.0743 -0.2579 0.2457
v -0.0084 0.0029 -0.3581
v 0.1261 -0.1091 -0.3321
v 0.0837 0.3462 -0.0840
v 0.1301 0.1752 0.3022
v -0.0559 -0.1675 0.3151
v 0.1082 0.2703 0.2270
v -0.0539 -0.1900 -0.3016
v -0.0696 -0.3515 -0.0598
v -0.0545 -0.2054 0.2922
v -0.0535 0.0869 -0.3468
v -0.0824 -0.2774 -0.2230
v 0.0605 0.2794 -0.2212
v 0.1072 -0.3529 -0.0229
v 0.0951 0.3283 0.1336
v 0.0999 -0.1572 0.3179
v -0.1571 0.0902 0.3297
v -0.1517 -0.0175 0.3429
v 0.0318 -0.3449 -0.0960
v -0.0847 0.0186 0.3545
v -0.1600 -0.2650 -0.2148
v -0.0543 -0.3571 -0.0213
v -0.0742 0.3546 0.0214
v -0.0285 0.3585 -0.0053
v 0.0143 0.3049 0.1874
v 0.1371 0.3165 -0.1445
v -0.0391 0.2828 0.2195
v 0.0245 0.2030 -0.2943
v -0.0691 -0.0161 -0.3566
v -0.0453 0.1445 0.3273
v 0.0383 -0.1928 0.3015
v 0.0274 -0.3573 0.0068
v -0.0137 -0.2649 -0.2416
v 0.0929 0.2077 -0.2864
v -0.0202 0.3474 -0.0846
v 0.1342 0.3488 -0.0104
v -0.0729 -0.3213 -0.1552
v 0.0767 -0.2762 0.2238
v 0.0683 0.3552 0.0220
v 0.0804 -0.2496 -0.2546
v 0.0148 -0.2474 -0.2583
v 0.0913 -0.3314 -0.1288
v -0.0945 -0.3379 -0.1043
v -0.1044 -0.3432 -0.0807
v -0.1618 0.3377 -0.0258
v -0.0649 -0.3539 0.0398
v 0.0611 0.1007 -0.3439
v -0.1024 -0.0212 -0.3518
v -0.0427 0.1484 -0.3253
v 0.1580 0.3214 0.1141
v -0.0923 0.3523 0.0212
v -0.0768 0.1844 0.3040
v -0.1698 0.3310 -0.0218
v -0.1651 0.3310 -0.0640
v -0.0965 0.0908 0.3416
v 0.0622 0.3551 0.0220
v 0.0600 -0.2702 -0.2325
v 0.0520 -0.1204 0.3362
v -0.1168 0.0693 -0.3446
v -0.0262 -0.0409 0.3552
v 0.0032 0.3568 0.0218
v 0.0267 0.0410 0.3555
v -0.0214 -0.3015 0.1922
v 0.1549 -0.2370 0.2481
v 0.1471 0.3419 0.0215
v 0.0455 -0.3077 0.1833
v -0.1537 0.0401 0.3409
v 0.1545 -0.0803 -0.3338
v -0.1614 0.2862 0.1842
v 0.1722 0.3100 0.1167
v -0.1443 -0.3468 0.0305
v -0.0294 0.3566 0.0217
v 0.1523 -0.2259 -0.2641
v 0.1564 0.3143 -0.1309
v -0.1718 0.1878 -0.2734
v 0.1559 0.2389 0.2428
v -0.1575 0.2747 -0.2030
v 0.1091 0.0755 -0.3435
v -0.1656 0.2149 -0.2590
v 0.1726 -0.1925 0.2685
v -0.1450 0.2377 -0.2514
v 0.1406 0.3448 0.0217
v -0.1601 -0.2719 -0.2037
v -0.1669 -0.1317 0.3141
v -0.1637 -0.3324 -0.0613
v 0.1722 0.2742 0.1848
v -0.1718 0.2284 -0.2395
v 0.1722 0.3312 0.0057
v 0.1549 0.1997 0.2795
v -0.1714 -0.0871 -0.3202
v -0.1714 -0.3297 -0.0385
v -0.1714 0.1738 0.2822
v -0.1711 -0.0163 -0.3320
v 0.1725 0.1003 -0.3154
v 0.1723 0.0489 -0.3274
v 0.1722 -0.2858 -0.1674
v 0.1724 0.3159 -0.0990
v -0.1718 -0.2866 0.1652
v -0.1716 0.2794 -0.1789
v -0.1714 0.0163 0.3320
v -0.1714 0.0012 0.3323
v 0.1721 -0.0344 -0.3295
v -0.1716 0.2112 0.2563
v -0.1715 -0.3318 0.0147
v -0.1714 -0.3070 -0.1224
v -0.1714 0.1268 0.3072
v 0.1725 -0.2835 0.1709
v -0.1713 -0.0504 -0.3286
v 0.1727 0.2813 -0.1740
v -0.1718 0.1689 -0.2856
v -0.1714 -0.1534 -0.2929
v -0.1716 -0.2413 -0.2276
v 0.1721 0.2039 0.2611
v 0.1720 -0.1856 -0.2743
v -0.1714 0.1216 -0.3091
v 0.1722 0.3311 -0.0094
v 0.1727 0.2002 -0.2631
v 0.1721 0.2269 0.2414
v 0.1721 -0.2299 -0.2386
v 0.1722 0.1038 0.3137
v 0.1721 -0.1564 -0.2920
v -0.1713 0.0481 -0.3288
v -0.1715 -0.0958 0.3181
v 0.1724 -0.2712 0.1900
v 0.1721 -0.3116 -0.1129
v 0.1721 -0.3185 -0.0914
v 0.1721 -0.0117 -0.3310
v 0.1720 -0.3241 -0.0694
v 0.1720 -0.3298 -0.0321
v -0.1717 -0.3197 0.0854
v 0.1722 0.3267 -0.0545
v 0.1723 0.3221 -0.0769
v -0.1716 -0.1522 0.2951
v 0.1668 0.3333 0.0286
v 0.1726 -0.1424 0.2986
v -0.1713 0.3184 0.0901
v -0.1715 -0.1175 0.3108
v 0.1722 -0.0717 -0.3230
v 0.1723 -0.0416 0.3284
v 0.1724 -0.3042 0.1307
v -0.1714 -0.0291 0.3310
v -0.1715 -0.0515 0.3282
v 0.1721 0.3230 0.0733
v 0.1722 -0.3173 0.0953
v 0.1723 -0.3126 0.1096
v -0.1715 -0.1317 0.3050
v 0.1720 -0.3297 0.0322
v -0.1714 -0.0140 0.3320
v 0.1722 0.0377 0.3291
v 0.1727 0.1524 -0.2933
v 0.1720 -0.3314 -0.0019
v 0.1721 0.1660 0.2867
v 0.1723 0.2947 0.1511
v 0.1722 0.3303 -0.0245
v 0.1722 -0.1361 -0.3020
v 0.1721 0.3274 0.0511
v 0.1727 0.1819 -0.2763
v 0.1726 0.1215 -0.3076
v 0.1722 -0.3214 0.0807
v 0.1721 -0.3248 0.0659
v 0.1722 0.3289 -0.0396
v 0.1722 0.3013 0.1376
v -0.1864 0.1932 -0.1481
v -0.1864 -0.2387 0.0576
v -0.1983 0.2055 0.2129
v -0.1971 -0.2341 -0.0918
v -0.1864 0.1481 -0.1959
v -0.1943 0.2489 0.0035
v -0.1864 0.2433 0.0315
v -0.1943 0.2486 0.0149
v -0.1864 -0.0172 -0.2443
v -0.1864 -0.2411 -0.0454
v -0.1973 -0.2015 -0.1534
v -0.1864 -0.1354 -0.2046
v -0.1909 0.3044 0.0638
v -0.1940 0.1733 -0.1812
v -0.1968 -0.2066 0.1428
v -0.1714 -0.3209 -0.0830
v -0.1942 0.0120 -0.2532
v -0.2012 -0.1736 0.1963
v -0.1917 -0.0926 -0.2948
v -0.1988 0.2515 -0.1530
v -0.1864 -0.2452 0.0103
v -0.1864 -0.1785 -0.1687
v -0.1941 0.2229 0.1147
v -0.1864 0.0949 0.2241
v -0.1938 0.1425 0.2074
v -0.1864 0.0121 0.2448
v -0.1863 -0.3143 -0.0267
v -0.2018 -0.0222 -0.2816
v -0.2006 -0.0159 -0.2911
v -0.1864 0.2324 -0.0795
v -0.1950 -0.1458 0.2044
v -0.2005 -0.0159 0.2603
v -0.1977 -0.0247 -0.2988
v -0.1950 -0.2482 0.0500
v -0.1864 -0.1590 0.1870
v -0.1864 -0.2195 -0.1087
v -0.1864 -0.0799 -0.2315
v -0.1850 0.0961 -0.3027
v -0.1990 0.2336 -0.0998
v -0.1864 0.0914 -0.2262
v -0.2015 0.0208 0.2861
v -0.1864 -0.2296 0.0873
v -0.2018 -0.2497 -0.1146
v -0.1961 0.1082 -0.2253
v -0.1864 -0.2089 0.1271
v -0.2014 -0.2602 -0.1193
v -0.1864 -0.1249 0.2115
v -0.1874 -0.1219 0.2904
v -0.1864 -0.0495 0.2404
v -0.1941 -0.1202 -0.2190
v -0.1867 0.2802 -0.1435
v -0.2000 -0.0703 -0.2492
v -0.1863 0.3150 0.0043
v -0.1930 -0.1947 -0.2380
v 0.1864 0.2412 0.0427
v 0.1940 -0.0513 -0.3017
v 0.1721 0.2157 0.2515
v 0.1927 -0.2241 -0.2118
v 0.1982 -0.2195 -0.1999
v 0.1916 -0.2437 -0.0389
v 0.2020 -0.2761 -0.0226
v 0.1967 -0.1568 0.2002
v 0.2018 -0.0322 0.2775
v 0.1980 -0.2263 0.1117
v 0.1997 0.0782 -0.2480
v 0.2012 0.1051 -0.2465
v 0.1914 -0.2017 0.1417
v 0.1999 -0.2599 -0.1347
v 0.1722 0.0187 -0.3303
v 0.1941 0.0146 -0.3056
v 0.1864 -0.0138 0.2447
v 0.1983 -0.2562 0.0006
v 0.1872 0.3136 0.0209
v 0.1864 0.2451 0.0012
v 0.2020 0.2260 0.1408
v 0.2002 0.2555 -0.1374
v 0.1937 0.2922 -0.0903
v 0.1925 0.1479 0.1991
v 0.2025 -0.1932 0.2043
v 0.1957 -0.1909 -0.1613
v 0.2000 -0.2602 0.1321
v 0.1929 -0.1701 0.1814
v 0.1931 0.2327 -0.0867
v 0.1864 0.2083 -0.1292
v 0.1973 0.1289 -0.2678
v 0.1872 0.2483 -0.1958
v 0.2006 0.0170 0.2638
v 0.1864 -0.0172 -0.2444
v 0.1864 -0.2053 -0.1335
v 0.2020 0.2613 -0.0735
v 0.1995 -0.1251 -0.2667
v 0.1917 -0.1371 -0.2060
v 0.1918 0.0001 0.2495
v 0.1721 -0.3036 -0.1321
v 0.2005 0.2808 0.0694
v 0.2000 0.2223 -0.1869
v 0.2019 0.2271 -0.1533
v 0.2019 0.2410 0.1119
v 0.1939 -0.1034 0.2265
v 0.2003 0.1644 0.2029
v 0.1962 0.2279 0.1989
v 0.2001 0.1095 0.2367
v 0.1916 -0.2689 -0.1520
v 0.1994 -0.1564 -0.2498
v 0.1864 0.2408 -0.0461
v 0.1992 0.1999 0.2207
v 0.1960 0.1466 0.2622
v 0.1918 0.0308 -0.2453
v 0.1949 0.3042 0.0112
v 0.1946 -0.2319 -0.0913
v 0.1864 -0.0424 -0.2415
v 0.2011 -0.2929 0.0158
v 0.1864 0.1866 0.1580
v 0.1864 -0.1530 -0.1887
v 0.1972 0.2266 -0.1162
v 0.1864 -0.0717 0.2345
v 0.2021 0.2158 0.1689
v 0.1931 0.2278 0.0987
v 0.2020 -0.2524 0.0974
v 0.1864 0.0447 0.2405
v 0.2017 -0.1528 0.2346
v 0.1915 0.0894 0.2303
v 0.1984 -0.0005 0.2955
v 0.1864 0.0330 -0.2422
v 0.1864 -0.2308 0.0812
v 0.1864 -0.2364 -0.0631
v 0.1941 0.2154 -0.2150
v 0.1920 -0.2466 0.0381
v 0.2020 -0.0608 -0.2761
v 0.1813 0.1321 -0.2936
v 0.2018 -0.2547 -0.0725
v 0.1864 0.1814 -0.1646
v 0.2005 0.2701 -0.1037
v 0.1864 0.1327 0.2059
v 0.1909 0.1666 -0.1831
v 0.2000 -0.0875 -0.2460
v 0.1881 -0.0291 0.3131
v 0.1887 0.3069 -0.0611
v 0.1886 -0.2919 -0.1114
v 0.1726 0.2642 -0.1990
v 0.2016 -0.1934 0.1892
v 0.2013 -0.2363 -0.1308
v 0.1943 -0.2118 -0.1297
v 0.1936 0.1956 0.1529
v 0.1923 0.0979 -0.2279
v 0.1788 -0.2784 0.1628
v 0.1945 -0.2052 0.1442
v 0.2019 0.2821 -0.0587
v 0.1887 -0.1917 0.2494
v 0.1919 0.2489 0.0077
v 0.2013 0.2600 0.0715
v 0.1987 0.0437 0.2954
v 0.1940 -0.0296 -0.2471
v 0.2001 -0.1615 -0.2049
v 0.1901 0.2484 -0.1852
v 0.1889 -0.3007 0.0870
v 0.1864 -0.0860 -0.2293
v 0.2012 -0.1902 -0.1890
v 0.2022 0.1920 -0.2082
v 0.1864 0.1156 -0.2162
v 0.1864 0.0846 -0.2295
v 0.1964 0.2803 0.1129
v 0.1933 -0.0905 -0.2308
v 0.1970 -0.2015 -0.2188
v 0.2000 -0.0599 0.2525
v 0.1895 0.1514 -0.2740
v -0.1714 0.3104 -0.1179
v -0.2029 -0.2640 0.0551
v -0.2017 0.1596 0.2106
v -0.1998 0.2589 0.1302
v 0.1809 0.2763 0.1651
v 0.2011 -0.0890 0.2685
v 0.1985 0.0200 -0.2553
v 0.2003 0.0615 -0.2860
v 0.2027 0.0415 0.2638
v 0.1999 0.1964 0.2143
v 0.2024 0.0846 0.2530
v 0.1998 -0.0314 -0.2892
v 0.1989 0.1660 -0.1982
v 0.1970 -0.2847 0.0855
v 0.1864 0.1638 0.1826
v 0.1980 -0.2416 0.0839
v 0.1944 -0.3043 0.0023
v 0.1721 0.1821 0.2766
v 0.1864 -0.1502 0.1924
v 0.1956 -0.2396 0.1681
v 0.1944 -0.1253 0.2782
v 0.1864 -0.2452 -0.0008
v 0.1991 -0.2372 0.1665
v 0.1887 0.3025 0.0797
v 0.1720 -0.3295 0.0132
v 0.1864 -0.1032 0.2225
v 0.1891 0.1535 0.2725
v 0.1953 -0.0785 0.2928
v -0.1958 0.2141 0.2166
v -0.1979 -0.1144 0.2738
v -0.2018 0.2381 0.1161
v -0.1714 -0.0064 0.3322
v -0.1850 0.2379 0.2094
v 0.1727 0.2184 -0.2467
v 0.1977 -0.2137 0.2122
v 0.1980 0.2526 0.0400
v 0.1935 -0.2716 0.1418
v 0.1722 0.0453 0.3283
v 0.1864 -0.1114 -0.2185
v 0.1885 -0.1006 -0.2955
v 0.1722 -0.1115 -0.3116
v 0.1950 -0.3006 -0.0501
v 0.1726 -0.2150 0.2515
v 0.1798 -0.1596 -0.2822
v 0.1721 0.3293 0.0227
v 0.1864 0.1459 -0.1960
v 0.1877 0.0684 -0.3060
v 0.1724 0.0638 -0.3248
v 0.1864 0.2333 0.0754
v 0.1726 -0.1913 0.2699
v 0.1724 -0.0676 0.3241
v 0.1860 0.0984 0.3005
v 0.1892 0.2811 -0.1338
v 0.1723 -0.3099 0.1167
v 0.1721 0.3213 0.0807
v 0.1726 0.1108 -0.3112
v 0.1721 -0.2579 -0.2077
v 0.1725 -0.1251 0.3064
v 0.1722 0.2578 0.2079
v 0.1721 0.2377 0.2307
v 0.1722 0.0823 0.3208
v 0.1722 -0.3193 0.0880
v 0.1727 0.2926 -0.1544
v 0.1722 -0.0512 -0.3265
v 0.1720 -0.3255 -0.0620
v 0.1722 -0.0228 0.3304
v 0.1721 -0.1799 -0.2760
v 0.1722 -0.2779 -0.1802
v 0.1725 0.3109 -0.1111
v 0.1721 -0.2353 -0.2334
v 0.1723 0.2813 0.1738
v 0.1722 0.3150 0.1024
v -0.1981 -0.0713 0.2425
v -0.2002 -0.1239 0.2279
v -0.1867 -0.2288 -0.2165
v -0.1926 -0.2871 -0.1078
v -0.2018 -0.2095 -0.1887
v -0.1714 -0.3319 -0.0157
v -0.1863 -0.1934 0.2498
v -0.2010 0.0984 -0.2724
v -0.2017 -0.0026 -0.2651
v -0.1864 0.0355 -0.2430
v -0.2001 -0.1374 -0.2542
v -0.2011 0.2369 -0.1662
v -0.1923 -0.2933 -0.0978
v -0.1984 -0.2977 -0.0130
v -0.1977 0.2922 0.0042
v -0.1957 0.2459 -0.0548
v -0.1717 -0.2467 0.2176
v -0.1716 -0.1450 0.2977
v -0.1864 0.2441 -0.0245
v -0.1872 0.0709 0.3064
v -0.2003 -0.2098 -0.1539
v -0.1718 -0.2980 0.1457
v -0.1984 0.0396 0.2945
v -0.1920 -0.2593 -0.1673
v -0.2017 0.2077 0.1633
v -0.1992 0.2875 -0.0749
v -0.2018 0.0632 -0.2564
v -0.1858 0.3065 -0.0801
v -0.2017 0.2825 -0.0113
v -0.2009 0.2564 0.0158
v -0.1966 0.3002 -0.0274
v -0.1714 0.3295 0.0424
v -0.2018 0.0747 0.2646
v -0.1858 -0.3119 0.0517
v -0.1992 -0.2558 -0.0184
v -0.1909 0.1574 0.2697
v -0.1864 0.1679 0.1777
v -0.1946 -0.0140 0.3025
v -0.1977 0.0259 0.2530
v -0.1864 -0.1451 -0.2797
v -0.1927 -0.0506 0.3027
v -0.1715 0.2421 0.2259
v -0.2007 -0.2879 -0.0323
v -0.1974 0.2546 0.0036
v -0.2039 0.2586 0.0840
v -0.1885 -0.0202 0.3135
v -0.1712 0.3057 0.1298
v -0.1862 0.2809 0.1434
v -0.1716 -0.2307 -0.2383
v -0.2016 0.1283 0.2296
v -0.1776 -0.2322 -0.2278
v -0.1714 -0.0816 -0.3215
v -0.1864 0.2203 0.1060
v -0.1919 0.0701 -0.2996
v -0.1855 -0.0272 -0.3151
v -0.1928 0.1964 -0.2362
v -0.1716 -0.2612 -0.2049
v -0.1907 -0.2829 0.1298
v -0.1712 -0.0278 -0.3313
v -0.1714 -0.2869 -0.1675
v -0.1913 0.1593 -0.2650
v -0.1714 0.1805 0.2785
v -0.1714 0.1126 0.3126
v -0.1833 -0.2474 0.2011
v -0.1925 0.2329 -0.2022
v -0.1930 -0.3046 0.0396
v -0.1717 0.2548 -0.2125
v -0.1718 0.2315 -0.2373
v -0.1929 -0.2369 0.1945
v -0.1993 -0.1582 -0.2481
v -0.2001 0.1906 -0.1752
v -0.1718 -0.3074 0.1250
v -0.1718 -0.2874 0.1657
v -0.2005 0.0717 0.2508
v -0.1967 0.2483 0.1710
v -0.1717 0.1616 -0.2881
v -0.1992 -0.1540 0.2502
v -0.1715 -0.0441 0.3294
v -0.1714 0.0613 0.3258
v -0.2025 -0.2436 0.1463
v -0.2003 0.1629 -0.2383
v -0.1716 -0.3289 0.0449
v -0.1715 -0.0775 0.3229
v -0.2018 -0.2718 0.0370
v -0.1714 0.3305 -0.0333
v -0.1714 -0.1439 -0.2995
v -0.1960 0.0190 -0.3026
v -0.2015 0.1015 0.2430
v -0.1717 -0.3196 0.0893
v -0.2002 -0.1592 -0.2063
v -0.2018 -0.2113 0.1860
v -0.2018 -0.2637 -0.0362
v -0.1713 0.0630 -0.3260
v -0.2003 0.0935 -0.2423
v -0.2015 0.1593 -0.2095
v -0.1714 0.3243 0.0722
v -0.2016 -0.0511 0.2790
v -0.2004 -0.2132 0.2037
v -0.2016 0.2225 -0.1409
v -0.1972 0.2888 0.0817
v -0.1974 -0.0352 0.2490
v -0.2013 -0.0914 -0.2694
v -0.2005 0.2604 0.0037
v -0.2003 -0.2352 0.1662
v -0.2016 0.2553 -0.0687
v -0.2002 0.1831 0.2226
v -0.1929 0.0859 0.2949
v -0.1864 0.0189 -0.2449
v -0.1980 0.1461 0.2599
v -0.1864 0.2456 0.0035
v -0.1714 0.1145 -0.3120
f 15 144 256
f 12 107 81
f 196 185 240
f 212 31 114
f 195 124 203
f 103 169 274
f 98 176 134
f 12 39 107
f 269 179 177
f 73 130 200
f 276 227 151
f 269 65 179
f 242 224 131
f 93 41 244
f 18 203 102
f 63 62 310
f 274 169 162
f 30 158 6
f 42 22 206
f 43 137 88
f 172 178 190
f 180 176 98
f 182 93 199
f 199 93 61
f 125 247 183
f 125 183 224
f 247 125 242
f 54 157 98
f 294 89 210
f 270 30 241
f 55 172 94
f 118 216 264
f 80 12 81
f 75 16 221
f 209 165 185
f 271 243 179
f 120 124 195
f 209 231 119
f 23 91 90
f 229 6 185
f 53 289 113
f 136 43 121
f 251 34 276
f 12 60 39
f 198 157 54
f 165 209 119
f 145 234 52
f 98 3 10
f 181 165 153
f 185 165 240
f 200 237 227
f 227 237 173
f 174 179 65
f 11 173 184
f 108 58 163
f 120 211 124
f 220 255 104
f 133 121 167
f 232 230 103
f 48 232 172
f 45 234 264
f 114 255 220
f 227 219 200
f 239 32 121
f 32 136 121
f 90 91 160
f 160 91 150
f 34 198 276
f 204 179 243
f 152 220 93
f 220 104 93
f 250 171 196
f 4 235 5
f 138 43 88
f 247 19 9
f 156 272 225
f 179 204 177
f 34 271 154
f 173 147 227
f 40 97 41
f 13 121 233
f 209 57 231
f 123 155 96
f 28 252 216
f 263 124 221
f 105 94 172
f 227 147 151
f 46 58 160
f 262 245 189
f 245 110 189
f 203 16 75
f 61 182 199
f 238 189 17
f 252 95 163
f 172 232 105
f 119 135 8
f 23 21 91
f 46 160 52
f 52 160 7
f 87 254 216
f 77 269 184
f 11 271 34
f 146 148 238
f 217 242 109
f 58 208 160
f 122 121 252
f 13 233 167
f 167 233 133
f 130 184 173
f 200 173 237
f 229 185 196
f 4 5 89
f 120 113 211
f 152 93 182
f 148 213 155
f 216 207 45
f 6 158 209
f 13 239 121
f 159 24 42
f 11 129 271
f 205 235 156
f 99 146 217
f 17 242 217
f 230 152 103
f 103 152 169
f 233 121 133
f 59 147 11
f 47 278 245
f 253 234 145
f 160 150 7
f 111 156 235
f 6 209 185
f 215 33 236
f 58 273 208
f 124 211 236
f 110 64 247
f 196 165 181
f 211 215 236
f 257 111 235
f 115 212 48
f 151 147 34
f 238 148 246
f 93 144 61
f 160 23 90
f 254 252 28
f 221 124 236
f 27 146 99
f 212 132 48
f 109 99 217
f 260 222 156
f 222 272 156
f 201 153 100
f 147 173 11
f 11 184 129
f 105 232 38
f 245 246 148
f 7 150 126
f 213 148 146
f 236 24 179
f 174 236 179
f 277 229 228
f 231 66 119
f 122 252 254
f 241 6 229
f 59 11 34
f 156 197 267
f 148 47 245
f 188 168 164
f 214 49 227
f 205 156 29
f 203 124 263
f 156 267 39
f 254 28 216
f 16 263 221
f 197 156 225
f 156 39 60
f 46 52 234
f 245 262 238
f 189 242 17
f 242 189 247
f 16 203 263
f 5 235 205
f 15 256 14
f 181 153 201
f 32 239 13
f 136 32 43
f 121 122 167
f 167 122 254
f 158 57 209
f 159 179 24
f 189 110 247
f 172 4 48
f 95 108 163
f 123 7 155
f 7 126 155
f 119 8 165
f 165 8 153
f 108 273 58
f 100 13 167
f 121 43 252
f 274 162 51
f 112 32 13
f 53 113 120
f 192 145 74
f 10 3 42
f 178 55 111
f 151 251 276
f 278 64 110
f 113 134 202
f 98 10 180
f 63 109 242
f 241 30 6
f 148 278 47
f 215 206 33
f 33 206 22
f 198 34 154
f 211 113 215
f 153 26 100
f 131 56 49
f 98 154 3
f 154 42 3
f 154 268 42
f 268 159 42
f 87 161 167
f 147 59 34
f 146 238 217
f 70 221 65
f 279 231 57
f 89 5 205
f 42 24 22
f 155 27 69
f 149 289 120
f 107 140 195
f 101 154 157
f 145 52 123
f 167 254 87
f 132 212 142
f 212 175 142
f 212 114 175
f 184 106 44
f 93 244 266
f 197 164 267
f 51 144 68
f 184 130 106
f 264 234 192
f 115 281 31
f 81 107 82
f 131 49 214
f 114 220 142
f 82 102 75
f 102 203 75
f 190 178 257
f 271 159 127
f 261 270 241
f 140 128 195
f 63 242 131
f 63 131 248
f 152 182 169
f 100 26 13
f 245 278 110
f 172 257 4
f 210 12 294
f 113 289 98
f 113 98 134
f 137 84 273
f 283 43 92
f 43 138 92
f 158 30 57
f 201 100 76
f 198 101 157
f 145 123 74
f 10 42 180
f 131 214 248
f 248 214 249
f 271 204 243
f 226 109 288
f 272 143 225
f 108 88 137
f 234 45 46
f 113 202 215
f 215 202 206
f 76 83 282
f 56 224 183
f 39 267 107
f 74 123 96
f 152 142 220
f 271 179 159
f 198 154 101
f 129 184 271
f 272 223 143
f 112 2 32
f 48 4 141
f 160 208 23
f 285 269 78
f 247 9 183
f 238 262 189
f 216 163 207
f 232 103 38
f 221 174 65
f 174 221 236
f 183 166 219
f 207 46 45
f 49 56 227
f 66 135 119
f 61 144 51
f 236 33 24
f 115 89 294
f 131 224 56
f 4 257 235
f 163 46 207
f 48 132 142
f 128 164 120
f 41 97 287
f 149 120 164
f 157 154 98
f 46 163 58
f 196 240 165
f 180 42 176
f 42 206 176
f 87 216 86
f 86 216 118
f 120 289 53
f 286 161 87
f 48 142 230
f 228 229 186
f 186 229 171
f 250 196 259
f 92 88 95
f 281 115 294
f 135 66 112
f 252 163 216
f 171 229 196
f 251 151 34
f 230 142 152
f 33 22 24
f 106 77 44
f 8 218 26
f 83 286 282
f 40 41 93
f 41 287 244
f 208 21 23
f 252 92 95
f 8 26 153
f 109 27 99
f 169 61 51
f 183 219 56
f 56 219 227
f 252 43 283
f 225 143 223
f 290 62 276
f 141 4 115
f 115 4 89
f 168 149 164
f 242 125 224
f 286 167 161
f 261 229 277
f 107 18 82
f 164 140 267
f 219 9 73
f 219 73 200
f 169 182 61
f 155 213 27
f 213 146 27
f 196 181 259
f 281 294 31
f 18 107 203
f 168 289 149
f 187 201 76
f 9 166 183
f 187 139 282
f 64 19 247
f 48 230 232
f 176 206 134
f 184 204 271
f 265 164 128
f 137 273 108
f 91 278 148
f 105 38 103
f 200 130 173
f 264 216 45
f 184 269 204
f 188 197 225
f 197 188 164
f 93 104 40
f 150 91 148
f 225 223 188
f 75 221 70
f 135 112 8
f 257 178 111
f 177 204 269
f 184 44 77
f 31 212 115
f 264 192 20
f 144 93 266
f 144 266 256
f 63 248 85
f 166 9 219
f 261 241 229
f 91 21 278
f 97 339 287
f 170 181 187
f 273 21 208
f 271 127 154
f 154 127 159
f 238 17 217
f 48 141 115
f 268 154 159
f 104 97 40
f 164 265 140
f 140 265 128
f 284 286 87
f 259 181 170
f 168 223 289
f 267 140 107
f 8 112 218
f 218 112 26
f 249 214 62
f 52 7 123
f 128 120 195
f 142 175 114
f 85 62 63
f 294 12 80
f 104 255 97
f 162 169 51
f 134 206 202
f 126 150 155
f 150 148 155
f 118 264 20
f 82 18 102
f 29 60 12
f 252 283 92
f 156 111 260
f 111 222 260
f 288 109 63
f 85 248 249
f 85 249 62
f 144 15 68
f 29 156 60
f 181 201 187
f 107 195 203
f 30 72 279
f 279 72 231
f 343 35 273
f 30 279 57
f 172 55 178
f 62 214 227
f 172 190 257
f 89 205 29
f 12 210 29
f 88 108 95
f 117 198 54
f 55 94 105
f 83 100 167
f 83 167 286
f 30 270 293
f 192 234 253
f 192 253 145
f 92 138 88
f 71 155 69
f 100 83 76
f 139 76 282
f 62 227 276
f 96 155 71
f 117 276 198
f 186 171 258
f 89 29 210
f 27 226 69
f 226 27 109
f 55 222 111
f 72 66 231
f 69 226 317
f 112 66 2
f 223 168 188
f 139 187 76
f 74 96 71
f 170 187 282
f 274 105 103
f 274 51 50
f 50 51 341
f 290 276 296
f 82 75 344
f 118 20 320
f 299 300 43
f 337 302 30
f 98 289 194
f 305 306 272
f 70 65 340
f 332 307 137
f 308 297 55
f 301 191 64
f 62 290 310
f 302 193 30
f 222 55 311
f 310 290 296
f 294 323 31
f 323 291 31
f 313 298 74
f 97 255 348
f 193 314 30
f 30 314 72
f 51 68 341
f 25 274 50
f 282 286 292
f 65 269 285
f 315 87 320
f 250 259 258
f 288 63 317
f 303 98 194
f 105 274 25
f 71 69 316
f 293 321 30
f 105 25 55
f 25 308 55
f 84 343 273
f 363 299 43
f 192 74 327
f 304 282 292
f 87 118 320
f 295 313 74
f 74 71 295
f 78 77 329
f 330 331 19
f 318 323 294
f 67 66 314
f 68 15 341
f 311 36 222
f 43 332 137
f 333 334 9
f 67 322 2
f 336 337 30
f 340 37 70
f 21 324 278
f 324 79 278
f 300 332 43
f 15 14 341
f 328 342 289
f 9 19 331
f 191 330 19
f 64 278 79
f 79 301 64
f 54 98 303
f 331 333 9
f 316 69 317
f 116 305 272
f 335 309 117
f 329 77 312
f 20 192 320
f 320 192 327
f 276 117 296
f 296 117 309
f 346 347 223
f 223 347 289
f 297 311 55
f 349 350 130
f 130 350 106
f 342 351 289
f 9 352 73
f 19 64 191
f 353 346 223
f 259 170 1
f 316 295 71
f 284 87 292
f 280 292 87
f 272 222 36
f 36 116 272
f 285 340 65
f 32 2 355
f 353 272 306
f 272 353 223
f 357 80 325
f 294 80 357
f 275 348 255
f 1 170 304
f 170 282 304
f 86 118 87
f 317 63 310
f 350 345 106
f 114 31 291
f 291 358 114
f 321 359 30
f 303 335 54
f 35 360 273
f 273 360 21
f 348 361 97
f 354 82 344
f 356 352 9
f 319 21 326
f 322 362 2
f 117 54 335
f 280 87 315
f 1 258 259
f 324 21 319
f 75 70 37
f 327 74 298
f 288 317 226
f 43 32 363
f 72 314 66
f 66 67 2
f 361 339 97
f 364 349 130
f 80 81 325
f 347 328 289
f 352 365 73
f 171 250 258
f 355 363 32
f 37 344 75
f 338 194 289
f 362 355 2
f 318 294 357
f 77 78 269
f 359 366 30
f 351 338 289
f 360 326 21
f 366 336 30
f 255 114 367
f 367 275 255
f 307 343 137
f 137 343 84
f 112 13 26
f 286 284 292
f 358 367 114
f 365 364 73
f 73 364 130
f 106 312 77
f 312 106 345
f 81 82 325
f 325 82 354
f 334 356 9
f 245 238 246
f 373 374 375
f 606 416 398
f 642 391 392
f 417 378 379
f 407 411 384
f 398 416 414
f 379 378 389
f 407 381 411
f 644 393 416
f 381 368 406
f 376 384 404
f 442 485 465
f 484 442 468
f 511 445 480
f 487 460 438
f 466 449 552
f 483 438 460
f 472 517 441
f 459 481 447
f 489 460 487
f 488 446 466
f 542 490 454
f 553 508 568
f 485 517 465
f 521 459 447
f 445 484 467
f 471 521 525
f 484 511 442
f 512 432 526
f 427 477 493
f 553 434 508
f 434 449 508
f 579 527 512
f 503 530 521
f 432 433 526
f 469 467 473
f 430 488 466
f 489 445 469
f 526 463 464
f 372 381 407
f 540 520 496
f 531 471 426
f 439 486 479
f 494 522 463
f 433 432 541
f 546 526 464
f 511 484 445
f 478 524 520
f 520 524 530
f 435 447 509
f 498 435 509
f 463 522 443
f 522 453 443
f 439 479 428
f 430 532 454
f 469 519 544
f 561 554 488
f 512 546 502
f 526 541 452
f 539 488 430
f 531 425 471
f 486 547 479
f 546 482 502
f 548 445 501
f 521 530 459
f 471 458 521
f 458 503 521
f 423 541 545
f 428 479 550
f 496 503 458
f 546 464 482
f 477 427 498
f 469 473 519
f 457 482 464
f 432 540 496
f 542 454 460
f 490 430 454
f 552 449 434
f 495 486 439
f 437 580 541
f 541 496 545
f 526 452 533
f 430 490 561
f 463 443 464
f 541 432 496
f 446 508 449
f 449 429 446
f 457 517 482
f 518 465 515
f 465 569 515
f 493 555 427
f 568 508 446
f 512 475 432
f 445 467 469
f 464 443 457
f 498 509 477
f 448 431 556
f 431 514 556
f 546 512 526
f 532 466 460
f 484 468 543
f 510 509 447
f 450 482 517
f 561 488 539
f 540 475 520
f 520 503 496
f 500 515 457
f 498 439 428
f 427 495 498
f 495 439 498
f 541 423 437
f 430 466 532
f 431 448 486
f 523 479 547
f 444 515 500
f 544 519 542
f 447 435 426
f 485 442 511
f 533 453 494
f 543 467 484
f 467 543 473
f 578 440 476
f 644 416 706
f 378 403 389
f 435 506 470
f 450 517 472
f 568 446 516
f 515 569 457
f 529 465 462
f 492 495 555
f 594 571 519
f 523 448 570
f 477 509 510
f 462 476 557
f 570 556 513
f 459 572 481
f 573 577 574
f 526 494 463
f 428 575 498
f 451 482 450
f 485 511 480
f 443 453 586
f 569 465 517
f 554 446 488
f 547 448 523
f 474 473 560
f 460 466 483
f 549 495 431
f 425 531 426
f 469 544 489
f 468 442 529
f 549 431 486
f 490 504 561
f 428 550 575
f 520 530 503
f 473 468 593
f 473 593 424
f 543 468 473
f 591 516 554
f 486 448 547
f 466 429 449
f 465 518 462
f 568 516 576
f 583 576 516
f 570 448 556
f 492 431 495
f 519 473 474
f 525 426 471
f 426 525 447
f 499 579 502
f 602 505 444
f 568 329 553
f 329 568 78
f 518 515 462
f 525 521 447
f 480 445 548
f 527 528 512
f 582 422 517
f 517 485 582
f 575 506 435
f 573 423 496
f 496 458 573
f 432 475 540
f 499 502 482
f 499 482 451
f 561 539 430
f 442 465 529
f 519 490 542
f 559 466 552
f 519 474 560
f 435 470 425
f 498 575 435
f 602 578 476
f 602 476 505
f 497 567 533
f 567 497 589
f 588 557 578
f 495 549 486
f 526 433 541
f 515 476 462
f 453 533 567
f 446 429 466
f 443 500 457
f 457 569 517
f 479 523 558
f 577 471 425
f 497 580 589
f 502 579 512
f 435 425 426
f 544 542 489
f 489 542 460
f 591 554 561
f 545 496 423
f 501 445 489
f 501 489 487
f 476 440 557
f 576 78 568
f 443 586 444
f 443 444 500
f 453 507 314
f 519 504 490
f 575 550 558
f 560 473 424
f 560 424 551
f 560 594 585
f 594 560 551
f 577 573 458
f 577 458 471
f 452 541 533
f 494 526 533
f 557 440 578
f 455 478 520
f 597 436 437
f 468 538 604
f 468 604 592
f 462 557 529
f 453 314 596
f 574 597 423
f 591 583 516
f 523 570 513
f 523 513 587
f 580 437 581
f 437 436 581
f 520 475 491
f 491 455 520
f 422 441 517
f 599 584 504
f 468 592 593
f 571 599 519
f 580 581 589
f 529 538 468
f 582 485 480
f 560 585 519
f 550 479 558
f 494 453 522
f 507 453 567
f 523 587 595
f 523 595 558
f 600 577 425
f 423 573 574
f 331 575 598
f 470 461 601
f 460 454 532
f 437 423 597
f 596 602 453
f 453 602 586
f 600 574 577
f 603 600 425
f 493 477 456
f 477 510 456
f 476 515 505
f 461 575 331
f 575 461 506
f 586 602 444
f 590 603 425
f 510 447 456
f 504 519 599
f 557 605 529
f 514 431 492
f 530 524 572
f 530 572 459
f 598 575 558
f 584 591 504
f 591 561 504
f 456 447 481
f 505 515 444
f 516 446 554
f 585 594 519
f 533 541 497
f 541 580 497
f 451 450 472
f 495 427 555
f 475 512 528
f 528 491 475
f 506 461 470
f 470 601 425
f 601 590 425
f 604 538 529
f 604 529 605
f 605 557 588
f 382 412 401
f 394 383 611
f 384 614 419
f 620 634 649
f 634 621 649
f 669 663 622
f 368 381 372
f 410 371 378
f 640 413 697
f 390 658 642
f 535 671 685
f 382 385 398
f 369 388 401
f 631 636 633
f 378 626 413
f 401 640 535
f 635 374 658
f 635 658 390
f 407 384 615
f 401 388 377
f 401 377 640
f 625 628 651
f 636 710 634
f 566 641 647
f 651 643 646
f 622 623 612
f 623 415 612
f 618 629 665
f 392 630 390
f 675 645 421
f 677 627 663
f 706 416 606
f 641 668 667
f 678 622 663
f 371 410 413
f 380 705 653
f 695 378 417
f 698 664 692
f 625 651 684
f 655 693 714
f 690 534 633
f 663 669 674
f 627 678 663
f 670 617 387
f 692 405 698
f 666 661 681
f 612 682 703
f 712 628 625
f 667 647 641
f 683 651 688
f 421 656 608
f 670 418 534
f 398 402 382
f 402 412 382
f 685 663 674
f 562 680 630
f 688 415 623
f 641 566 562
f 694 677 663
f 565 684 651
f 415 688 651
f 412 409 401
f 660 386 400
f 690 636 620
f 683 565 651
f 535 619 671
f 657 691 386
f 613 692 632
f 618 665 383
f 692 659 405
f 645 675 386
f 640 377 403
f 640 403 371
f 421 645 691
f 566 680 562
f 391 393 644
f 670 387 418
f 691 645 386
f 392 693 655
f 381 704 676
f 641 625 684
f 641 684 668
f 652 380 653
f 671 394 611
f 670 534 672
f 680 566 647
f 694 639 687
f 681 405 666
f 622 612 669
f 662 665 629
f 644 399 408
f 691 654 421
f 418 633 534
f 661 670 673
f 612 415 682
f 669 612 703
f 669 703 674
f 686 661 666
f 613 666 405
f 397 624 621
f 656 629 608
f 654 662 629
f 629 656 654
f 404 417 379
f 647 652 653
f 562 714 641
f 415 651 646
f 408 606 702
f 392 391 644
f 380 420 620
f 611 687 671
f 639 671 687
f 394 618 383
f 390 642 392
f 375 374 635
f 660 692 664
f 705 650 537
f 632 396 614
f 398 414 402
f 661 673 681
f 643 408 646
f 408 702 646
f 699 411 613
f 646 563 415
f 408 643 651
f 712 625 641
f 395 396 400
f 706 606 408
f 630 564 390
f 630 392 536
f 639 663 671
f 610 675 421
f 708 373 635
f 635 373 375
f 406 368 621
f 368 397 621
f 419 695 417
f 380 620 705
f 685 709 696
f 653 680 647
f 703 385 696
f 631 710 636
f 635 620 708
f 563 646 702
f 712 641 714
f 411 700 613
f 713 384 376
f 614 395 419
f 409 369 401
f 685 674 709
f 714 370 711
f 689 648 619
f 704 406 387
f 628 638 408
f 384 411 699
f 682 702 703
f 415 563 682
f 406 621 710
f 413 610 629
f 419 610 695
f 640 648 689
f 395 400 707
f 400 396 660
f 615 384 713
f 617 676 704
f 638 693 679
f 695 626 378
f 686 666 613
f 619 394 671
f 686 670 661
f 405 659 613
f 386 616 707
f 637 420 380
f 704 387 617
f 370 562 630
f 648 697 413
f 406 631 387
f 680 705 537
f 536 655 714
f 634 710 621
f 392 655 536
f 395 614 396
f 682 563 702
f 413 640 371
f 652 701 380
f 621 624 715
f 621 715 649
f 632 692 396
f 632 614 384
f 535 689 619
f 609 648 413
f 648 609 618
f 386 675 616
f 616 419 707
f 613 700 686
f 692 660 396
f 418 631 633
f 387 631 418
f 629 610 421
f 703 398 385
f 685 401 535
f 702 606 607
f 635 650 705
f 703 607 398
f 714 711 536
f 609 413 629
f 609 629 618
f 413 626 610
f 395 707 419
f 693 638 714
f 638 628 714
f 401 685 382
f 626 695 610
f 630 680 564
f 680 537 564
f 644 408 638
f 680 653 705
f 714 628 712
f 696 385 382
f 650 564 537
f 700 617 686
f 629 421 608
f 716 698 405
f 390 564 650
f 638 679 644
f 648 618 394
f 697 648 640
f 670 672 673
f 700 411 381
f 704 381 406
f 536 370 630
f 613 632 699
f 703 702 607
f 384 419 404
f 419 417 404
f 381 676 700
f 370 714 562
f 709 674 696
f 536 711 370
f 628 408 651
f 386 707 400
f 634 620 636
f 676 617 700
f 410 378 413
f 405 681 716
f 656 421 654
f 632 384 699
f 398 607 606
f 650 635 390
f 701 637 380
f 406 710 631
f 613 659 692
f 696 674 703
f 535 640 689
f 639 694 663
f 394 619 648
f 663 685 671
f 690 633 636
f 664 657 660
f 657 386 660
f 705 620 635
f 617 670 686
f 616 675 610
f 399 644 706
f 392 644 693
f 644 679 693
f 399 706 408
f 685 696 382
f 616 610 419
f 483 466 559
f 371 403 378
o hub
usemtl hub
v 0.1340 -0.1892 -0.0054
v 0.1310 -0.1936 0.0016
v 0.1623 -0.1896 -0.0055
v 0.1619 -0.1909 -0.0072
v 0.1637 -0.1858 -0.0031
v 0.1616 -0.1919 -0.0014
v 0.1340 -0.1893 -0.0101
v 0.1313 -0.1862 0.0045
v 0.1101 -0.1789 -0.0110
v 0.1101 -0.1792 0.0006
v 0.1122 -0.1722 -0.0111
v 0.1101 -0.1787 -0.0051
v 0.1038 -0.0399 0.0250
v 0.1014 -0.0316 0.0353
v 0.1038 -0.0332 0.0332
v 0.1038 -0.0273 0.0384
v 0.1032 -0.0136 0.0446
v 0.1038 0.0399 -0.0249
v 0.1014 0.0316 -0.0352
v 0.1038 0.0332 -0.0331
v 0.1038 0.0273 -0.0383
v 0.1032 0.0136 -0.0445
v 0.1038 -0.0434 0.0180
v 0.1038 0.0434 -0.0179
v 0.2007 -0.1906 0.1654
v 0.1953 -0.2260 0.0888
v 0.1953 -0.1509 0.1953
v 0.2007 -0.0348 0.2500
v 0.1953 -0.0289 0.2411
v 0.2007 0.1383 0.2112
v 0.1953 0.1368 0.2006
v 0.2008 0.2430 0.0681
v 0.1953 0.2350 0.0611
v 0.2007 0.2277 -0.1086
v 0.1953 0.2171 -0.1086
v 0.2007 0.1000 -0.2316
v 0.1953 0.0920 -0.2246
v 0.2007 -0.0771 -0.2402
v 0.1953 -0.0786 -0.2297
v 0.2005 -0.2168 -0.1292
v 0.1953 -0.1883 -0.1594
v 0.2009 -0.2490 0.0229
v 0.1953 -0.2397 -0.0507
v -0.2007 -0.2475 0.0150
v -0.1953 -0.2476 0.0150
v -0.1953 -0.2452 0.0371
v -0.2007 -0.2452 0.0371
v -0.2007 -0.2409 0.0589
v -0.1953 -0.2409 0.0589
v -0.2007 -0.2346 0.0803
v -0.1953 -0.2347 0.0803
v -0.2007 -0.2265 0.1010
v -0.1953 -0.2266 0.1010
v -0.2007 -0.2165 0.1209
v -0.1953 -0.2166 0.1209
v -0.2007 -0.2048 0.1398
v -0.1953 -0.2049 0.1398
v -0.2007 -0.1915 0.1576
v -0.1953 -0.1915 0.1576
v -0.2007 -0.1766 0.1741
v -0.1953 -0.1766 0.1742
v -0.2007 -0.1603 0.1893
v -0.1953 -0.1603 0.1893
v -0.2007 -0.1427 0.2029
v -0.1953 -0.1427 0.2029
v -0.2007 -0.1239 0.2149
v -0.1953 -0.1240 0.2149
v -0.2007 -0.1042 0.2251
v -0.1953 -0.1042 0.2251
v -0.2007 -0.0836 0.2335
v -0.1953 -0.0836 0.2336
v -0.2007 -0.0623 0.2401
v -0.1953 -0.0623 0.2401
v -0.2007 -0.0406 0.2447
v -0.1953 -0.0406 0.2447
v -0.1953 -0.0185 0.2474
v -0.2007 -0.0185 0.2473
v -0.2007 0.0038 0.2480
v -0.1953 0.0038 0.2481
v -0.1953 0.0260 0.2467
v -0.2007 0.0260 0.2467
v -0.2007 0.0480 0.2433
v -0.1953 0.0480 0.2434
v -0.2007 0.0696 0.2381
v -0.1953 0.0696 0.2381
v -0.2007 0.0907 0.2309
v -0.1953 0.0907 0.2309
v -0.1953 0.1110 0.2219
v -0.2007 0.1110 0.2218
v -0.2007 0.1304 0.2110
v -0.1953 0.1304 0.2110
v -0.2007 0.1488 0.1984
v -0.1953 0.1488 0.1985
v -0.1953 0.1660 0.1843
v -0.2007 0.1660 0.1843
v -0.1953 0.1818 0.1687
v -0.2007 0.1818 0.1687
v -0.2007 0.1962 0.1517
v -0.1953 0.1962 0.1517
v -0.1953 0.2090 0.1335
v -0.2007 0.2090 0.1335
v -0.2007 0.2201 0.1142
v -0.1953 0.2202 0.1143
v -0.2007 0.2295 0.0940
v -0.1953 0.2295 0.0941
v -0.2007 0.2370 0.0731
v -0.1953 0.2426 0.0516
v -0.1953 0.2462 0.0296
v -0.2007 0.2462 0.0296
v -0.2007 0.2478 0.0074
v -0.1953 0.2479 0.0074
v -0.2007 0.2475 -0.0148
v -0.1953 0.2476 -0.0148
v -0.1953 0.2452 -0.0370
v -0.2007 0.2452 -0.0370
v -0.2007 0.2409 -0.0588
v -0.1953 0.2409 -0.0588
v -0.2007 0.2346 -0.0801
v -0.1953 0.2347 -0.0802
v -0.2007 0.2265 -0.1009
v -0.1953 0.2265 -0.1009
v -0.2007 0.2165 -0.1208
v -0.1953 0.2166 -0.1208
v -0.2007 0.2048 -0.1397
v -0.1953 0.1915 -0.1575
v -0.1953 0.1766 -0.1740
v -0.2007 0.1766 -0.1740
v -0.2007 0.1603 -0.1891
v -0.1953 0.1603 -0.1892
v -0.2007 0.1427 -0.2027
v -0.1953 0.1427 -0.2028
v -0.2007 0.1239 -0.2147
v -0.1953 0.1239 -0.2148
v -0.2007 0.1042 -0.2250
v -0.1953 0.1042 -0.2250
v -0.2007 0.0836 -0.2334
v -0.1953 0.0836 -0.2334
v -0.2007 0.0623 -0.2399
v -0.1953 0.0623 -0.2400
v -0.2007 0.0405 -0.2446
v -0.1953 0.0405 -0.2446
v -0.2007 0.0184 -0.2472
v -0.1953 0.0185 -0.2473
v -0.2007 -0.0038 -0.2479
v -0.1953 -0.0038 -0.2479
v -0.2007 -0.0260 -0.2465
v -0.1953 -0.0260 -0.2466
v -0.2007 -0.0480 -0.2432
v -0.1953 -0.0480 -0.2433
v -0.2007 -0.0696 -0.2379
v -0.1953 -0.0696 -0.2380
v -0.2007 -0.0907 -0.2307
v -0.1953 -0.0907 -0.2308
v -0.1953 -0.1110 -0.2217
v -0.2007 -0.1110 -0.2217
v -0.2007 -0.1304 -0.2108
v -0.1953 -0.1304 -0.2109
v -0.2007 -0.1488 -0.1983
v -0.1953 -0.1488 -0.1983
v -0.2007 -0.1660 -0.1842
v -0.1953 -0.1660 -0.1842
v -0.2007 -0.1818 -0.1685
v -0.1953 -0.1819 -0.1686
v -0.2007 -0.1962 -0.1516
v -0.1953 -0.1963 -0.1516
v -0.2007 -0.2090 -0.1334
v -0.1953 -0.2091 -0.1334
v -0.2007 -0.2201 -0.1141
v -0.1953 -0.2202 -0.1141
v -0.2007 -0.2295 -0.0939
v -0.1953 -0.2295 -0.0939
v -0.2007 -0.2370 -0.0729
v -0.1953 -0.2370 -0.0730
v -0.2007 -0.2426 -0.0514
v -0.1953 -0.2426 -0.0514
v -0.2007 -0.2462 -0.0295
v -0.1953 -0.2463 -0.0295
v -0.2007 -0.2479 -0.0073
v -0.1953 -0.2479 -0.0073
v -0.2007 -0.2430 0.0480
v -0.2002 -0.2357 0.0432
v -0.2007 -0.2028 0.1384
v -0.2002 -0.1977 0.1317
v -0.2007 -0.1333 0.2089
v -0.2002 -0.1317 0.2002
v -0.2007 -0.0401 0.2422
v -0.2002 -0.0415 0.2339
v -0.2007 0.0588 0.2407
v -0.2002 0.0536 0.2336
v -0.2007 0.1473 0.1964
v -0.2002 0.1404 0.1917
v -0.2007 0.2146 0.1239
v -0.2002 0.2058 0.1227
v -0.2007 0.2437 0.0293
v -0.2007 0.2377 -0.0695
v -0.2002 0.2403 -0.0110
v -0.2007 0.2107 -0.1302
v -0.2007 0.1412 -0.2007
v -0.2002 0.1937 -0.1410
v -0.2007 0.0514 -0.2422
v -0.2002 0.0939 -0.2204
v -0.2007 -0.0149 -0.2472
v -0.2007 -0.1099 -0.2194
v -0.2002 -0.0325 -0.2373
v -0.2007 -0.1890 -0.1600
v -0.2002 -0.1496 -0.1871
v -0.2007 -0.2346 -0.0722
v -0.2002 -0.2245 -0.0838
v -0.1952 0.1659 -0.1364
v -0.1952 -0.0416 -0.2107
v -0.1952 -0.2046 -0.0582
v -0.1952 -0.1310 0.1616
v -0.1952 0.0879 0.2035
v -0.1952 0.2038 0.0716
v 0.1963 0.1702 0.1198
v 0.1963 -0.0958 0.1848
v 0.1963 -0.2002 -0.0694
v 0.1963 0.0248 -0.2065
v 0.1963 0.2049 -0.0912
v 0.1153 0.0374 0.0154
v 0.1038 0.0433 0.0180
v 0.1038 0.0422 0.0205
v 0.1153 0.0363 0.0179
v 0.1153 0.0287 0.0285
v 0.1038 0.0332 0.0333
v 0.1038 0.0312 0.0351
v 0.1153 0.0267 0.0304
v 0.1153 0.0002 0.0405
v 0.1038 -0.0000 0.0470
v 0.1038 -0.0028 0.0469
v 0.1153 -0.0026 0.0404
v 0.1153 -0.0153 0.0375
v 0.1038 -0.0180 0.0434
v 0.1038 -0.0205 0.0423
v 0.1153 -0.0178 0.0364
v 0.1153 -0.0404 0.0002
v 0.1038 -0.0469 0.0000
v 0.1038 -0.0469 -0.0027
v 0.1153 -0.0404 -0.0025
v 0.1153 -0.0287 -0.0284
v 0.1038 -0.0332 -0.0331
v 0.1038 -0.0312 -0.0350
v 0.1153 -0.0267 -0.0303
v 0.1153 0.0373 -0.0156
v 0.1038 0.0443 -0.0153
v 0.1153 0.0383 -0.0130
v 0.1153 0.0404 -0.0001
v 0.1038 0.0469 0.0001
v 0.1038 0.0468 0.0028
v 0.1153 0.0403 0.0026
v 0.1674 0.0949 0.1798
v 0.1674 0.2021 -0.0852
v 0.1674 -0.1024 -0.1902
v 0.1674 -0.1557 0.1505
v 0.1862 -0.0616 0.0915
v 0.1876 0.0638 0.0905
v 0.1860 0.0857 -0.0610
v 0.1874 -0.0817 -0.0819
v 0.1858 -0.1649 -0.0101
v 0.0979 -0.0619 0.0133
v 0.0979 -0.0191 -0.0604
v 0.0979 0.0338 0.0442
v -0.1660 -0.1696 -0.1433
v -0.1377 -0.1766 -0.1483
v 0.0606 -0.1401 -0.1521
v 0.1919 -0.0977 0.0398
v 0.1776 -0.1926 0.0954
v 0.1674 -0.0227 0.0733
v 0.1915 -0.0147 0.1927
v 0.1907 0.0296 0.1057
v 0.1776 -0.0208 0.2067
v 0.1933 0.1548 0.0779
v 0.1871 0.1433 0.1460
v 0.1674 0.0698 0.0184
v 0.1776 0.1486 0.1451
v 0.1933 0.1573 -0.0725
v 0.1871 0.2034 -0.0210
v 0.1900 0.1014 -0.0445
v 0.1737 0.1773 0.0064
v 0.1737 0.1718 -0.0004
v 0.1736 0.1841 0.0008
v 0.1737 0.1757 0.0086
v 0.1776 0.2060 -0.0257
v 0.1933 0.0414 -0.1682
v 0.1871 0.1104 -0.1721
v 0.1918 -0.0134 -0.1037
v 0.1674 0.0022 -0.0722
v 0.1776 0.1083 -0.1771
v 0.1933 -0.1057 -0.1372
v 0.1871 -0.0658 -0.1936
v 0.1931 -0.0911 -0.0551
v 0.1776 -0.0709 -0.1951
v 0.1882 -0.1837 -0.0777
v 0.1776 -0.1947 -0.0910
v 0.1674 -0.0777 -0.0203
v 0.1776 -0.2157 0.0025
v 0.1914 -0.1372 0.1310
v 0.1889 -0.1841 0.0619
v 0.1858 -0.2029 0.0041
v 0.1883 -0.1929 -0.0116
v 0.1737 -0.0456 0.1715
v 0.1737 -0.0378 0.1677
v 0.1736 -0.0417 0.1794
v 0.1737 -0.0474 0.1695
v 0.1737 0.1056 0.1426
v 0.1737 0.1075 0.1341
v 0.1736 0.1142 0.1445
v 0.1737 0.1029 0.1428
v 0.1737 0.1155 -0.1346
v 0.1737 0.1067 -0.1345
v 0.1736 0.1184 -0.1429
v 0.1737 0.1164 -0.1319
v 0.1737 -0.0333 -0.1742
v 0.1737 -0.0387 -0.1673
v 0.1736 -0.0403 -0.1796
v 0.1737 -0.0308 -0.1731
v 0.1737 -0.1570 -0.0825
v 0.1737 -0.1550 -0.0740
v 0.1736 -0.1658 -0.0836
v 0.1737 -0.1546 -0.0840
v 0.1737 -0.1625 0.0713
v 0.1737 -0.1546 0.0751
v 0.1736 -0.1688 0.0775
v 0.1737 -0.1621 0.0685
v 0.1911 0.1810 0.0058
v 0.1911 -0.0459 0.1752
v 0.1911 0.1083 0.1451
v 0.1911 0.1173 -0.1378
v 0.1911 -0.0347 -0.1776
v 0.1916 -0.1574 -0.0834
v 0.1910 -0.1702 0.0657
v -0.1326 -0.2072 -0.0848
v 0.1038 0.0250 0.0399
v 0.1014 0.0353 0.0316
v 0.1038 0.0383 0.0274
v 0.1032 0.0445 0.0137
v 0.1038 -0.0250 -0.0398
v 0.1014 -0.0353 -0.0315
v 0.1038 -0.0383 -0.0272
v 0.1032 -0.0446 -0.0135
v 0.1038 0.0179 0.0434
v 0.1038 -0.0179 -0.0433
v 0.0965 0.1237 -0.1311
v 0.0968 0.1167 -0.1381
v 0.0965 0.1090 -0.1435
v 0.1001 0.1073 -0.1462
v 0.0965 -0.0254 -0.1784
v 0.0968 -0.0353 -0.1774
v 0.0965 -0.0443 -0.1747
v 0.1001 -0.0474 -0.1751
v 0.0965 -0.1554 -0.0913
v 0.0968 -0.1607 -0.0830
v 0.0965 -0.1642 -0.0742
v 0.1001 -0.1665 -0.0720
v 0.0965 -0.1683 0.0646
v 0.0968 -0.1651 0.0739
v 0.0965 -0.1605 0.0821
v 0.1001 -0.1602 0.0853
v 0.0965 -0.0545 0.1719
v 0.0968 -0.0452 0.1752
v 0.0965 -0.0359 0.1767
v 0.1001 -0.0332 0.1785
v 0.0965 0.1003 0.1498
v 0.0968 0.1087 0.1446
v 0.0965 0.1157 0.1383
v 0.1001 0.1187 0.1373
v 0.0965 0.1796 0.0150
v 0.0871 0.1827 0.0051
v 0.0968 0.1808 0.0052
v 0.0869 0.1815 0.0151
v 0.0965 0.1802 -0.0042
v 0.0845 0.1852 0.0019
v 0.1001 0.1813 -0.0072
v 0.0869 0.1820 -0.0042
v -0.1460 -0.1483 0.1751
v -0.1660 0.1696 0.1435
v -0.1660 0.1888 -0.1169
v -0.1660 -0.0529 -0.2156
v -0.1643 -0.2169 -0.0693
v -0.1377 -0.2301 -0.0162
v 0.1466 -0.1983 -0.0125
v -0.1377 -0.0556 -0.2238
v 0.0606 -0.0239 -0.2054
v -0.1377 0.1957 -0.1220
v 0.0606 0.1881 -0.0862
v -0.1377 0.1766 0.1485
v 0.0606 0.1401 0.1523
v -0.1643 -0.0348 0.2251
v -0.1377 -0.0866 0.2138
v 0.0408 0.0479 -0.1931
v 0.0729 0.0605 -0.1794
v -0.0278 0.0391 -0.2164
v 0.0065 0.0045 -0.2091
v 0.0408 -0.1989 -0.0037
v 0.0729 -0.1885 -0.0189
v -0.0278 -0.2197 0.0101
v 0.0065 -0.2049 0.0422
v 0.0408 0.0406 0.1948
v 0.0729 0.0234 0.1881
v -0.0278 0.0587 0.2120
v 0.0065 0.0867 0.1904
v -0.1326 -0.1178 -0.1904
v -0.1326 0.1447 -0.1708
v -0.1326 0.2072 0.0849
v 0.0606 -0.0542 0.1998
v -0.1460 -0.2229 0.0545
v 0.0871 0.1100 0.1461
v 0.0869 0.1014 0.1513
v 0.0845 0.1141 0.1460
v 0.0869 0.1169 0.1397
v 0.1503 -0.1994 -0.0058
v 0.1503 -0.1940 -0.0512
v 0.1503 0.0386 0.1958
v 0.1503 -0.0068 0.2007
v 0.1503 0.1771 0.0919
v 0.1503 0.1526 0.1304
v 0.1503 0.0501 -0.1931
v 0.1503 0.0932 -0.1777
v -0.1660 -0.1888 0.1171
v -0.1660 0.0529 0.2158
v -0.1660 0.2215 0.0164
v -0.1660 0.0840 -0.2055
v -0.1377 0.0865 -0.2137
v 0.0606 0.1015 -0.1802
v -0.1377 0.2301 0.0163
v 0.0606 0.2028 0.0408
v -0.1377 0.0556 0.2239
v 0.0606 0.0239 0.2056
v -0.1377 -0.1957 0.1221
v 0.0606 -0.1881 0.0863
v 0.1684 -0.2176 -0.0512
v 0.1503 -0.0501 0.1932
v 0.1684 -0.0016 0.2236
v 0.1503 0.1197 0.1597
v 0.1684 0.1738 0.1407
v 0.1503 0.1290 -0.1522
v 0.1684 0.0984 -0.2006
v 0.1503 -0.1771 -0.0918
v 0.0408 -0.1211 -0.1578
v 0.0729 -0.1027 -0.1591
v -0.0278 -0.1448 -0.1654
v 0.0065 -0.1607 -0.1339
v 0.0408 -0.1270 0.1533
v 0.0729 -0.1324 0.1356
v -0.0278 -0.1291 0.1781
v 0.0065 -0.0948 0.1865
v 0.0408 0.1809 -0.0829
v 0.0729 0.1781 -0.0645
v -0.0278 0.1936 -0.1043
v 0.0065 0.1663 -0.1268
v -0.1326 0.0167 -0.2232
v -0.1326 0.2175 -0.0531
v -0.1326 0.1178 0.1905
v -0.1326 -0.1447 0.1709
v 0.0871 0.1179 -0.1397
v 0.0869 0.1249 -0.1324
v 0.0845 0.1169 -0.1437
v 0.0869 0.1102 -0.1449
v 0.0871 -0.0358 -0.1792
v 0.0869 -0.0257 -0.1802
v 0.0845 -0.0395 -0.1809
v 0.0869 -0.0447 -0.1765
v 0.0871 -0.1625 -0.0837
v 0.0869 -0.1570 -0.0922
v 0.0845 -0.1661 -0.0819
v 0.0869 -0.1659 -0.0751
v 0.0871 -0.1668 0.0749
v 0.0869 -0.1700 0.0653
v 0.0845 -0.1677 0.0788
v 0.0869 -0.1622 0.0829
v 0.0871 -0.0455 0.1771
v 0.0869 -0.0550 0.1737
v 0.0845 -0.0430 0.1803
v 0.0869 -0.0363 0.1785
v 0.1503 -0.1967 0.0398
v 0.1503 -0.1823 0.0813
v 0.1503 -0.0915 0.1786
v 0.1503 0.0825 0.1830
v 0.1503 0.1822 -0.0811
v 0.1503 0.1971 -0.0379
v 0.1503 0.0050 -0.2005
v 0.1503 -0.0386 -0.1957
v 0.1503 -0.1537 -0.1289
v 0.1684 -0.2197 0.0434
v 0.1503 -0.1290 0.1523
v 0.1684 -0.1031 0.1989
v 0.1684 0.0911 0.2046
v 0.1503 0.1994 0.0060
v 0.1684 0.2183 -0.0481
v 0.1684 0.0066 -0.2238
v 0.1503 -0.1197 -0.1595
v 0.1684 -0.1709 -0.1447
v 0.0408 0.1776 0.0897
v 0.0729 0.1616 0.0990
v -0.0278 0.2023 0.0863
v 0.0065 0.2029 0.0510
v 0.1503 -0.1611 0.1198
v 0.1503 0.1944 0.0496
v 0.1503 0.1599 -0.1211
v 0.1503 -0.0809 -0.1836
v 0.1684 -0.1758 0.1382
v 0.1684 0.2168 0.0563
v 0.1684 0.1791 -0.1343
v 0.1684 -0.0956 -0.2020
v 0.0906 0.0280 -0.0338
v 0.0848 -0.0025 -0.0363
v 0.0906 0.0094 -0.0433
v 0.0918 -0.0119 -0.0570
v 0.0906 -0.0392 -0.0197
v 0.0848 -0.0349 0.0106
v 0.0906 -0.0444 0.0006
v 0.0918 -0.0530 0.0244
v 0.0906 -0.0105 0.0427
v 0.0848 0.0180 0.0318
v 0.0906 0.0104 0.0432
v 0.0918 0.0355 0.0463
v 0.0906 -0.0090 -0.0429
v 0.0848 -0.0300 -0.0207
v 0.0906 -0.0281 -0.0343
v 0.0918 -0.0521 -0.0262
v 0.0906 -0.0399 0.0184
v 0.0848 -0.0136 0.0339
v 0.0906 -0.0273 0.0351
v 0.0918 -0.0140 0.0567
v 0.0906 0.0268 0.0349
v 0.0848 0.0360 0.0057
v 0.0906 0.0402 0.0189
v 0.0918 0.0583 0.0011
v 0.0906 0.0439 0.0008
v 0.0848 0.0269 -0.0246
v 0.0906 0.0398 -0.0197
v 0.0918 0.0372 -0.0449
f 717 724 718
f 718 723 717
f 721 719 720
f 722 719 721
f 720 719 722
f 724 717 723
f 728 725 726
f 727 725 728
f 726 727 728
f 739 729 730
f 731 732 730
f 730 732 733
f 740 734 735
f 736 737 735
f 735 737 738
f 731 733 732
f 739 730 729
f 736 738 737
f 740 735 734
f 742 758 741
f 741 743 742
f 744 745 743
f 743 741 744
f 746 747 745
f 745 744 746
f 748 749 747
f 747 746 748
f 750 751 749
f 749 748 750
f 752 753 751
f 751 750 752
f 754 755 753
f 753 752 754
f 756 757 755
f 755 754 756
f 756 759 757
f 759 756 758
f 758 742 759
f 761 762 763
f 764 763 762
f 762 765 764
f 766 764 765
f 765 767 766
f 768 766 767
f 767 769 768
f 770 768 769
f 769 771 770
f 772 770 771
f 771 773 772
f 774 772 773
f 773 775 774
f 776 774 775
f 775 777 776
f 778 776 777
f 777 779 778
f 780 778 779
f 779 781 780
f 782 780 781
f 781 783 782
f 784 782 783
f 783 785 784
f 786 784 785
f 785 787 786
f 788 786 787
f 787 789 788
f 790 788 789
f 789 791 790
f 791 792 793
f 794 793 792
f 795 796 797
f 798 797 796
f 796 799 798
f 800 798 799
f 799 801 800
f 802 800 801
f 803 804 805
f 806 805 804
f 804 807 806
f 808 806 807
f 809 810 811
f 810 812 813
f 814 813 812
f 815 816 817
f 818 817 816
f 816 819 818
f 820 818 819
f 819 821 820
f 822 820 821
f 823 824 825
f 826 825 824
f 824 827 826
f 828 826 827
f 829 830 831
f 832 831 830
f 830 833 832
f 834 832 833
f 833 835 834
f 836 834 835
f 835 837 836
f 838 836 837
f 837 839 838
f 840 838 839
f 841 842 843
f 844 843 842
f 842 845 844
f 846 844 845
f 845 847 846
f 848 846 847
f 847 849 848
f 850 848 849
f 849 851 850
f 852 850 851
f 851 853 852
f 854 852 853
f 853 855 854
f 856 854 855
f 855 857 856
f 858 856 857
f 857 859 858
f 860 858 859
f 859 861 860
f 862 860 861
f 861 863 862
f 864 862 863
f 863 865 864
f 866 864 865
f 865 867 866
f 868 866 867
f 869 870 871
f 872 871 870
f 870 873 872
f 874 872 873
f 873 875 874
f 876 874 875
f 875 877 876
f 878 876 877
f 877 879 878
f 880 878 879
f 879 881 880
f 882 880 881
f 881 883 882
f 884 882 883
f 883 885 884
f 886 884 885
f 885 887 886
f 888 886 887
f 887 889 888
f 890 888 889
f 889 891 890
f 892 890 891
f 891 893 892
f 894 892 893
f 893 895 894
f 760 894 895
f 895 761 760
f 896 898 897
f 899 897 898
f 901 899 898
f 898 900 901
f 900 902 901
f 903 901 902
f 905 903 902
f 902 904 905
f 904 906 905
f 907 905 906
f 909 907 906
f 906 908 909
f 908 910 909
f 912 909 910
f 910 911 912
f 915 912 911
f 911 913 915
f 913 914 915
f 917 915 914
f 914 916 917
f 920 917 916
f 916 918 920
f 918 919 920
f 922 920 919
f 919 921 922
f 924 922 921
f 921 923 924
f 897 924 923
f 923 896 897
f 925 912 915
f 925 915 917
f 917 926 925
f 926 917 920
f 926 920 922
f 922 927 926
f 927 922 924
f 927 924 897
f 897 928 927
f 928 897 899
f 928 899 901
f 928 901 903
f 928 903 905
f 905 929 928
f 929 905 907
f 907 930 929
f 930 907 909
f 930 909 912
f 912 925 930
f 750 748 931
f 748 746 931
f 932 931 746
f 746 744 932
f 744 741 932
f 933 932 741
f 741 758 933
f 758 756 933
f 756 754 934
f 934 933 756
f 754 752 934
f 752 750 935
f 935 934 752
f 931 935 750
f 936 937 938
f 938 939 936
f 940 941 942
f 942 943 940
f 944 945 946
f 946 947 944
f 948 949 950
f 950 951 948
f 952 953 954
f 954 955 952
f 956 957 958
f 958 959 956
f 960 740 961
f 961 962 960
f 963 964 965
f 965 966 963
f 974 969 975
f 971 975 970
f 970 972 971
f 972 970 967
f 967 973 972
f 973 967 968
f 969 974 973
f 973 968 969
f 971 974 975
f 976 974 971
f 974 976 977
f 977 973 974
f 973 977 978
f 978 972 973
f 978 971 972
f 971 978 976
f 979 981 980
f 987 983 1013
f 1013 985 987
f 984 986 982
f 991 987 985
f 985 989 991
f 986 984 990
f 993 989 988
f 999 991 989
f 989 993 999
f 990 994 986
f 998 996 995
f 996 997 995
f 997 998 995
f 1001 993 992
f 1004 999 993
f 993 1001 1004
f 994 990 1003
f 1006 1001 1000
f 1008 1004 1001
f 1001 1006 1008
f 1003 1002 994
f 1009 1006 1005
f 1010 1008 1006
f 1006 1009 1010
f 1002 1003 1011
f 1011 1007 1002
f 1009 1015 1012
f 1012 1010 1009
f 983 1014 1013
f 1014 983 1012
f 1012 1015 1014
f 982 1011 984
f 1011 982 1007
f 1015 1009 1016
f 1007 982 1016
f 1016 982 1014
f 1009 1007 1016
f 1016 1014 1015
f 1020 1018 1017
f 1018 1019 1017
f 1019 1020 1017
f 1024 1022 1021
f 1022 1023 1021
f 1023 1024 1021
f 1028 1026 1025
f 1026 1027 1025
f 1027 1028 1025
f 1032 1030 1029
f 1030 1031 1029
f 1031 1032 1029
f 1036 1034 1033
f 1034 1035 1033
f 1035 1036 1033
f 1040 1038 1037
f 1038 1039 1037
f 1039 1040 1037
f 1041 994 992
f 992 993 1041
f 988 994 1041
f 993 988 1041
f 1042 986 985
f 1013 986 1042
f 985 1013 1042
f 1043 986 988
f 988 989 1043
f 985 986 1043
f 989 985 1043
f 1044 994 1000
f 1000 1001 1044
f 992 994 1044
f 1001 992 1044
f 1045 1002 1005
f 1005 1006 1045
f 1000 1002 1045
f 1006 1000 1045
f 1046 1007 1009
f 1005 1007 1046
f 1009 1005 1046
f 1047 982 1013
f 1013 1014 1047
f 1014 982 1047
f 980 981 1048
f 1048 979 980
f 986 1013 982
f 994 988 986
f 1002 1000 994
f 1007 1005 1002
f 1057 1049 1050
f 941 1051 1050
f 1050 1051 1052
f 1058 1053 1054
f 957 1055 1054
f 1054 1055 1056
f 941 1052 1051
f 1057 1050 1049
f 957 1056 1055
f 1058 1054 1053
f 1060 1059 1061
f 1062 1059 1060
f 1061 1062 1060
f 1064 1063 1065
f 1066 1063 1064
f 1065 1066 1064
f 1068 1067 1069
f 1070 1067 1068
f 1069 1070 1068
f 1072 1071 1073
f 1074 1071 1072
f 1073 1074 1072
f 1076 1075 1077
f 1078 1075 1076
f 1077 1078 1076
f 1080 1079 1081
f 1082 1079 1080
f 1081 1082 1080
f 1085 1083 1087
f 1084 1086 1088
f 1089 1083 1085
f 1090 1086 1084
f 1088 1090 1084
f 1087 1089 1085
f 1105 1104 1091
f 1096 1122 1095
f 1095 1097 1096
f 1094 1099 1098
f 1093 1101 1100
f 1092 1103 1102
f 1121 1104 1105
f 1109 1107 1106
f 1108 1106 1107
f 1108 1109 1106
f 1113 1111 1110
f 1112 1110 1111
f 1112 1113 1110
f 1117 1115 1114
f 1116 1114 1115
f 1116 1117 1114
f 1098 1099 1118
f 1100 1101 1119
f 1102 1103 1120
f 1121 1105 1091
f 1096 1097 1122
f 1120 1092 1102
f 1119 1093 1100
f 1118 1094 1098
f 1123 1124 1125
f 1126 1124 1123
f 1125 1126 1123
f 1138 1140 1139
f 1137 1142 1141
f 1136 1144 1143
f 1135 1146 1145
f 1127 1147 1128
f 1149 1148 1130
f 1129 1149 1130
f 1151 1150 1132
f 1131 1151 1132
f 1153 1152 1134
f 1133 1153 1134
f 1147 1154 1128
f 1158 1156 1155
f 1157 1155 1156
f 1157 1158 1155
f 1162 1160 1159
f 1161 1159 1160
f 1161 1162 1159
f 1166 1164 1163
f 1165 1163 1164
f 1165 1166 1163
f 1139 1140 1167
f 1141 1142 1168
f 1143 1144 1169
f 1145 1146 1170
f 1170 1135 1145
f 1169 1136 1143
f 1168 1137 1141
f 1167 1138 1139
f 1127 1128 1154
f 1129 1130 1148
f 1131 1132 1150
f 1133 1134 1152
f 1171 1172 1173
f 1174 1172 1171
f 1173 1174 1171
f 1175 1176 1177
f 1178 1176 1175
f 1177 1178 1175
f 1179 1180 1181
f 1182 1180 1179
f 1181 1182 1179
f 1183 1184 1185
f 1186 1184 1183
f 1185 1186 1183
f 1187 1188 1189
f 1190 1188 1187
f 1189 1190 1187
f 1127 1192 1191
f 1201 1148 1193
f 1129 1150 1194
f 1133 1198 1197
f 1207 1154 1199
f 1191 1200 1127
f 1191 1192 1200
f 1193 1202 1201
f 1193 1148 1202
f 1194 1203 1129
f 1194 1150 1203
f 1205 1204 1196
f 1195 1205 1196
f 1197 1206 1133
f 1197 1198 1206
f 1199 1208 1207
f 1199 1154 1208
f 1212 1210 1209
f 1211 1209 1210
f 1211 1212 1209
f 1195 1196 1204
f 1131 1204 1214
f 1195 1152 1215
f 1217 1192 1213
f 1201 1217 1213
f 1214 1218 1131
f 1214 1204 1218
f 1215 1219 1195
f 1215 1152 1219
f 1220 1198 1216
f 1207 1220 1216
f 1221 1222 1223
f 1224 1221 1223
f 1223 1222 1224
f 1225 1226 1227
f 1228 1225 1227
f 1227 1226 1228
f 1229 1230 1231
f 1232 1229 1231
f 1231 1230 1232
f 1201 1213 1192
f 1207 1216 1198
f 1233 1234 1235
f 1236 1233 1235
f 1235 1234 1236
f 1237 1238 1239
f 1240 1237 1239
f 1239 1238 1240
f 1241 1242 1243
f 1244 1241 1243
f 1243 1242 1244
f 1245 1246 1247
f 1248 1245 1247
f 1247 1246 1248
