# Stint car part
o rubber
usemtl rubber
v 0.1395 0.3150 0.1024
v 0.1396 0.2981 0.1443
v -0.0855 -0.2286 0.2702
v 0.0918 0.3524 -0.0223
v 0.0646 -0.2153 -0.2833
v -0.0042 -0.3583 -0.0020
v -0.0110 -0.2802 -0.2228
v -0.0641 0.2922 -0.2022
v -0.1300 -0.1668 -0.2947
v 0.1047 0.3445 0.0215
v 0.1248 0.2424 -0.2430
v 0.0840 -0.3363 -0.1070
v -0.0486 0.2919 -0.2075
v 0.0891 -0.3518 -0.0361
v -0.0373 0.1865 -0.3048
v -0.0675 -0.1476 0.3238
v 0.0524 -0.3049 -0.1854
v 0.0967 0.0476 0.3481
v -0.1154 -0.2097 -0.2737
v -0.1295 0.2729 -0.2031
v -0.1376 0.0695 -0.3253
v -0.1414 0.1259 0.2999
v -0.1230 0.3407 -0.0382
v 0.1171 0.1108 -0.3291
v -0.0820 -0.0629 0.3468
v 0.1214 -0.3407 -0.0561
v -0.1233 0.2260 0.2572
v 0.0692 0.1189 0.3347
v 0.1290 0.1074 0.3270
v 0.1338 0.3155 0.1244
v -0.0332 -0.3020 0.1910
v 0.0173 0.1681 -0.3156
v 0.0024 -0.3510 -0.0725
v -0.1168 0.2337 0.2590
v -0.0296 0.2391 0.2653
v 0.1314 -0.0011 0.3400
v -0.1322 0.0333 -0.3353
v -0.1346 -0.0144 -0.3365
v 0.1324 0.3185 -0.1123
v 0.0134 0.3220 0.1558
v 0.1206 0.2100 -0.2758
v -0.0968 0.1462 0.3180
v -0.0956 0.2296 -0.2668
v -0.1256 0.0270 0.3405
v 0.0697 0.3177 0.1602
v -0.1239 -0.2566 0.2262
v 0.0750 0.2897 -0.2058
v -0.0368 -0.2952 -0.2009
v 0.0477 0.3565 -0.0233
v -0.1333 -0.2692 -0.2056
v 0.1399 -0.2150 0.2514
v -0.1417 0.2345 0.2263
v -0.1376 0.1203 -0.3099
v 0.1299 0.0921 0.3291
v -0.0108 0.3224 0.1550
v 0.1012 -0.3333 -0.1039
v -0.0466 0.3210 0.1557
v -0.0359 -0.1840 -0.3062
v -0.1070 -0.1783 0.3012
v -0.0531 0.3533 0.0440
v 0.0656 -0.2821 -0.2169
v 0.0283 0.3154 -0.1692
v -0.0071 0.3394 0.1152
v 0.1288 0.2993 -0.1634
v -0.0960 -0.3458 -0.0635
v 0.1289 -0.1721 0.2943
v 0.1359 -0.1807 0.2823
v 0.1176 -0.2350 0.2544
v 0.1266 -0.0896 0.3299
v -0.1259 -0.1538 -0.3057
v 0.1277 -0.2586 0.2233
v 0.1270 -0.3050 -0.1564
v 0.1232 -0.1245 0.3206
v 0.1255 0.3425 -0.0164
v 0.1202 -0.2974 0.1781
v -0.1416 0.2977 -0.1331
v -0.1329 0.2934 -0.1669
v 0.1225 0.2254 0.2614
v 0.1398 -0.2475 0.2197
v -0.1153 -0.0884 -0.3348
v 0.1325 0.2661 0.2081
v -0.1200 0.0244 -0.3439
v 0.1397 0.3139 -0.1022
v 0.1298 0.3362 -0.0511
v 0.1396 0.2671 0.1936
v 0.1301 0.2806 -0.1920
v -0.0333 0.1410 0.3282
v -0.0614 0.1853 0.3043
v -0.0774 0.3289 0.1299
v 0.1049 0.3317 0.1074
v -0.0786 0.2697 -0.2287
v 0.0951 -0.1109 0.3350
v -0.0975 -0.3044 0.1748
v -0.0298 -0.3546 -0.0419
v -0.0910 -0.3115 -0.1637
v -0.1125 0.1925 -0.2889
v -0.0719 0.2199 -0.2805
v 0.0286 0.3523 0.0651
v -0.1154 0.1328 -0.3179
v 0.0755 0.0960 0.3406
v 0.1300 -0.1613 -0.2988
v -0.0945 -0.3269 0.1317
v -0.0359 0.3554 -0.0396
v 0.0107 0.3577 -0.0278
v -0.1327 0.0584 0.3337
v -0.1415 0.3204 -0.0565
v -0.1378 -0.0932 -0.3201
v -0.0542 0.0296 0.3551
v -0.0964 -0.3516 0.0099
v 0.0294 -0.0510 0.3538
v 0.0884 0.2883 0.2015
v 0.0604 0.3397 0.1079
v -0.0852 -0.2759 -0.2206
v 0.0141 -0.0530 -0.3539
v 0.0691 -0.3457 0.0839
v -0.0978 -0.1154 0.3317
v 0.0598 -0.3533 0.0444
v 0.0556 -0.0422 0.3540
v 0.1278 -0.0710 -0.3340
v -0.0459 -0.3448 -0.0913
v 0.1228 0.0152 -0.3462
v -0.0706 0.2064 0.2885
v 0.0892 0.3243 0.1367
v -0.1242 0.3439 0.0040
v 0.0376 -0.1684 0.3153
v 0.1290 0.0324 -0.3394
v 0.0900 0.3105 -0.1657
v -0.0403 -0.3410 0.1061
v -0.1284 -0.2114 0.2678
v 0.0033 0.3568 0.0218
v 0.1184 -0.1330 -0.3208
v -0.0256 -0.3235 0.1526
v -0.0921 -0.2600 0.2368
v 0.0397 0.0449 -0.3550
v 0.1143 -0.1522 0.3100
v 0.0908 0.2071 0.2841
v 0.0824 -0.2076 -0.2855
v 0.0655 -0.3224 0.1517
v -0.1197 -0.1243 -0.3221
v 0.0122 -0.1327 0.3325
v 0.1236 0.3378 0.0605
v -0.0686 -0.3555 0.0248
v 0.1012 -0.0175 0.3498
v 0.0589 0.1434 -0.3259
v -0.0187 0.2244 -0.2786
v 0.1025 0.3372 -0.0971
v -0.0542 -0.2464 -0.2591
v 0.0881 -0.1702 -0.3110
v -0.0547 -0.0886 0.3465
v -0.1314 -0.1433 0.3059
v 0.0740 0.0868 -0.3442
v -0.0136 0.1674 0.3165
v 0.0200 0.0665 0.3521
v -0.1078 -0.3357 -0.0870
v 0.0740 -0.0465 -0.3530
v -0.0700 -0.0455 -0.3522
v 0.0369 -0.2302 0.2755
v 0.0146 -0.2698 0.2370
v -0.0455 -0.1189 -0.3370
v -0.0141 0.3344 -0.1282
v 0.0614 -0.3367 -0.1160
v 0.0594 0.0363 0.3549
v 0.0688 -0.3551 -0.0056
v -0.0092 -0.3558 0.0449
v 0.0175 -0.3407 0.1099
v -0.0689 -0.2097 -0.2885
v -0.0490 0.3480 -0.0777
v -0.0506 -0.2713 0.2320
v 0.1143 -0.2828 0.1982
v 0.0285 -0.1075 0.3420
v 0.0089 0.0023 0.3586
v -0.1265 0.3223 -0.1125
v 0.0735 0.1383 0.3291
v 0.0244 -0.3570 -0.0229
v -0.0380 -0.1497 -0.3249
v -0.0979 0.3403 0.0868
v 0.0763 0.2018 -0.2915
v 0.1094 -0.2974 0.1791
v 0.1400 0.2118 -0.2536
v -0.1346 -0.1027 0.3203
v -0.1416 -0.1084 0.3078
v -0.0624 0.3542 0.0213
v -0.0124 0.3498 -0.0755
v 0.0152 -0.1208 -0.3368
v 0.1276 -0.3253 0.1064
v -0.0768 0.3180 -0.1573
v 0.0339 0.2066 0.2919
v -0.1204 -0.0913 0.3301
v 0.1218 -0.3437 0.0340
v -0.0364 0.3484 0.0842
v -0.0877 0.0205 0.3518
v -0.1310 0.2356 -0.2431
v 0.0551 0.3225 -0.1525
v -0.1257 -0.0604 0.3358
v 0.0760 0.3501 0.0561
v 0.1295 0.1354 -0.3117
v 0.0929 0.2568 0.2430
v -0.0915 -0.3379 -0.0964
v 0.0563 -0.3460 -0.0848
v 0.0025 0.0716 -0.3510
v -0.0643 0.3040 0.1870
v 0.0854 -0.1853 0.3010
v -0.0266 0.0913 0.3462
v 0.0386 -0.2745 0.2292
v -0.0964 -0.0274 0.3498
v 0.0230 0.3494 -0.0756
v -0.0829 0.3359 -0.1095
v 0.0265 0.2921 0.2063
v -0.1319 -0.3197 -0.1159
v -0.0595 0.1438 -0.3270
v 0.0031 0.2623 -0.2442
v -0.1287 0.0614 -0.3365
v -0.0106 0.2259 0.2778
v 0.0558 -0.0977 -0.3430
v 0.0438 0.2599 -0.2450
v 0.1092 -0.2778 -0.2081
v -0.1327 -0.3388 -0.0087
v -0.0873 0.1038 0.3379
v -0.0683 0.0153 -0.3553
v -0.1376 0.2053 0.2612
v -0.1416 0.1897 0.2651
v 0.1399 0.1755 -0.2803
v -0.1377 0.3271 -0.0699
v -0.0823 -0.0593 -0.3492
v -0.0520 -0.0278 0.3572
v 0.0521 -0.3302 -0.1361
v -0.0260 0.1540 -0.3228
v -0.0404 -0.2426 0.2617
v -0.0901 0.1327 -0.3279
v 0.0979 -0.3080 -0.1662
v -0.0234 0.0373 -0.3556
v -0.1326 0.2899 0.1774
v 0.0946 0.2964 0.1899
v 0.0688 0.3537 0.0219
v 0.0492 0.3012 0.1905
v -0.0009 -0.3147 -0.1704
v 0.1185 -0.2621 -0.2270
v 0.1260 0.3187 -0.1258
v 0.0302 0.1242 -0.3357
v 0.0131 0.2417 -0.2647
v 0.1008 -0.3247 -0.1309
v -0.0367 -0.2041 0.2929
v 0.0656 0.2807 0.2180
v -0.0476 -0.3120 -0.1732
v 0.0138 -0.0731 -0.3512
v -0.0284 -0.1703 0.3143
v 0.0074 -0.2134 0.2876
v -0.0431 0.2843 0.2168
v 0.1145 0.2805 -0.2015
v -0.0663 0.1134 -0.3368
v 0.0002 0.2624 0.2439
v 0.0729 -0.3120 0.1734
v 0.0398 -0.1932 -0.3013
v -0.0892 0.2767 0.2180
v 0.0494 0.1231 -0.3344
v 0.0358 -0.2343 -0.2695
v -0.1041 0.3119 -0.1565
v -0.1377 -0.3333 0.0062
v 0.1394 -0.2131 -0.2539
v 0.1394 -0.2244 -0.2439
v -0.1300 0.1780 0.2908
v -0.1246 0.2569 0.2287
v 0.0675 0.1884 -0.3025
v 0.1309 0.3372 0.0212
v -0.0920 0.3512 -0.0348
v -0.1070 0.2909 -0.1904
v -0.0724 -0.3509 -0.0507
v -0.0060 -0.0106 -0.3579
v 0.0625 0.2215 -0.2779
v 0.0400 0.3447 -0.0943
v 0.0829 0.2608 -0.2386
v 0.1002 -0.1200 -0.3287
v -0.0692 0.0644 -0.3492
v -0.0786 -0.3305 -0.1280
v 0.0703 -0.0128 -0.3555
v 0.0511 -0.2565 -0.2480
v 0.0914 0.2348 0.2623
v -0.0110 -0.3369 -0.1217
v -0.1201 0.3412 0.0202
v -0.1204 0.2621 0.2205
v -0.1414 0.3110 0.0994
v 0.0905 -0.2649 0.2317
v 0.0577 0.1840 0.3054
v 0.1013 0.3484 0.0218
v -0.1336 -0.0269 0.3365
v -0.1264 -0.2397 -0.2441
v -0.1301 -0.2625 -0.2138
v -0.1287 0.3354 0.0643
v -0.1373 -0.1841 -0.2782
v -0.1415 -0.3098 -0.1031
v -0.0558 0.3549 0.0214
v 0.1215 -0.2308 -0.2570
v -0.1284 0.1079 0.3221
v 0.1394 -0.3241 -0.0695
v 0.1394 -0.3298 -0.0322
v 0.1396 -0.3172 0.0952
v 0.1397 -0.3038 0.1305
v -0.1207 -0.3400 0.0597
v -0.1297 -0.3144 0.1312
v -0.1415 -0.2737 -0.1748
v 0.1396 0.3278 -0.0471
v 0.1395 -0.3013 -0.1373
v -0.1380 -0.1901 0.2731
v 0.1397 -0.0823 0.3206
v -0.1419 0.2303 -0.2307
v -0.1366 -0.3082 -0.1293
v -0.1416 -0.1137 -0.3059
v 0.1397 -0.2667 0.1960
v -0.1358 0.3261 0.0751
v -0.1373 0.3043 0.1362
v -0.1412 -0.0123 -0.3262
v -0.1414 0.2756 0.1738
v -0.1417 -0.2465 0.2125
v -0.1415 -0.1677 -0.2797
v 0.1398 -0.1250 0.3060
v 0.1399 -0.1755 0.2803
v -0.1419 -0.3002 0.1240
v 0.1395 -0.2504 -0.2164
v 0.1398 0.1003 -0.3154
v 0.1397 0.0786 -0.3215
v 0.1395 0.2185 0.2488
v 0.1395 0.1885 0.2723
v 0.1395 -0.2738 -0.1866
v 0.1395 -0.2820 -0.1739
v -0.1374 -0.2767 0.1873
v 0.1394 -0.1855 -0.2744
v -0.1417 -0.2268 -0.2344
v -0.1376 0.0979 0.3186
v -0.1418 -0.1753 0.2750
v -0.1418 0.2681 -0.1850
v 0.1394 -0.3314 -0.0019
v -0.1419 0.1917 -0.2626
v -0.1395 0.3277 0.0306
v -0.1414 0.0834 -0.3135
v -0.1355 0.1935 -0.2768
v 0.1394 -0.3185 -0.0914
v -0.1380 -0.3184 0.0952
v -0.1416 -0.3224 -0.0080
v -0.1415 0.0326 0.3239
v 0.1395 -0.0268 -0.3302
v 0.1398 -0.2796 0.1773
v 0.1398 -0.2873 0.1643
v -0.1350 0.3339 0.0198
v -0.1416 -0.0651 0.3194
v 0.1395 0.0525 0.3254
v 0.1395 0.3284 0.0435
v 0.1396 0.0339 -0.3295
v 0.1395 0.0111 -0.3312
v 0.1399 0.1146 -0.3105
v 0.1396 -0.0378 0.3289
v 0.1396 0.0564 -0.3263
v 0.1396 0.1391 0.3005
v 0.1395 -0.2896 -0.1609
v 0.1396 -0.1291 -0.3050
v 0.1399 0.1389 -0.3001
v 0.1395 0.3312 -0.0095
v 0.1396 0.3304 -0.0246
v 0.1394 -0.3301 0.0283
v 0.1395 -0.3252 0.0621
v 0.1395 0.3313 0.0056
v 0.1399 0.2681 -0.1925
v 0.1396 -0.0863 -0.3194
v 0.1613 0.1847 -0.1818
v 0.1621 0.0313 -0.2884
v -0.1497 -0.0823 0.2287
v 0.1552 0.2446 -0.0533
v 0.1399 -0.1940 0.2673
v -0.1572 -0.1800 -0.1732
v 0.1605 0.0162 -0.2510
v 0.1554 -0.0153 0.2466
v -0.1497 -0.1157 -0.2154
v -0.1497 0.2444 -0.0246
v 0.1510 0.2162 -0.1144
v -0.1587 0.0669 -0.2943
v 0.1551 -0.2048 0.1387
v -0.1528 0.2365 0.0675
v 0.1395 0.1527 0.2939
v -0.1578 0.2006 0.1511
v 0.1617 0.0327 0.2903
v 0.1464 -0.2681 0.1780
v 0.1557 -0.1908 -0.1582
v -0.1592 0.1425 0.2088
v -0.1606 0.2173 0.1347
v -0.1497 -0.2064 0.1321
v 0.1571 0.2615 0.1576
v 0.1553 -0.1290 -0.2119
v 0.1510 -0.0452 -0.2409
v 0.1510 -0.2363 0.0653
v 0.1554 -0.2395 -0.0608
v -0.1497 0.1842 0.1620
v 0.1510 0.2385 -0.0571
v 0.1584 -0.2495 -0.0255
v 0.1585 0.1485 0.2642
v -0.1497 0.2455 0.0090
v 0.1625 -0.0298 0.2621
v -0.1577 -0.1305 -0.2147
v -0.1495 -0.3138 -0.0297
v 0.1510 0.2412 0.0427
v 0.1554 0.2403 0.0571
v -0.1497 -0.1752 -0.1714
v -0.1620 -0.2372 -0.1174
v -0.1588 -0.2780 -0.1070
v -0.1414 0.0677 0.3194
v 0.1510 -0.2383 -0.0565
v -0.1542 0.2949 0.0879
v 0.1598 -0.2972 -0.0411
v -0.1493 -0.2843 -0.1370
v -0.1415 -0.3094 -0.1031
v 0.1629 0.1264 -0.2524
v -0.1608 -0.1068 -0.2367
v -0.1413 0.0177 -0.3263
v -0.1613 0.0746 -0.2792
v 0.1510 -0.1360 -0.2029
v -0.1497 0.1400 0.2009
v 0.1546 0.1050 0.2271
v 0.1577 -0.1181 -0.2811
v -0.1497 -0.0199 -0.2446
v -0.1558 0.0929 -0.2328
v -0.1598 0.0488 0.2505
v 0.1623 0.1793 0.1932
v -0.1497 0.0682 -0.2360
v -0.1497 0.1041 0.2225
v -0.1597 0.2146 -0.1354
v 0.1523 0.0802 0.3050
v 0.1635 -0.2752 -0.0270
v 0.1510 0.1858 0.1592
v -0.1536 0.2395 0.1950
v 0.1396 0.0969 0.3166
v 0.1572 0.2863 -0.1021
v 0.1633 0.2370 0.1229
v 0.1563 -0.3055 0.0324
v -0.1620 0.2717 0.0443
v 0.1569 0.1597 -0.2611
v -0.1497 0.2336 -0.0740
v -0.1497 0.1340 -0.2052
v 0.1510 0.1739 -0.1728
v -0.1618 0.1987 -0.2033
v -0.1557 -0.1900 0.1637
v -0.1599 0.2858 0.0666
v 0.1628 -0.1857 0.1926
v -0.1497 0.0660 0.2360
v -0.1577 -0.0221 -0.3017
v 0.1621 0.2526 -0.0664
v 0.1510 -0.2265 -0.0940
v -0.1613 -0.0486 0.2854
v 0.1510 0.1421 0.1998
v -0.1610 -0.2548 0.0545
v 0.1551 -0.2776 -0.1372
v 0.1624 0.1825 0.2224
v -0.1620 -0.1082 -0.2525
v 0.1637 -0.2429 0.1322
v -0.1534 0.2506 -0.1810
v -0.1627 -0.2553 -0.0298
v -0.1565 -0.2684 0.1430
v -0.1597 -0.2685 0.1202
v -0.1614 0.2552 -0.1394
v -0.1565 -0.2142 -0.2138
v -0.1415 -0.0676 -0.3193
v 0.1510 0.0470 -0.2407
v -0.1619 0.2164 0.1534
v 0.1634 -0.2443 0.1011
v -0.1545 0.2866 -0.1124
v 0.1627 -0.2837 0.0181
v 0.1553 -0.2239 -0.1047
v 0.1622 0.2317 -0.1740
v -0.1604 0.1143 0.2729
v -0.1549 -0.2994 -0.0691
v -0.1599 0.2594 0.1448
v -0.1497 0.1848 -0.1609
v -0.1600 0.1424 -0.2106
v -0.1615 0.2408 -0.1033
v 0.1510 0.2446 -0.0128
v -0.1621 0.1698 0.2151
v -0.1583 0.2957 0.0501
v -0.1417 -0.1883 0.2645
v 0.1510 0.1058 0.2206
v 0.1608 0.2336 0.1856
v -0.1497 -0.2414 -0.0455
v 0.1569 -0.1029 0.2875
v 0.1620 -0.0803 0.2397
v 0.1396 -0.3193 0.0879
v 0.1583 0.2206 -0.2069
v 0.1619 -0.2308 -0.1179
v 0.1632 0.2612 -0.1145
v 0.1549 0.1822 -0.1699
v -0.1619 -0.2730 0.0910
v 0.1554 0.2290 0.0924
v 0.1620 0.2731 0.0989
v 0.1394 -0.2176 -0.2478
v 0.1627 0.2835 0.0188
v -0.1581 -0.0653 -0.2431
v 0.1510 -0.2452 -0.0009
v -0.1608 -0.1618 -0.2029
v -0.1620 -0.2083 -0.1618
v 0.1395 -0.2849 -0.1669
v 0.1636 0.1530 -0.2252
v 0.1636 -0.0773 -0.2687
v -0.1497 -0.1640 0.1821
v 0.1567 0.0711 -0.2381
v 0.1510 -0.0401 0.2408
v 0.1552 -0.2387 0.0670
v 0.1510 0.0447 0.2403
v -0.1497 0.2219 -0.1054
v -0.1561 0.2279 0.1083
v -0.1419 0.1722 -0.2768
v 0.1527 -0.2814 0.1355
v -0.1542 0.1471 -0.2714
v -0.1497 -0.2453 -0.0121
v -0.1497 0.0178 0.2447
v -0.1616 0.0369 0.2826
v 0.1550 0.1967 0.1511
v 0.1600 -0.2448 0.1736
v 0.1602 -0.2841 0.0958
v -0.1559 -0.2193 -0.1200
v -0.1497 -0.1967 -0.1472
v -0.1585 0.2431 -0.0655
v 0.1397 -0.2978 0.1443
v 0.1624 -0.0358 -0.2595
v 0.1629 -0.1296 0.2508
v -0.1617 -0.1597 -0.2387
v 0.1636 0.0993 0.2580
v 0.1620 -0.1543 -0.2097
v 0.1569 0.2957 -0.0800
v 0.1470 0.2178 -0.2371
v -0.1584 -0.0713 0.2410
v 0.1604 0.0538 0.2499
v 0.1510 -0.1514 0.1916
v 0.1620 0.2377 -0.1062
v -0.1620 0.0940 -0.2470
v -0.1497 -0.0188 0.2448
v 0.1593 -0.1326 0.2132
v 0.1510 -0.1938 -0.1477
v 0.1618 0.2170 0.1432
v -0.1620 -0.1292 0.2420
v 0.1571 -0.1718 0.1807
v 0.1528 -0.2064 -0.2370
v -0.1606 -0.2457 -0.1522
v 0.1628 0.1441 0.2441
v -0.1579 -0.1131 0.2244
v 0.1510 0.2294 0.0859
v 0.1589 0.1380 -0.2099
v -0.1497 0.0134 -0.2453
v 0.1622 -0.2559 0.0497
v -0.1626 -0.2522 0.0996
v -0.1520 -0.1364 0.2821
v -0.1609 0.1561 -0.2419
v -0.1571 -0.0003 -0.2517
v 0.1603 0.2555 -0.0070
v 0.1630 0.2696 0.0043
v -0.1619 -0.1504 0.2178
v -0.1622 -0.0015 -0.2665
v -0.1621 -0.0367 0.2719
v -0.1415 -0.0034 0.3249
v 0.1623 0.1986 -0.1722
v 0.1516 0.2961 0.1095
v 0.1622 -0.2075 -0.1595
v 0.1630 0.0760 -0.2517
v 0.1602 0.2493 0.0445
v -0.1609 -0.2600 0.0053
v -0.1619 -0.2226 0.1474
v -0.1534 -0.2983 0.0821
v -0.1585 0.1687 0.2473
v 0.1510 0.1005 -0.2237
v 0.1396 0.3224 -0.0712
v 0.1562 -0.0432 -0.2449
v -0.1627 0.2493 0.0980
v -0.1559 0.2412 0.0626
v -0.1610 0.2565 -0.0458
v 0.1532 0.0914 -0.2990
v -0.1611 0.0129 0.2578
v -0.1619 -0.0437 0.2595
v 0.1621 -0.2385 -0.1024
v 0.1618 0.2917 0.0161
v -0.1571 -0.2492 0.0457
v 0.1633 -0.1513 0.2427
v -0.1609 -0.2506 -0.0694
v -0.1619 0.0603 0.2578
v -0.1497 -0.2419 0.0381
v 0.1629 0.1441 -0.2424
v -0.1619 0.2603 -0.1144
v -0.1540 -0.2429 0.1895
v -0.1617 0.1199 0.2336
v 0.1577 -0.3032 0.0020
v 0.1526 -0.1565 0.2710
v -0.1582 0.2523 -0.0085
v -0.1497 -0.2210 -0.1048
v 0.1625 0.2167 -0.1903
v -0.1620 -0.0500 -0.2602
v 0.1615 -0.0996 -0.2389
v -0.1593 0.2817 -0.0897
v -0.1606 -0.2250 0.1861
v -0.1497 0.2747 -0.1542
v 0.1576 -0.2081 0.2208
v 0.1579 -0.1005 0.2302
v -0.1595 -0.2843 -0.0783
v 0.1624 -0.0661 0.2809
v -0.1575 0.0123 0.3013
v 0.1634 0.0556 0.2629
v 0.1583 -0.0061 0.2508
v -0.1536 -0.1294 -0.2816
v -0.1497 -0.2296 0.0872
v 0.1397 -0.0616 0.3230
v -0.1621 -0.2652 -0.0712
v 0.1395 0.0187 -0.3304
v 0.1602 0.0247 -0.2995
v -0.1585 -0.2994 0.0024
v 0.1617 -0.2506 -0.1528
v -0.1416 -0.2612 -0.1920
v 0.1394 -0.3167 -0.0929
v 0.1510 0.1460 -0.1961
v 0.1531 -0.0919 -0.2983
v 0.1395 0.0377 0.3287
v -0.1416 -0.0797 0.3165
v -0.1499 -0.0410 0.3124
v 0.1519 -0.3033 -0.0808
v -0.1613 0.2903 -0.0452
v -0.1503 0.1946 0.2475
v -0.1416 0.1330 -0.2976
v 0.1569 -0.2408 -0.1878
v 0.1633 0.2576 -0.1229
v -0.1588 -0.2521 -0.1611
v 0.1638 -0.2627 0.1064
v 0.1600 -0.1716 0.2412
v 0.1624 -0.2005 -0.2146
v -0.1592 -0.0689 -0.2900
v -0.1413 0.2877 0.1549
v 0.1398 -0.2371 0.2308
v -0.1547 -0.3043 0.0390
v -0.1574 0.0583 0.2965
v 0.1605 0.1337 0.2181
v -0.1415 0.2949 -0.1400
v -0.1547 0.2123 -0.2218
v -0.1419 0.2082 -0.2507
v 0.1510 0.1889 -0.1564
v -0.1582 0.3003 0.0141
v -0.1617 0.1830 -0.1882
v -0.1589 -0.1892 0.2324
v 0.1399 0.2869 -0.1621
v 0.1396 0.0751 0.3226
v -0.1418 -0.2609 0.1931
v -0.1601 -0.0469 -0.2888
v 0.1519 0.2710 -0.1599
v 0.1553 -0.0987 0.2261
v 0.1564 -0.0487 -0.3034
v -0.1419 -0.3047 0.1158
v 0.1510 -0.2098 0.1269
v 0.1397 0.0639 -0.3248
v 0.1395 0.3165 0.0949
v 0.1486 -0.1321 0.2892
v 0.1515 0.1884 0.2533
v -0.1415 0.3050 -0.1158
v -0.1414 0.0693 -0.3193
v -0.1415 0.3209 -0.0547
v -0.1415 0.2721 0.1805
v -0.1416 -0.3246 -0.0006
v -0.1415 -0.1413 -0.2943
v 0.1527 -0.2084 0.2337
v 0.1577 -0.1198 0.2746
v 0.1595 0.2887 0.0723
v -0.1602 0.2277 0.1843
v -0.1497 0.2443 0.0258
v 0.1394 -0.3285 0.0434
v 0.1549 -0.0570 0.3041
v -0.1412 0.2979 0.1346
v -0.1418 0.2535 -0.2018
v 0.1394 -0.3309 -0.0171
v 0.1603 -0.0562 -0.2493
v 0.1596 0.2544 0.1536
v 0.1396 0.2912 0.1577
v 0.1605 0.2295 0.1911
v 0.1399 0.1180 -0.3089
v 0.1454 0.3225 0.0278
v 0.1614 -0.1144 0.2619
v 0.1395 0.2267 0.2411
v 0.1627 -0.2696 -0.0902
v 0.1399 0.2247 -0.2396
v -0.1414 0.1383 0.2958
v 0.1569 -0.0089 0.3055
v 0.1627 0.0002 0.2837
v -0.1585 -0.0291 -0.2961
v -0.1587 0.2716 0.1084
v -0.1564 -0.0894 0.2897
v -0.1414 -0.1614 -0.2840
v -0.1416 0.2059 0.2499
v -0.1502 -0.2250 -0.2209
v 0.1524 0.3142 -0.0013
v 0.1460 -0.3218 -0.0179
v 0.1395 0.3302 0.0246
v 0.1619 0.0876 -0.2778
v 0.1399 0.1559 -0.2918
v 0.1399 0.1424 -0.2987
v -0.1416 -0.2016 -0.2563
v -0.1497 -0.1802 -0.2583
v -0.1415 -0.1744 -0.2761
v -0.1583 0.2749 0.1097
v -0.1416 -0.1258 0.3009
v 0.1395 -0.0659 -0.3234
v 0.1396 0.2668 0.1957
v 0.1634 -0.2188 -0.1841
v 0.1399 0.1691 -0.2844
v 0.1395 -0.1563 -0.2921
v -0.1615 0.2482 0.0994
v 0.1510 -0.0885 -0.2286
v -0.1415 0.3183 0.0622
v -0.1413 0.0910 -0.3137
v 0.1510 -0.0981 0.2248
f 11 86 361
f 102 93 299
f 92 140 125
f 209 198 154
f 209 154 65
f 56 241 26
f 148 292 137
f 137 292 5
f 9 166 19
f 28 153 162
f 34 122 213
f 201 89 232
f 215 41 240
f 217 109 298
f 63 98 190
f 109 142 298
f 69 92 73
f 152 88 87
f 88 218 87
f 274 198 209
f 201 208 45
f 164 165 128
f 61 72 17
f 32 15 263
f 233 30 45
f 35 34 213
f 33 174 6
f 116 59 16
f 236 226 278
f 134 268 231
f 174 33 14
f 201 40 55
f 88 261 42
f 195 141 10
f 153 171 162
f 15 210 96
f 298 128 102
f 165 138 252
f 29 18 54
f 205 25 225
f 203 218 108
f 218 191 108
f 40 45 112
f 115 165 164
f 151 121 134
f 205 194 116
f 263 24 144
f 47 249 11
f 274 278 33
f 17 230 226
f 230 241 226
f 215 240 211
f 34 251 248
f 247 158 157
f 45 40 201
f 251 208 201
f 19 166 286
f 166 147 286
f 123 90 112
f 276 237 61
f 93 168 133
f 250 200 273
f 32 263 239
f 263 144 239
f 277 78 197
f 239 151 134
f 15 227 210
f 155 275 131
f 202 125 157
f 197 187 277
f 197 243 251
f 31 158 168
f 144 24 255
f 275 119 131
f 246 247 125
f 13 240 97
f 200 134 231
f 255 24 151
f 251 201 248
f 175 58 166
f 242 59 3
f 98 10 130
f 182 49 104
f 88 152 187
f 292 259 260
f 34 261 122
f 26 189 14
f 213 122 88
f 128 132 102
f 131 272 155
f 239 255 151
f 171 225 149
f 207 160 186
f 93 31 168
f 145 263 97
f 160 62 13
f 45 123 112
f 3 228 247
f 251 213 197
f 240 177 263
f 58 253 166
f 189 185 115
f 273 200 231
f 121 119 275
f 104 270 206
f 115 185 138
f 40 112 63
f 278 199 33
f 96 210 229
f 227 239 210
f 166 256 276
f 170 16 140
f 210 200 229
f 199 26 14
f 147 113 286
f 163 14 189
f 240 263 145
f 147 7 48
f 111 197 233
f 185 75 138
f 219 156 82
f 245 159 224
f 236 17 226
f 265 167 207
f 197 81 233
f 81 30 233
f 269 41 177
f 267 94 6
f 116 16 149
f 18 162 143
f 254 248 201
f 239 200 210
f 127 47 193
f 173 203 28
f 149 225 116
f 20 8 91
f 261 293 218
f 78 81 197
f 246 242 247
f 152 173 283
f 132 252 31
f 98 130 190
f 43 15 96
f 292 237 276
f 73 92 202
f 268 155 114
f 62 193 47
f 133 168 3
f 218 44 191
f 114 214 245
f 190 60 176
f 93 133 46
f 125 247 157
f 140 246 125
f 41 269 240
f 146 127 193
f 167 183 160
f 267 6 142
f 171 149 110
f 57 63 190
f 113 95 50
f 156 245 224
f 70 166 9
f 97 263 15
f 159 184 148
f 159 148 175
f 254 201 232
f 216 72 61
f 267 109 65
f 203 153 28
f 123 30 90
f 68 282 71
f 244 236 278
f 293 105 218
f 203 108 153
f 245 184 159
f 6 117 164
f 103 183 167
f 153 108 225
f 219 231 268
f 197 111 243
f 273 219 212
f 270 160 183
f 268 114 245
f 165 115 138
f 244 278 274
f 45 30 123
f 34 262 27
f 103 167 265
f 276 61 7
f 270 193 62
f 149 16 170
f 144 255 239
f 216 237 72
f 167 160 207
f 229 200 250
f 113 48 244
f 137 5 253
f 34 248 262
f 238 64 146
f 146 64 127
f 173 218 203
f 251 243 208
f 270 62 160
f 104 103 265
f 237 216 61
f 66 202 68
f 75 178 252
f 224 159 80
f 43 97 15
f 63 112 98
f 112 195 98
f 241 56 12
f 84 146 4
f 242 3 247
f 235 233 45
f 152 87 173
f 182 265 124
f 270 146 193
f 148 253 175
f 65 33 94
f 65 94 267
f 252 169 71
f 5 292 276
f 245 214 148
f 245 148 184
f 280 254 232
f 192 20 43
f 194 285 180
f 88 42 218
f 243 111 233
f 3 46 133
f 215 271 41
f 158 204 157
f 94 33 6
f 54 18 143
f 95 209 50
f 75 71 178
f 262 254 280
f 105 44 218
f 282 68 204
f 204 68 157
f 212 219 82
f 170 140 92
f 25 205 116
f 191 205 108
f 265 207 172
f 47 215 13
f 127 86 47
f 162 118 143
f 118 171 110
f 142 128 298
f 175 253 58
f 139 166 70
f 40 63 55
f 33 120 274
f 102 132 31
f 134 275 155
f 14 163 174
f 228 168 247
f 247 168 158
f 60 291 176
f 277 187 283
f 62 47 13
f 263 41 24
f 41 196 24
f 234 284 4
f 284 74 4
f 34 35 251
f 243 233 208
f 7 147 276
f 171 153 225
f 253 256 166
f 274 120 198
f 257 186 77
f 143 118 92
f 164 117 115
f 211 240 13
f 240 145 97
f 59 129 3
f 240 269 177
f 42 261 218
f 25 116 225
f 36 92 69
f 8 13 91
f 113 147 48
f 182 104 265
f 271 11 41
f 13 97 91
f 192 96 335
f 142 6 164
f 122 261 88
f 95 274 209
f 139 175 166
f 186 13 8
f 197 213 187
f 252 204 31
f 31 204 158
f 80 159 139
f 226 161 199
f 285 205 191
f 73 202 135
f 136 173 78
f 251 35 213
f 230 72 241
f 252 71 282
f 87 218 173
f 194 180 188
f 194 188 116
f 252 282 204
f 233 235 208
f 155 272 214
f 244 95 113
f 59 242 246
f 278 226 199
f 165 252 128
f 128 252 132
f 248 254 262
f 186 160 13
f 273 231 219
f 190 130 291
f 4 146 49
f 214 131 148
f 78 277 136
f 131 292 148
f 155 214 114
f 6 163 117
f 139 159 175
f 47 271 215
f 229 273 212
f 168 228 3
f 163 189 117
f 136 283 173
f 151 24 121
f 24 126 121
f 149 170 110
f 187 152 283
f 198 65 154
f 234 4 182
f 182 4 49
f 250 273 229
f 112 141 195
f 47 11 271
f 75 252 138
f 78 173 29
f 28 100 29
f 90 141 112
f 226 241 161
f 241 12 161
f 134 121 275
f 7 17 236
f 57 55 63
f 127 64 86
f 16 59 246
f 201 55 57
f 191 44 285
f 170 118 110
f 89 190 176
f 162 171 118
f 188 180 116
f 98 195 10
f 103 104 206
f 103 206 270
f 36 143 92
f 23 124 265
f 272 131 214
f 15 32 227
f 32 239 227
f 142 164 128
f 190 291 60
f 284 264 74
f 47 86 249
f 103 270 183
f 72 230 17
f 202 157 68
f 102 31 93
f 4 74 84
f 48 7 236
f 48 236 244
f 225 108 205
f 268 134 155
f 82 156 224
f 253 5 276
f 253 276 256
f 92 125 202
f 178 169 252
f 135 202 66
f 120 33 65
f 49 146 104
f 104 146 270
f 7 61 17
f 177 41 263
f 219 268 156
f 268 245 156
f 82 224 38
f 232 89 176
f 16 246 140
f 20 91 43
f 91 97 43
f 213 88 187
f 287 286 113
f 90 30 141
f 173 28 29
f 209 65 109
f 209 109 217
f 200 239 134
f 224 80 38
f 57 190 201
f 201 190 89
f 28 162 100
f 100 162 29
f 178 71 169
f 176 291 288
f 288 291 279
f 208 235 45
f 148 137 253
f 277 283 136
f 198 120 65
f 207 186 257
f 33 199 14
f 56 26 12
f 162 18 29
f 54 143 36
f 86 11 249
f 172 207 257
f 95 244 274
f 189 115 117
f 99 229 212
f 73 135 66
f 13 215 211
f 343 182 124
f 37 82 38
f 294 295 26
f 296 297 185
f 325 46 129
f 280 232 262
f 161 12 199
f 12 26 199
f 172 257 77
f 77 266 20
f 266 8 20
f 77 186 266
f 192 43 96
f 241 72 26
f 146 39 238
f 298 102 299
f 174 163 6
f 267 142 109
f 116 150 59
f 9 19 286
f 180 150 116
f 223 23 172
f 23 265 172
f 118 170 92
f 3 129 46
f 74 301 84
f 101 292 131
f 266 186 8
f 285 194 205
f 113 50 287
f 299 93 325
f 93 46 325
f 232 176 288
f 129 59 303
f 10 141 346
f 50 209 306
f 303 180 329
f 181 180 344
f 180 303 150
f 34 27 220
f 232 310 312
f 330 76 77
f 338 217 258
f 335 212 53
f 129 303 313
f 303 329 313
f 285 344 180
f 59 150 303
f 68 71 51
f 262 232 52
f 338 209 217
f 67 68 51
f 50 306 300
f 316 315 66
f 66 67 316
f 310 309 281
f 2 1 30
f 107 289 314
f 107 314 307
f 101 326 292
f 319 320 24
f 281 312 310
f 309 288 333
f 309 333 281
f 29 54 322
f 322 54 352
f 323 324 72
f 96 229 335
f 53 212 334
f 131 326 101
f 326 131 354
f 339 105 328
f 80 139 107
f 310 288 309
f 261 220 221
f 21 38 334
f 180 181 329
f 311 334 38
f 221 22 261
f 77 223 172
f 322 321 78
f 330 77 20
f 79 51 71
f 302 336 72
f 21 334 212
f 327 314 50
f 289 50 314
f 258 337 338
f 67 66 68
f 312 52 232
f 22 328 261
f 27 262 220
f 126 340 121
f 332 305 335
f 78 29 322
f 22 339 328
f 220 261 34
f 313 317 325
f 335 334 332
f 341 75 342
f 316 67 51
f 223 343 124
f 343 223 106
f 262 221 220
f 221 262 52
f 305 330 335
f 330 20 335
f 301 83 84
f 179 222 41
f 38 107 311
f 38 80 107
f 338 290 209
f 290 306 209
f 334 335 53
f 76 106 223
f 339 344 285
f 107 307 311
f 50 289 286
f 325 129 313
f 285 105 339
f 217 298 258
f 84 39 146
f 189 26 295
f 295 331 189
f 39 83 238
f 341 308 75
f 73 66 315
f 347 348 126
f 292 326 259
f 292 260 318
f 337 325 317
f 24 196 349
f 349 319 24
f 86 64 361
f 289 107 70
f 70 9 289
f 26 72 336
f 304 350 69
f 320 351 126
f 352 54 345
f 36 69 350
f 82 37 21
f 21 37 38
f 353 302 72
f 286 287 50
f 232 288 310
f 222 355 41
f 290 300 306
f 99 212 335
f 237 292 318
f 356 357 74
f 84 83 39
f 189 359 185
f 358 359 189
f 285 44 105
f 54 36 345
f 223 77 76
f 308 79 75
f 75 79 71
f 293 261 328
f 212 82 21
f 1 346 30
f 325 337 299
f 126 24 320
f 196 41 355
f 338 337 317
f 192 335 20
f 337 258 298
f 298 299 337
f 105 293 328
f 351 347 126
f 30 81 85
f 360 356 74
f 331 358 189
f 350 345 36
f 179 41 11
f 74 264 360
f 315 304 69
f 69 73 315
f 355 349 196
f 300 327 50
f 238 361 64
f 361 179 11
f 141 30 346
f 359 296 185
f 81 78 85
f 321 85 78
f 121 362 119
f 318 323 72
f 72 237 318
f 348 340 126
f 357 301 74
f 288 279 333
f 362 354 119
f 119 354 131
f 139 70 107
f 229 99 335
f 340 362 121
f 336 294 26
f 124 23 223
f 9 286 289
f 85 2 30
f 185 342 75
f 342 185 297
f 324 353 72
f 361 238 83
f 166 276 147
f 396 368 400
f 383 504 378
f 498 384 438
f 525 365 539
f 469 470 435
f 379 393 424
f 532 444 464
f 582 466 562
f 531 535 527
f 563 459 499
f 469 423 470
f 369 499 459
f 469 503 423
f 371 396 400
f 512 308 380
f 514 515 400
f 514 400 368
f 464 483 381
f 543 513 463
f 527 535 375
f 527 375 646
f 512 440 575
f 402 621 407
f 392 543 463
f 392 389 404
f 451 535 512
f 541 689 409
f 657 584 367
f 501 543 392
f 499 369 557
f 610 563 541
f 392 463 425
f 426 540 511
f 549 558 548
f 456 423 580
f 616 568 585
f 538 449 393
f 488 430 573
f 430 558 573
f 392 425 572
f 573 549 443
f 588 491 547
f 681 383 468
f 383 681 504
f 466 419 577
f 496 541 579
f 541 409 579
f 686 573 523
f 460 660 383
f 673 575 519
f 418 470 529
f 453 478 586
f 622 451 512
f 636 423 456
f 535 440 512
f 381 556 522
f 529 547 418
f 541 485 610
f 382 460 378
f 597 570 445
f 374 411 442
f 519 575 531
f 587 482 465
f 476 415 502
f 575 440 531
f 440 535 531
f 366 528 443
f 441 509 419
f 637 445 534
f 573 490 549
f 406 609 615
f 453 586 514
f 434 372 585
f 521 393 379
f 470 437 546
f 678 602 663
f 486 453 606
f 625 520 450
f 448 495 619
f 528 366 485
f 402 537 621
f 703 413 386
f 513 431 463
f 605 518 497
f 542 547 417
f 699 522 556
f 564 357 686
f 521 538 393
f 368 396 493
f 450 396 410
f 501 375 461
f 415 420 630
f 447 559 486
f 631 462 651
f 499 541 563
f 541 363 485
f 606 628 486
f 615 448 406
f 363 587 554
f 587 465 554
f 634 485 373
f 435 418 421
f 435 470 418
f 704 474 405
f 364 557 369
f 630 420 521
f 385 488 555
f 582 419 466
f 612 424 639
f 429 642 523
f 645 640 454
f 442 625 641
f 457 520 685
f 641 450 588
f 580 516 568
f 580 568 616
f 526 599 415
f 378 390 382
f 390 414 382
f 378 504 390
f 421 418 547
f 421 547 542
f 375 501 646
f 569 605 647
f 605 604 647
f 574 578 508
f 475 545 637
f 419 509 530
f 419 530 570
f 607 448 619
f 524 676 642
f 652 411 374
f 638 564 523
f 638 523 642
f 615 609 448
f 653 616 635
f 644 611 697
f 660 427 468
f 494 520 621
f 628 606 655
f 659 573 555
f 415 599 502
f 539 365 498
f 539 498 438
f 649 367 584
f 638 642 676
f 382 422 419
f 422 441 419
f 516 434 585
f 585 661 376
f 585 376 567
f 609 406 666
f 654 626 468
f 467 655 397
f 431 513 481
f 431 481 662
f 650 377 424
f 684 654 427
f 437 456 632
f 458 600 625
f 595 402 467
f 485 366 373
f 660 562 617
f 617 427 660
f 495 448 609
f 580 616 590
f 436 610 485
f 626 664 468
f 466 629 403
f 546 507 374
f 589 667 565
f 453 595 467
f 443 548 366
f 514 586 515
f 697 604 605
f 605 644 697
f 696 613 545
f 550 539 438
f 673 519 531
f 650 670 674
f 470 636 437
f 433 676 524
f 466 403 677
f 465 620 554
f 437 636 456
f 605 497 644
f 561 454 455
f 516 471 423
f 456 452 632
f 549 548 443
f 391 366 472
f 565 369 459
f 459 387 565
f 598 379 679
f 487 511 540
f 399 487 540
f 396 450 520
f 620 484 528
f 664 681 468
f 520 368 493
f 663 479 596
f 417 547 371
f 547 491 371
f 521 379 598
f 705 652 374
f 401 494 537
f 561 628 655
f 655 645 561
f 416 624 536
f 529 470 546
f 529 546 374
f 482 433 524
f 571 525 445
f 649 584 673
f 584 575 673
f 670 477 674
f 477 698 674
f 454 640 581
f 403 629 553
f 629 597 553
f 462 580 590
f 637 550 591
f 606 397 655
f 574 453 559
f 559 453 486
f 491 396 371
f 589 565 386
f 467 402 408
f 683 600 656
f 577 419 510
f 506 622 512
f 402 401 537
f 632 452 665
f 617 562 684
f 513 461 622
f 454 561 645
f 669 555 648
f 540 398 399
f 641 625 450
f 544 454 591
f 544 591 560
f 679 379 596
f 379 678 596
f 545 682 637
f 520 493 396
f 427 617 684
f 688 672 686
f 449 670 393
f 670 650 393
f 374 442 412
f 658 594 480
f 425 675 572
f 467 408 655
f 438 384 574
f 384 601 574
f 599 370 502
f 502 370 500
f 590 616 462
f 501 392 388
f 388 392 492
f 644 416 611
f 560 550 438
f 454 581 591
f 536 624 619
f 510 570 597
f 446 415 476
f 496 433 482
f 496 482 587
f 513 506 517
f 513 517 481
f 458 625 442
f 517 506 512
f 517 512 342
f 501 461 543
f 564 686 523
f 427 654 468
f 569 647 671
f 513 622 506
f 632 665 633
f 597 445 614
f 621 520 457
f 512 593 657
f 464 381 532
f 433 691 690
f 486 455 544
f 552 570 571
f 382 660 460
f 624 416 497
f 574 508 478
f 574 478 453
f 514 368 494
f 650 674 377
f 393 650 424
f 692 685 693
f 452 592 665
f 597 614 553
f 439 432 566
f 694 692 600
f 692 693 600
f 503 434 423
f 579 409 433
f 479 658 480
f 653 651 462
f 405 566 695
f 382 419 582
f 406 448 675
f 404 492 392
f 627 308 512
f 512 657 627
f 646 501 388
f 428 424 377
f 657 593 623
f 593 575 623
f 433 689 569
f 405 439 566
f 576 603 453
f 406 675 425
f 621 685 608
f 544 455 454
f 363 541 496
f 370 480 500
f 458 656 600
f 584 657 623
f 692 608 685
f 477 385 698
f 357 688 686
f 452 456 592
f 456 462 592
f 687 666 406
f 611 416 697
f 701 697 416
f 524 642 482
f 602 479 663
f 704 635 474
f 632 633 507
f 507 633 505
f 644 497 416
f 683 694 600
f 364 369 605
f 523 573 484
f 480 599 395
f 599 480 370
f 433 569 671
f 433 671 691
f 414 422 382
f 444 404 389
f 389 464 444
f 433 690 700
f 489 701 536
f 432 439 474
f 471 516 580
f 667 518 565
f 558 430 399
f 562 466 684
f 466 677 684
f 545 475 696
f 693 685 520
f 495 489 536
f 495 536 619
f 639 424 428
f 373 366 391
f 488 659 555
f 665 592 631
f 592 462 631
f 534 445 525
f 534 525 539
f 613 553 614
f 673 531 643
f 522 699 624
f 550 534 539
f 507 505 618
f 408 402 407
f 678 424 612
f 612 602 678
f 401 514 494
f 624 699 619
f 453 467 606
f 558 399 398
f 576 453 514
f 514 401 576
f 465 642 620
f 398 472 366
f 366 558 398
f 602 658 479
f 382 582 473
f 386 413 532
f 386 532 381
f 412 442 551
f 687 431 666
f 676 433 700
f 584 623 575
f 445 682 614
f 442 641 680
f 640 475 637
f 464 572 483
f 473 660 382
f 672 555 686
f 635 704 653
f 570 530 365
f 570 365 525
f 487 399 430
f 467 397 606
f 425 583 406
f 425 463 431
f 425 431 583
f 369 518 605
f 483 607 556
f 702 695 566
f 372 394 585
f 596 480 395
f 686 555 573
f 479 480 596
f 484 443 528
f 383 660 468
f 415 630 598
f 545 614 682
f 622 461 451
f 484 429 523
f 431 662 666
f 406 583 687
f 675 607 572
f 572 607 483
f 420 477 670
f 557 364 689
f 423 434 516
f 541 557 689
f 499 557 541
f 512 575 593
f 484 573 443
f 620 528 485
f 598 526 415
f 436 485 634
f 601 578 574
f 555 672 648
f 688 648 672
f 369 565 518
f 682 445 637
f 522 589 386
f 543 461 513
f 483 556 381
f 596 678 663
f 470 423 636
f 698 385 555
f 698 555 669
f 565 703 386
f 607 619 699
f 486 561 455
f 411 458 442
f 424 678 379
f 574 544 438
f 516 585 568
f 573 659 488
f 624 497 522
f 497 589 522
f 490 573 558
f 490 558 549
f 426 511 415
f 426 415 446
f 537 494 621
f 461 375 535
f 405 474 439
f 526 598 599
f 496 587 363
f 364 605 569
f 544 560 438
f 477 668 385
f 510 419 570
f 450 491 588
f 474 635 432
f 635 616 432
f 521 420 449
f 521 449 538
f 598 395 599
f 432 585 566
f 637 534 550
f 430 668 477
f 668 430 385
f 423 471 580
f 420 670 449
f 704 405 695
f 679 596 395
f 486 628 561
f 570 525 571
f 511 487 533
f 533 487 430
f 451 461 535
f 432 616 585
f 551 641 588
f 598 679 395
f 595 603 401
f 401 402 595
f 600 520 625
f 408 407 608
f 407 621 608
f 409 689 433
f 430 477 533
f 629 466 577
f 577 510 629
f 450 410 491
f 376 702 566
f 566 567 376
f 585 567 566
f 554 620 485
f 486 544 447
f 447 544 574
f 363 554 485
f 570 552 445
f 701 416 536
f 529 374 412
f 621 457 685
f 560 591 550
f 410 396 491
f 595 453 603
f 574 559 447
f 477 420 533
f 547 412 551
f 641 551 680
f 387 703 565
f 511 533 420
f 442 680 551
f 585 394 661
f 374 507 618
f 618 705 374
f 572 389 392
f 389 572 464
f 598 630 521
f 448 607 675
f 556 607 699
f 456 580 462
f 620 642 429
f 620 429 484
f 546 437 507
f 437 632 507
f 482 642 465
f 520 494 368
f 548 558 366
f 518 667 497
f 667 589 497
f 496 579 433
f 342 512 380
f 342 380 308
f 473 562 660
f 462 616 653
f 385 430 488
f 569 689 364
f 603 576 401
f 460 383 378
f 367 627 657
f 511 420 415
f 600 693 520
f 547 551 588
f 583 431 687
f 640 637 581
f 527 643 531
f 473 582 562
f 529 412 547
f 522 386 381
f 545 613 614
f 510 597 629
f 552 571 445
f 591 581 637
f 706 500 480
f 480 594 706
o hub
usemtl hub
v 0.1039 -0.1880 -0.0055
v 0.1001 -0.1895 0.0045
v 0.1290 -0.1736 -0.0051
v 0.1290 -0.1733 -0.0076
v 0.1294 -0.1778 -0.0028
v 0.1288 -0.1713 -0.0009
v 0.1039 -0.1881 -0.0101
v 0.1034 -0.1834 0.0012
v 0.0784 -0.1913 -0.0114
v 0.0785 -0.1916 0.0002
v 0.0766 -0.1765 0.0012
v 0.0783 -0.1912 -0.0055
v 0.1207 -0.0398 0.0250
v 0.1184 -0.0315 0.0353
v 0.1207 -0.0332 0.0332
v 0.1207 -0.0273 0.0383
v 0.1201 -0.0136 0.0446
v 0.1207 0.0399 -0.0250
v 0.1184 0.0316 -0.0353
v 0.1207 0.0332 -0.0332
v 0.1207 0.0273 -0.0383
v 0.1201 0.0136 -0.0445
v 0.1207 -0.0433 0.0180
v 0.1207 0.0434 -0.0179
v 0.0745 -0.0767 0.1761
v 0.1089 -0.0750 0.1695
v 0.0978 -0.0635 0.1237
v 0.1138 -0.0737 0.1726
v 0.0927 0.0014 0.1080
v 0.1173 -0.0182 0.1893
v 0.0732 0.0184 0.1288
v 0.1173 -0.0049 0.1913
v 0.0904 0.0049 0.1878
v 0.1059 -0.0016 0.1820
v 0.0916 -0.0196 0.1854
v 0.1089 -0.0164 0.1842
v 0.0745 0.0899 0.1698
v 0.1089 0.0858 0.1643
v 0.0978 0.0571 0.1269
v 0.0732 0.0319 0.1261
v 0.1173 0.0773 0.1751
v 0.1059 0.0705 0.1683
v 0.0889 0.0674 0.1784
v 0.1138 0.0890 0.1653
v 0.0927 0.0853 0.0663
v 0.1173 0.1367 0.1323
v 0.0732 0.1122 0.0659
v 0.1173 0.1465 0.1232
v 0.0904 0.1499 0.1133
v 0.1059 0.1413 0.1148
v 0.0916 0.1328 0.1310
v 0.1089 0.1338 0.1277
v 0.1083 0.1813 0.0354
v 0.1173 0.1869 0.0354
v 0.0906 0.1855 0.0326
v 0.0978 0.1348 0.0344
v 0.0732 0.1185 0.0537
v 0.1173 0.1851 0.0488
v 0.1059 0.1756 0.0499
v 0.0889 0.1815 0.0586
v 0.0927 0.1050 -0.0253
v 0.1173 0.1887 -0.0243
v 0.0732 0.1215 -0.0466
v 0.1173 0.1876 -0.0377
v 0.0904 0.1820 -0.0465
v 0.1059 0.1778 -0.0389
v 0.0916 0.1852 -0.0221
v 0.1089 0.1832 -0.0250
v 0.0745 0.1456 -0.1254
v 0.1089 0.1411 -0.1201
v 0.0978 0.1110 -0.0839
v 0.0732 0.1159 -0.0591
v 0.1173 0.1535 -0.1143
v 0.1059 0.1484 -0.1061
v 0.0889 0.1589 -0.1053
v 0.1138 0.1413 -0.1235
v 0.0927 0.0457 -0.0979
v 0.1173 0.0986 -0.1626
v 0.0732 0.0393 -0.1240
v 0.1173 0.0875 -0.1702
v 0.0904 0.0771 -0.1713
v 0.1059 0.0805 -0.1632
v 0.0916 0.0982 -0.1585
v 0.1089 0.0947 -0.1588
v 0.0745 -0.0073 -0.1920
v 0.1089 -0.0060 -0.1852
v 0.0978 0.0036 -0.1391
v 0.0732 0.0260 -0.1275
v 0.1173 0.0064 -0.1913
v 0.1059 0.0096 -0.1822
v 0.0889 0.0167 -0.1899
v 0.1138 -0.0085 -0.1875
v 0.0927 -0.0480 -0.0967
v 0.1173 -0.0657 -0.1785
v 0.0732 -0.0725 -0.1080
v 0.1173 -0.0785 -0.1745
v 0.0904 -0.0858 -0.1670
v 0.1059 -0.0775 -0.1647
v 0.0916 -0.0627 -0.1756
v 0.1089 -0.0651 -0.1730
v 0.0732 -0.0834 -0.0998
v 0.1173 -0.1456 -0.1242
v 0.1059 -0.1365 -0.1211
v 0.0889 -0.1380 -0.1315
v 0.1605 -0.1906 0.1654
v 0.1551 -0.2260 0.0888
v 0.1551 -0.1509 0.1953
v 0.1605 -0.0347 0.2499
v 0.1551 -0.0289 0.2411
v 0.1605 0.1383 0.2111
v 0.1551 0.1369 0.2006
v 0.1605 0.2430 0.0680
v 0.1551 0.2350 0.0610
v 0.1605 0.2278 -0.1087
v 0.1551 0.2172 -0.1087
v 0.1605 0.1000 -0.2317
v 0.1551 0.0920 -0.2247
v 0.1605 -0.0771 -0.2403
v 0.1551 -0.0785 -0.2297
v 0.1603 -0.2168 -0.1292
v 0.1551 -0.1883 -0.1595
v 0.1607 -0.2490 0.0228
v 0.1551 -0.2397 -0.0508
v -0.1536 -0.2475 0.0149
v -0.1536 -0.2452 0.0371
v -0.1590 -0.2452 0.0370
v -0.1590 -0.2408 0.0589
v -0.1536 -0.2409 0.0589
v -0.1536 -0.2347 0.0802
v -0.1590 -0.2346 0.0802
v -0.1590 -0.2265 0.1009
v -0.1536 -0.2166 0.1209
v -0.1536 -0.2048 0.1398
v -0.1590 -0.2048 0.1398
v -0.1590 -0.1915 0.1576
v -0.1536 -0.1427 0.2029
v -0.1536 -0.1239 0.2148
v -0.1590 -0.1239 0.2148
v -0.1590 -0.1041 0.2250
v -0.1536 -0.1042 0.2251
v -0.1590 -0.0835 0.2335
v -0.1536 -0.0405 0.2447
v -0.1536 -0.0184 0.2473
v -0.1590 -0.0184 0.2473
v -0.1590 0.0038 0.2479
v -0.1536 0.0038 0.2480
v -0.1590 0.0260 0.2466
v -0.1536 0.0260 0.2467
v -0.1590 0.0480 0.2433
v -0.1536 0.0480 0.2433
v -0.1590 0.0696 0.2380
v -0.1536 0.0697 0.2381
v -0.1590 0.0907 0.2308
v -0.1536 0.0907 0.2309
v -0.1536 0.1110 0.2218
v -0.1590 0.1110 0.2218
v -0.1590 0.1304 0.2109
v -0.1536 0.1305 0.2110
v -0.1536 0.1489 0.1984
v -0.1590 0.1488 0.1984
v -0.1590 0.1660 0.1842
v -0.1536 0.1819 0.1687
v -0.1536 0.1963 0.1517
v -0.1590 0.1962 0.1516
v -0.1590 0.2090 0.1334
v -0.1536 0.2091 0.1335
v -0.1590 0.2202 0.1142
v -0.1536 0.2202 0.1142
v -0.1590 0.2295 0.0940
v -0.1536 0.2295 0.0940
v -0.1536 0.2370 0.0730
v -0.1590 0.2370 0.0730
v -0.1590 0.2426 0.0515
v -0.1536 0.2426 0.0515
v -0.1590 0.2462 0.0295
v -0.1536 0.2463 0.0296
v -0.1590 0.2479 0.0074
v -0.1536 0.2479 0.0074
v -0.1590 0.2475 -0.0149
v -0.1536 0.2476 -0.0149
v -0.1590 0.2452 -0.0370
v -0.1536 0.2453 -0.0370
v -0.1590 0.2409 -0.0588
v -0.1536 0.2347 -0.0802
v -0.1536 0.2266 -0.1009
v -0.1590 0.2265 -0.1009
v -0.1590 0.2166 -0.1208
v -0.1536 0.2166 -0.1208
v -0.1590 0.2049 -0.1397
v -0.1536 0.2049 -0.1398
v -0.1590 0.1915 -0.1575
v -0.1536 0.1916 -0.1576
v -0.1536 0.1767 -0.1741
v -0.1590 0.1766 -0.1741
v -0.1590 0.1603 -0.1892
v -0.1536 0.1603 -0.1892
v -0.1590 0.1427 -0.2028
v -0.1536 0.1427 -0.2028
v -0.1590 0.1239 -0.2148
v -0.1536 0.1240 -0.2148
v -0.1590 0.1042 -0.2250
v -0.1536 0.1042 -0.2251
v -0.1590 0.0836 -0.2334
v -0.1536 0.0836 -0.2335
v -0.1536 0.0624 -0.2400
v -0.1590 0.0623 -0.2400
v -0.1590 0.0406 -0.2446
v -0.1536 0.0406 -0.2447
v -0.1590 0.0185 -0.2473
v -0.1536 0.0185 -0.2473
v -0.1590 -0.0038 -0.2479
v -0.1536 -0.0038 -0.2480
v -0.1536 -0.0260 -0.2466
v -0.1590 -0.0260 -0.2466
v -0.1536 -0.0480 -0.2433
v -0.1536 -0.0696 -0.2380
v -0.1590 -0.0696 -0.2380
v -0.1590 -0.0906 -0.2308
v -0.1536 -0.0906 -0.2308
v -0.1536 -0.1110 -0.2218
v -0.1590 -0.1110 -0.2217
v -0.1590 -0.1304 -0.2109
v -0.1536 -0.1304 -0.2109
v -0.1590 -0.1488 -0.1983
v -0.1536 -0.1488 -0.1984
v -0.1536 -0.1660 -0.1843
v -0.1590 -0.1659 -0.1842
v -0.1590 -0.1818 -0.1686
v -0.1536 -0.1818 -0.1686
v -0.1536 -0.1962 -0.1516
v -0.1590 -0.1962 -0.1516
v -0.1590 -0.2090 -0.1334
v -0.1536 -0.2201 -0.1142
v -0.1590 -0.2201 -0.1141
v -0.1590 -0.2294 -0.0940
v -0.1536 -0.2295 -0.0940
v -0.1590 -0.2369 -0.0730
v -0.1536 -0.2370 -0.0730
v -0.1536 -0.2426 -0.0515
v -0.1590 -0.2425 -0.0515
v -0.1590 -0.2462 -0.0295
v -0.1590 -0.2430 0.0480
v -0.1585 -0.2357 0.0431
v -0.1590 -0.2028 0.1384
v -0.1585 -0.1977 0.1317
v -0.1590 -0.1333 0.2088
v -0.1585 -0.1317 0.2002
v -0.1590 -0.0401 0.2422
v -0.1585 -0.0414 0.2339
v -0.1590 0.0588 0.2406
v -0.1585 0.0537 0.2335
v -0.1590 0.1473 0.1964
v -0.1585 0.1404 0.1916
v -0.1590 0.2146 0.1238
v -0.1585 0.2059 0.1226
v -0.1590 0.2438 0.0292
v -0.1590 0.2378 -0.0695
v -0.1585 0.2404 -0.0110
v -0.1590 0.2107 -0.1303
v -0.1590 0.1413 -0.2008
v -0.1585 0.1937 -0.1411
v -0.1590 0.0515 -0.2423
v -0.1585 0.0939 -0.2204
v -0.1590 -0.0149 -0.2473
v -0.1590 -0.1098 -0.2195
v -0.1585 -0.0324 -0.2374
v -0.1590 -0.1890 -0.1601
v -0.1585 -0.1496 -0.1871
v -0.1590 -0.2346 -0.0723
v -0.1585 -0.2244 -0.0839
v -0.1535 0.1660 -0.1365
v -0.1535 -0.0416 -0.2108
v -0.1535 -0.2046 -0.0583
v -0.1535 -0.1310 0.1616
v -0.1535 0.1459 0.1375
v 0.1561 0.1702 0.1197
v 0.1561 -0.0958 0.1847
v 0.1561 -0.2002 -0.0694
v 0.1561 0.0248 -0.2066
v 0.1322 0.0375 0.0153
v 0.1207 0.0434 0.0180
v 0.1207 0.0423 0.0205
v 0.1322 0.0002 0.0404
v 0.1207 -0.0027 0.0469
v 0.1322 -0.0025 0.0404
v 0.1322 -0.0001 -0.0404
v 0.1207 0.0000 -0.0469
v 0.1207 0.0028 -0.0468
v 0.1322 0.0026 -0.0403
v 0.1369 -0.0190 0.0958
v 0.1412 -0.0689 0.1740
v 0.1271 0.1829 0.0279
v 0.1107 0.0212 0.0398
v 0.1468 0.1144 0.0239
v 0.1271 0.0902 -0.1960
v 0.1465 0.0282 -0.1120
v 0.1330 -0.2069 -0.0033
v 0.1271 -0.0646 0.1844
v 0.1107 -0.0196 -0.0329
v 0.1412 -0.1743 0.0263
v 0.1461 -0.1176 -0.0357
v 0.1456 -0.1648 -0.0102
v 0.1129 0.1911 0.0058
v 0.1132 0.1954 0.0058
v 0.1126 0.1834 0.0154
v 0.1129 0.1879 -0.0068
v 0.1129 0.1147 0.1530
v 0.1132 0.1174 0.1564
v 0.1126 0.1023 0.1529
v 0.1129 0.1225 0.1426
v 0.1129 0.1237 -0.1458
v 0.1132 0.1264 -0.1492
v 0.1126 0.1264 -0.1337
v 0.1129 0.1118 -0.1511
v 0.1129 -0.0369 -0.1875
v 0.1132 -0.0378 -0.1918
v 0.1126 -0.0258 -0.1822
v 0.1129 -0.0484 -0.1816
v 0.1129 -0.1696 -0.0881
v 0.1132 -0.1735 -0.0899
v 0.1126 -0.1585 -0.0934
v 0.1129 -0.1722 -0.0753
v 0.1129 -0.1746 0.0777
v 0.1132 -0.1785 0.0796
v 0.1126 -0.1718 0.0657
v 0.1129 -0.1663 0.0877
v 0.1129 -0.0481 0.1850
v 0.1132 -0.0491 0.1892
v 0.1126 -0.0558 0.1754
v 0.1129 -0.0351 0.1847
v 0.1373 -0.1926 0.0954
v 0.1524 0.0559 0.1747
v 0.1463 -0.0419 0.1990
v 0.1554 -0.1227 0.1138
v 0.1373 -0.0728 0.2006
v 0.1373 0.0312 0.2126
v 0.1467 0.1344 0.1501
v 0.1448 0.0226 0.0984
v 0.1355 0.0620 0.0289
v 0.1519 0.1752 0.0589
v 0.1475 0.1994 -0.0302
v 0.1373 0.1486 0.1451
v 0.1543 0.1129 0.0231
v 0.1334 0.1773 0.0063
v 0.1334 0.1779 -0.0011
v 0.1335 0.1735 0.0108
v 0.1333 0.1848 0.0108
v 0.1575 0.0727 -0.0900
v 0.1373 0.2076 -0.0401
v 0.1457 0.1438 -0.1411
v 0.1373 0.1526 -0.1492
v 0.1355 0.0143 -0.0670
v 0.1533 -0.1045 -0.1367
v 0.1469 0.0456 -0.1988
v 0.1373 0.0641 -0.2051
v 0.1458 -0.0976 -0.1783
v 0.1454 -0.1882 -0.0830
v 0.1373 -0.1946 -0.0911
v 0.1373 -0.1204 -0.1780
v 0.1508 -0.0739 -0.0724
v 0.1355 -0.0530 0.0300
v 0.1439 -0.2061 0.0042
v 0.1373 -0.2157 0.0025
v 0.1484 -0.1821 0.0739
v 0.1548 -0.1139 -0.0073
v 0.1483 -0.1914 -0.0074
v 0.1334 -0.0456 0.1715
v 0.1334 -0.0385 0.1737
v 0.1335 -0.0490 0.1667
v 0.1333 -0.0516 0.1778
v 0.1334 0.1057 0.1426
v 0.1335 0.1007 0.1381
v 0.1334 0.1125 0.1372
v 0.1334 0.1049 0.1500
v 0.1334 0.1155 -0.1347
v 0.1335 0.1122 -0.1289
v 0.1334 0.1087 -0.1402
v 0.1334 0.1230 -0.1356
v 0.1334 -0.0333 -0.1743
v 0.1335 -0.0339 -0.1708
v 0.1334 -0.0402 -0.1797
v 0.1333 -0.0306 -0.1826
v 0.1334 -0.1570 -0.0826
v 0.1335 -0.1506 -0.0807
v 0.1334 -0.1626 -0.0762
v 0.1334 -0.1596 -0.0896
v 0.1334 -0.1625 0.0713
v 0.1335 -0.1570 0.0675
v 0.1334 -0.1587 0.0792
v 0.1334 -0.1696 0.0689
v 0.1508 0.1815 0.0055
v 0.1507 -0.0548 0.1740
v 0.1514 0.1047 0.1442
v 0.1516 0.1112 -0.1379
v 0.1507 0.1249 -0.1330
v 0.1513 -0.0332 -0.1752
v 0.1514 -0.1573 -0.0835
v 0.1517 -0.1645 0.0652
v 0.1207 0.0250 0.0399
v 0.1184 0.0353 0.0316
v 0.1207 0.0332 0.0332
v 0.1207 0.0384 0.0273
v 0.1201 0.0446 0.0136
v 0.1207 -0.0249 -0.0399
v 0.1184 -0.0353 -0.0315
v 0.1207 -0.0331 -0.0332
v 0.1207 -0.0383 -0.0273
v 0.1201 -0.0445 -0.0136
v 0.1207 0.0180 0.0434
v 0.1207 -0.0179 -0.0434
v 0.0927 -0.1055 -0.0227
v 0.1173 -0.1805 -0.0599
v 0.0732 -0.1296 -0.0107
v 0.1173 -0.1854 -0.0474
v 0.0904 -0.1841 -0.0370
v 0.1059 -0.1770 -0.0421
v 0.0916 -0.1764 -0.0604
v 0.1089 -0.1759 -0.0570
v 0.0745 -0.1855 0.0498
v 0.1089 -0.1792 0.0470
v 0.0978 -0.1363 0.0275
v 0.0732 -0.1300 0.0030
v 0.1173 -0.1879 0.0364
v 0.1059 -0.1798 0.0312
v 0.0889 -0.1889 0.0260
v 0.1138 -0.1809 0.0500
v 0.0927 -0.0836 0.0684
v 0.1173 -0.1594 0.1038
v 0.0732 -0.0892 0.0947
v 0.1173 -0.1526 0.1154
v 0.0904 -0.1437 0.1209
v 0.1059 -0.1433 0.1122
v 0.0916 -0.1572 0.1003
v 0.1089 -0.1542 0.1020
v 0.0732 -0.0787 0.1036
v 0.1173 -0.0887 0.1696
v 0.1059 -0.0876 0.1600
v 0.0889 -0.0975 0.1639
v 0.0745 -0.1546 -0.1140
v 0.1089 -0.1485 -0.1108
v 0.0978 -0.1065 -0.0895
v 0.1138 -0.1519 -0.1102
v -0.0451 -0.2068 -0.0847
v -0.0824 -0.2296 -0.0140
v 0.1055 -0.1923 -0.0122
v -0.1059 -0.2209 -0.0106
v 0.1092 -0.0550 -0.0118
v 0.0850 -0.0297 -0.0042
v 0.1040 -0.1853 -0.0336
v 0.1041 -0.1881 -0.0060
v 0.1030 -0.0463 -0.0015
v 0.1040 -0.0428 0.0191
v 0.1075 -0.1891 0.0085
v 0.1092 -0.0086 0.0582
v 0.0850 0.0025 0.0300
v 0.1040 0.0085 0.1882
v 0.1041 0.0361 0.1848
v 0.1030 0.0089 0.0455
v 0.1092 0.0301 0.0505
v 0.1075 0.0504 0.1825
v 0.1092 0.0548 -0.0133
v 0.0850 0.0287 -0.0091
v 0.1040 0.1816 -0.0502
v 0.1041 0.1721 -0.0762
v 0.1030 0.0424 -0.0188
v 0.1040 0.0303 -0.0357
v 0.1075 0.1667 -0.0897
v 0.0327 -0.2050 0.0343
v 0.0327 0.0791 0.1923
v 0.0327 0.1699 -0.1199
v 0.1092 -0.0435 0.0357
v 0.0850 -0.0219 0.0206
v 0.1040 -0.1418 0.1240
v 0.1041 -0.1220 0.1434
v 0.1030 -0.0300 0.0353
v 0.1040 -0.0117 0.0454
v 0.1075 -0.1113 0.1531
v 0.1092 0.0401 0.0430
v 0.0850 0.0250 0.0168
v 0.1040 0.1525 0.1107
v 0.1041 0.1670 0.0870
v 0.1030 0.0411 0.0214
v 0.1092 0.0583 0.0080
v 0.1075 0.1741 0.0744
v 0.1092 0.0238 -0.0510
v 0.0850 0.0108 -0.0281
v 0.1040 0.0740 -0.1732
v 0.1041 0.0477 -0.1821
v 0.1030 0.0118 -0.0448
v 0.1040 -0.0090 -0.0460
v 0.1075 0.0339 -0.1862
v 0.0327 -0.1010 0.1817
v 0.0327 0.1997 0.0581
v 0.0327 0.0122 -0.2075
v 0.1122 -0.1542 -0.0776
v 0.1094 -0.1753 -0.0710
v 0.1055 -0.1695 -0.0756
v 0.1084 -0.1586 -0.1002
v 0.1038 -0.1520 -0.0837
v 0.1079 -0.1563 -0.1072
v 0.1130 -0.1627 -0.1017
v 0.1121 -0.1780 -0.0706
v 0.1047 -0.1763 -0.0654
v 0.1092 -0.0174 -0.0561
v 0.0850 -0.0152 -0.0259
v 0.1040 -0.0893 -0.1658
v 0.1041 -0.1126 -0.1508
v 0.1030 -0.0277 -0.0371
v 0.1092 -0.0490 -0.0324
v 0.1075 -0.1245 -0.1426
v 0.0327 -0.1546 -0.1389
v 0.1122 0.1727 0.0031
v 0.1094 0.1888 -0.0121
v 0.1055 0.1856 -0.0054
v 0.1084 0.1864 0.0215
v 0.1038 0.1733 0.0095
v 0.1079 0.1874 0.0288
v 0.1130 0.1908 0.0211
v 0.1121 0.1911 -0.0136
v 0.1047 0.1873 -0.0175
v 0.1122 0.1053 0.1369
v 0.1094 0.1272 0.1400
v 0.1055 0.1199 0.1417
v 0.1084 0.0994 0.1591
v 0.1038 0.1007 0.1414
v 0.1079 0.0944 0.1645
v 0.1130 0.1025 0.1623
v 0.1121 0.1298 0.1409
v 0.1047 0.1305 0.1355
v 0.1122 0.1101 -0.1331
v 0.1094 0.1083 -0.1551
v 0.1055 0.1115 -0.1484
v 0.1084 0.1330 -0.1323
v 0.1038 0.1155 -0.1296
v 0.1079 0.1394 -0.1286
v 0.1130 0.1354 -0.1359
v 0.1121 0.1085 -0.1579
v 0.1047 0.1030 -0.1573
v 0.1122 -0.1568 0.0722
v 0.1094 -0.1648 0.0928
v 0.1055 -0.1648 0.0854
v 0.1084 -0.1772 0.0615
v 0.1038 -0.1602 0.0667
v 0.1079 -0.1813 0.0554
v 0.1130 -0.1810 0.0638
v 0.1121 -0.1662 0.0952
v 0.1047 -0.1611 0.0971
v 0.1122 -0.0413 0.1677
v 0.1094 -0.0302 0.1867
v 0.1055 -0.0360 0.1821
v 0.1084 -0.0624 0.1769
v 0.1038 -0.0477 0.1669
v 0.1079 -0.0697 0.1763
v 0.1130 -0.0630 0.1813
v 0.1121 -0.0292 0.1893
v 0.1047 -0.0245 0.1865
v 0.1122 -0.0354 -0.1690
v 0.1094 -0.0538 -0.1813
v 0.1055 -0.0465 -0.1797
v 0.1084 -0.0205 -0.1864
v 0.1038 -0.0293 -0.1710
v 0.1079 -0.0136 -0.1891
v 0.1130 -0.0218 -0.1906
v 0.1121 -0.0558 -0.1832
v 0.1047 -0.0588 -0.1786
f 707 714 708
f 708 713 707
f 710 709 711
f 712 709 710
f 711 709 712
f 714 707 713
f 718 715 716
f 717 715 718
f 716 717 718
f 729 719 720
f 721 722 720
f 720 722 723
f 730 724 725
f 726 727 725
f 725 727 728
f 721 723 722
f 729 720 719
f 726 728 727
f 730 725 724
f 731 732 733
f 734 732 731
f 733 732 734
f 740 738 737
f 737 739 740
f 739 738 740
f 742 736 741
f 735 736 742
f 742 741 735
f 743 744 745
f 746 748 749
f 746 747 748
f 748 747 749
f 750 744 743
f 745 744 750
f 756 754 753
f 753 755 756
f 755 754 756
f 758 752 757
f 751 752 758
f 758 757 751
f 761 759 762
f 763 765 766
f 763 764 765
f 765 764 766
f 762 759 760
f 761 760 759
f 772 770 769
f 769 771 772
f 771 770 772
f 774 768 773
f 767 768 774
f 774 773 767
f 775 776 777
f 778 780 781
f 778 779 780
f 780 779 781
f 782 776 775
f 777 776 782
f 788 786 785
f 785 787 788
f 787 786 788
f 790 784 789
f 783 784 790
f 790 789 783
f 791 792 793
f 794 796 797
f 794 795 796
f 796 795 797
f 798 792 791
f 793 792 798
f 804 802 801
f 801 803 804
f 803 802 804
f 806 800 805
f 799 800 806
f 806 805 799
f 807 809 810
f 807 808 809
f 809 808 810
f 812 828 811
f 811 813 812
f 814 815 813
f 813 811 814
f 816 817 815
f 815 814 816
f 818 819 817
f 817 816 818
f 820 821 819
f 819 818 820
f 822 823 821
f 821 820 822
f 824 825 823
f 823 822 824
f 826 827 825
f 825 824 826
f 826 829 827
f 829 826 828
f 828 812 829
f 830 831 832
f 833 832 831
f 834 835 836
f 837 836 835
f 838 839 840
f 841 840 839
f 842 843 844
f 845 844 843
f 843 846 845
f 847 845 846
f 848 849 850
f 851 850 849
f 849 852 851
f 853 851 852
f 852 854 853
f 855 853 854
f 854 856 855
f 857 855 856
f 856 858 857
f 859 857 858
f 860 861 862
f 863 862 861
f 864 865 866
f 867 866 865
f 868 869 870
f 871 870 869
f 869 872 871
f 873 871 872
f 872 874 873
f 875 873 874
f 876 877 878
f 879 878 877
f 877 880 879
f 881 879 880
f 880 882 881
f 883 881 882
f 882 884 883
f 885 883 884
f 884 886 885
f 887 885 886
f 886 888 887
f 889 887 888
f 890 891 892
f 893 892 891
f 891 894 893
f 895 893 894
f 894 896 895
f 897 895 896
f 898 899 900
f 901 900 899
f 899 902 901
f 903 901 902
f 902 904 903
f 905 903 904
f 904 906 905
f 907 905 906
f 906 908 907
f 909 907 908
f 910 911 912
f 913 912 911
f 911 914 913
f 915 913 914
f 914 916 915
f 917 915 916
f 918 919 920
f 921 922 923
f 924 923 922
f 925 926 927
f 928 927 926
f 930 928 929
f 931 932 933
f 934 933 932
f 935 936 937
f 938 937 936
f 941 940 939
f 939 942 941
f 943 941 942
f 944 945 946
f 947 946 945
f 948 950 949
f 951 949 950
f 953 951 950
f 950 952 953
f 952 954 953
f 955 953 954
f 957 955 954
f 954 956 957
f 956 958 957
f 959 957 958
f 961 959 958
f 958 960 961
f 960 962 961
f 964 961 962
f 962 963 964
f 967 964 963
f 963 965 967
f 965 966 967
f 969 967 966
f 966 968 969
f 972 969 968
f 968 970 972
f 970 971 972
f 974 972 971
f 971 973 974
f 976 974 973
f 973 975 976
f 949 976 975
f 975 948 949
f 977 964 967
f 977 967 969
f 969 978 977
f 978 969 972
f 978 972 974
f 974 979 978
f 979 974 976
f 979 976 949
f 949 980 979
f 980 949 951
f 980 951 953
f 980 953 955
f 980 955 957
f 957 981 980
f 981 957 959
f 981 959 961
f 981 961 964
f 964 977 981
f 820 818 982
f 818 816 982
f 983 982 816
f 816 814 983
f 814 811 983
f 984 983 811
f 811 828 984
f 828 826 984
f 826 824 985
f 985 984 826
f 824 822 985
f 822 820 985
f 982 985 820
f 986 987 988
f 990 991 989
f 992 993 994
f 994 995 992
f 996 1000 999
f 1000 1002 1005
f 1005 999 1000
f 1002 1007 1005
f 1003 1007 1002
f 1007 996 999
f 999 1005 1007
f 997 1003 1004
f 998 1000 997
f 997 1004 998
f 1001 1002 1000
f 1000 998 1001
f 1002 1001 1003
f 997 996 1007
f 1000 996 997
f 1003 1006 1008
f 1006 1007 1008
f 1007 1003 1008
f 997 1007 1006
f 1003 997 1006
f 1010 1009 1012
f 1010 1011 1009
f 1009 1011 1012
f 1014 1013 1016
f 1014 1015 1013
f 1013 1015 1016
f 1018 1017 1020
f 1018 1019 1017
f 1017 1019 1020
f 1022 1021 1024
f 1022 1023 1021
f 1021 1023 1024
f 1026 1025 1028
f 1026 1027 1025
f 1025 1027 1028
f 1030 1029 1032
f 1030 1031 1029
f 1029 1031 1032
f 1034 1033 1036
f 1034 1035 1033
f 1033 1035 1036
f 1042 1041 1039
f 1041 1037 1040
f 1040 1039 1041
f 1039 1038 1042
f 1038 1043 1048
f 1048 1042 1038
f 1044 1067 1045
f 1046 1043 1049
f 1043 1046 1048
f 1055 1048 1046
f 1046 1047 1055
f 1045 1049 1044
f 1052 1051 1050
f 1053 1052 1050
f 1051 1053 1050
f 1057 1056 1060
f 1056 1047 1054
f 1061 1057 1060
f 1057 1055 1047
f 1047 1056 1057
f 1058 1054 1049
f 1049 1045 1058
f 1065 1060 1062
f 1065 1061 1060
f 1058 1066 1054
f 1063 1062 1059
f 1064 1065 1063
f 1062 1063 1065
f 1066 1058 1067
f 1063 1068 1069
f 1069 1064 1063
f 1070 1040 1037
f 1044 1040 1071
f 1070 1037 1069
f 1069 1068 1070
f 1067 1044 1071
f 1067 1071 1066
f 1063 1071 1072
f 1068 1063 1072
f 1072 1070 1068
f 1072 1071 1070
f 1075 1074 1073
f 1076 1075 1073
f 1074 1076 1073
f 1080 1078 1077
f 1078 1079 1077
f 1079 1080 1077
f 1084 1082 1081
f 1082 1083 1081
f 1083 1084 1081
f 1088 1086 1085
f 1086 1087 1085
f 1087 1088 1085
f 1092 1090 1089
f 1090 1091 1089
f 1091 1092 1089
f 1096 1094 1093
f 1094 1095 1093
f 1095 1096 1093
f 1097 1049 1054
f 1054 1047 1097
f 1046 1049 1097
f 1047 1046 1097
f 1098 1040 1038
f 1038 1039 1098
f 1039 1040 1098
f 1049 1043 1099
f 1038 1049 1099
f 1043 1038 1099
f 1054 1060 1100
f 1060 1056 1101
f 1056 1054 1101
f 1100 1101 1054
f 1101 1100 1060
f 1102 1066 1059
f 1059 1062 1102
f 1062 1060 1102
f 1054 1066 1102
f 1060 1054 1102
f 1071 1063 1103
f 1059 1071 1103
f 1063 1059 1103
f 1104 1071 1040
f 1040 1070 1104
f 1070 1071 1104
f 1071 1059 1066
f 1049 1038 1044
f 1038 1040 1044
f 1115 1105 1106
f 1107 1108 1106
f 1106 1108 1109
f 1116 1110 1111
f 1112 1113 1111
f 1111 1113 1114
f 1107 1109 1108
f 1115 1106 1105
f 1112 1114 1113
f 1116 1111 1110
f 1122 1120 1119
f 1119 1121 1122
f 1121 1120 1122
f 1124 1118 1123
f 1117 1118 1124
f 1124 1123 1117
f 1125 1126 1127
f 1128 1130 1131
f 1128 1129 1130
f 1130 1129 1131
f 1132 1126 1125
f 1127 1126 1132
f 1138 1136 1135
f 1135 1137 1138
f 1137 1136 1138
f 1140 1134 1139
f 1133 1134 1140
f 1140 1139 1133
f 1141 1143 1144
f 1141 1142 1143
f 1143 1142 1144
f 1145 1146 1147
f 1148 1146 1145
f 1147 1146 1148
f 1150 1152 1149
f 1150 1149 1151
f 1150 1151 1152
f 1154 1157 1153
f 1155 1156 1159
f 1154 1158 1157
f 1158 1153 1157
f 1161 1164 1160
f 1162 1163 1166
f 1161 1165 1164
f 1160 1164 1165
f 1168 1171 1167
f 1169 1170 1173
f 1168 1172 1171
f 1172 1167 1171
f 1174 1156 1155
f 1174 1159 1156
f 1175 1163 1162
f 1175 1166 1163
f 1176 1170 1169
f 1176 1173 1170
f 1178 1181 1177
f 1179 1180 1183
f 1178 1182 1181
f 1182 1177 1181
f 1185 1188 1184
f 1186 1187 1190
f 1185 1189 1188
f 1184 1188 1189
f 1192 1195 1191
f 1193 1194 1197
f 1192 1196 1195
f 1196 1191 1195
f 1198 1180 1179
f 1198 1183 1180
f 1199 1187 1186
f 1199 1190 1187
f 1200 1194 1193
f 1200 1197 1194
f 1206 1204 1207
f 1202 1209 1208
f 1209 1202 1203
f 1206 1205 1204
f 1202 1208 1203
f 1201 1207 1204
f 1204 1205 1201
f 1211 1214 1210
f 1212 1213 1216
f 1211 1215 1214
f 1210 1214 1215
f 1217 1213 1212
f 1217 1216 1213
f 1223 1221 1224
f 1219 1226 1225
f 1226 1219 1220
f 1223 1222 1221
f 1219 1225 1220
f 1218 1224 1221
f 1221 1222 1218
f 1232 1230 1233
f 1228 1235 1234
f 1235 1228 1229
f 1232 1231 1230
f 1228 1234 1229
f 1227 1233 1230
f 1230 1231 1227
f 1241 1239 1242
f 1237 1244 1243
f 1244 1237 1238
f 1241 1240 1239
f 1237 1243 1238
f 1236 1242 1239
f 1239 1240 1236
f 1250 1248 1251
f 1246 1253 1252
f 1253 1246 1247
f 1250 1249 1248
f 1246 1252 1247
f 1245 1251 1248
f 1248 1249 1245
f 1259 1257 1260
f 1255 1262 1261
f 1262 1255 1256
f 1259 1258 1257
f 1255 1261 1256
f 1254 1260 1257
f 1257 1258 1254
f 1268 1266 1269
f 1264 1271 1270
f 1271 1264 1265
f 1268 1267 1266
f 1264 1270 1265
f 1263 1269 1266
f 1266 1267 1263
